<svg width="364" height="40" viewBox="0 0 364 40" fill="none" xmlns="http://www.w3.org/2000/svg">
<g clip-path="url(#clip0_14_4803)">
<path d="M9.25409 0L0 40H354.746L364 0H9.25409Z" fill="#FFA20E"/>
<path d="M145.219 13.625H149.461C150.331 13.625 151.078 13.7552 151.703 14.0156C152.333 14.276 152.818 14.6615 153.156 15.1719C153.495 15.6823 153.664 16.3099 153.664 17.0547C153.664 17.6641 153.56 18.1875 153.352 18.625C153.148 19.0573 152.859 19.4193 152.484 19.7109C152.115 19.9974 151.68 20.2266 151.18 20.3984L150.438 20.7891H146.75L146.734 18.9609H149.477C149.888 18.9609 150.229 18.888 150.5 18.7422C150.771 18.5964 150.974 18.3932 151.109 18.1328C151.25 17.8724 151.32 17.5703 151.32 17.2266C151.32 16.862 151.253 16.5469 151.117 16.2812C150.982 16.0156 150.776 15.8125 150.5 15.6719C150.224 15.5312 149.878 15.4609 149.461 15.4609H147.562V25H145.219V13.625ZM151.578 25L148.984 19.9297L151.461 19.9141L154.086 24.8906V25H151.578ZM159.219 25.1562C158.562 25.1562 157.974 25.0521 157.453 24.8438C156.932 24.6302 156.49 24.3359 156.125 23.9609C155.766 23.5859 155.49 23.151 155.297 22.6562C155.104 22.1562 155.008 21.625 155.008 21.0625V20.75C155.008 20.1094 155.099 19.5234 155.281 18.9922C155.464 18.4609 155.724 18 156.062 17.6094C156.406 17.2188 156.823 16.9193 157.312 16.7109C157.802 16.4974 158.354 16.3906 158.969 16.3906C159.568 16.3906 160.099 16.4896 160.562 16.6875C161.026 16.8854 161.414 17.1667 161.727 17.5312C162.044 17.8958 162.284 18.3333 162.445 18.8438C162.607 19.349 162.688 19.9115 162.688 20.5312V21.4688H155.969V19.9688H160.477V19.7969C160.477 19.4844 160.419 19.2057 160.305 18.9609C160.195 18.7109 160.029 18.513 159.805 18.3672C159.581 18.2214 159.294 18.1484 158.945 18.1484C158.648 18.1484 158.393 18.2135 158.18 18.3438C157.966 18.474 157.792 18.6562 157.656 18.8906C157.526 19.125 157.427 19.401 157.359 19.7188C157.297 20.0312 157.266 20.375 157.266 20.75V21.0625C157.266 21.401 157.312 21.7135 157.406 22C157.505 22.2865 157.643 22.5339 157.82 22.7422C158.003 22.9505 158.221 23.112 158.477 23.2266C158.737 23.3411 159.031 23.3984 159.359 23.3984C159.766 23.3984 160.143 23.3203 160.492 23.1641C160.846 23.0026 161.151 22.7604 161.406 22.4375L162.5 23.625C162.323 23.8802 162.081 24.125 161.773 24.3594C161.471 24.5938 161.107 24.7865 160.68 24.9375C160.253 25.0833 159.766 25.1562 159.219 25.1562ZM168.539 22.6641C168.539 22.5026 168.492 22.3568 168.398 22.2266C168.305 22.0964 168.13 21.9766 167.875 21.8672C167.625 21.7526 167.263 21.6484 166.789 21.5547C166.362 21.4609 165.964 21.3438 165.594 21.2031C165.229 21.0573 164.911 20.8828 164.641 20.6797C164.375 20.4766 164.167 20.237 164.016 19.9609C163.865 19.6797 163.789 19.3594 163.789 19C163.789 18.6458 163.865 18.3125 164.016 18C164.172 17.6875 164.393 17.4115 164.68 17.1719C164.971 16.9271 165.326 16.737 165.742 16.6016C166.164 16.4609 166.638 16.3906 167.164 16.3906C167.898 16.3906 168.529 16.5078 169.055 16.7422C169.586 16.9766 169.992 17.2995 170.273 17.7109C170.56 18.1172 170.703 18.5807 170.703 19.1016H168.453C168.453 18.8828 168.406 18.6875 168.312 18.5156C168.224 18.3385 168.083 18.2005 167.891 18.1016C167.703 17.9974 167.458 17.9453 167.156 17.9453C166.906 17.9453 166.69 17.9896 166.508 18.0781C166.326 18.1615 166.185 18.276 166.086 18.4219C165.992 18.5625 165.945 18.7188 165.945 18.8906C165.945 19.0208 165.971 19.138 166.023 19.2422C166.081 19.3411 166.172 19.4323 166.297 19.5156C166.422 19.599 166.583 19.6771 166.781 19.75C166.984 19.8177 167.234 19.8802 167.531 19.9375C168.141 20.0625 168.685 20.2266 169.164 20.4297C169.643 20.6276 170.023 20.8984 170.305 21.2422C170.586 21.5807 170.727 22.026 170.727 22.5781C170.727 22.9531 170.643 23.2969 170.477 23.6094C170.31 23.9219 170.07 24.1953 169.758 24.4297C169.445 24.6589 169.07 24.8385 168.633 24.9688C168.201 25.0938 167.714 25.1562 167.172 25.1562C166.385 25.1562 165.719 25.0156 165.172 24.7344C164.63 24.4531 164.219 24.0964 163.938 23.6641C163.661 23.2266 163.523 22.7786 163.523 22.3203H165.656C165.667 22.6276 165.745 22.875 165.891 23.0625C166.042 23.25 166.232 23.3854 166.461 23.4688C166.695 23.5521 166.948 23.5938 167.219 23.5938C167.51 23.5938 167.753 23.5547 167.945 23.4766C168.138 23.3932 168.284 23.2839 168.383 23.1484C168.487 23.0078 168.539 22.8464 168.539 22.6641ZM177.539 16.5469H179.578V24.7188C179.578 25.4896 179.406 26.1432 179.062 26.6797C178.724 27.2214 178.25 27.6302 177.641 27.9062C177.031 28.1875 176.323 28.3281 175.516 28.3281C175.161 28.3281 174.786 28.2812 174.391 28.1875C174 28.0938 173.625 27.9479 173.266 27.75C172.911 27.5521 172.615 27.3021 172.375 27L173.367 25.6719C173.628 25.974 173.93 26.2083 174.273 26.375C174.617 26.5469 174.997 26.6328 175.414 26.6328C175.82 26.6328 176.164 26.5573 176.445 26.4062C176.727 26.2604 176.943 26.0443 177.094 25.7578C177.245 25.4766 177.32 25.1354 177.32 24.7344V18.5L177.539 16.5469ZM171.852 20.875V20.7109C171.852 20.0651 171.93 19.4792 172.086 18.9531C172.247 18.4219 172.474 17.9661 172.766 17.5859C173.062 17.2057 173.422 16.9115 173.844 16.7031C174.266 16.4948 174.742 16.3906 175.273 16.3906C175.836 16.3906 176.307 16.4948 176.688 16.7031C177.068 16.9115 177.38 17.2083 177.625 17.5938C177.87 17.974 178.06 18.4245 178.195 18.9453C178.336 19.4609 178.445 20.026 178.523 20.6406V21C178.445 21.5885 178.328 22.1354 178.172 22.6406C178.016 23.1458 177.81 23.5885 177.555 23.9688C177.299 24.3438 176.982 24.6354 176.602 24.8438C176.227 25.0521 175.779 25.1562 175.258 25.1562C174.737 25.1562 174.266 25.0495 173.844 24.8359C173.427 24.6224 173.07 24.3229 172.773 23.9375C172.477 23.5521 172.247 23.099 172.086 22.5781C171.93 22.0573 171.852 21.4896 171.852 20.875ZM174.102 20.7109V20.875C174.102 21.224 174.135 21.5495 174.203 21.8516C174.271 22.1536 174.375 22.4219 174.516 22.6562C174.661 22.8854 174.841 23.0651 175.055 23.1953C175.273 23.3203 175.531 23.3828 175.828 23.3828C176.24 23.3828 176.576 23.2969 176.836 23.125C177.096 22.9479 177.292 22.7057 177.422 22.3984C177.552 22.0911 177.628 21.737 177.648 21.3359V20.3125C177.638 19.9844 177.594 19.6901 177.516 19.4297C177.438 19.1641 177.328 18.9375 177.188 18.75C177.047 18.5625 176.865 18.4167 176.641 18.3125C176.417 18.2083 176.151 18.1562 175.844 18.1562C175.547 18.1562 175.289 18.224 175.07 18.3594C174.857 18.4896 174.677 18.6693 174.531 18.8984C174.391 19.1276 174.284 19.3984 174.211 19.7109C174.138 20.0182 174.102 20.3516 174.102 20.7109ZM185.891 23.0938V19.3281C185.891 19.0573 185.846 18.8255 185.758 18.6328C185.669 18.4349 185.531 18.2812 185.344 18.1719C185.161 18.0625 184.924 18.0078 184.633 18.0078C184.383 18.0078 184.167 18.0521 183.984 18.1406C183.802 18.224 183.661 18.3464 183.562 18.5078C183.464 18.6641 183.414 18.849 183.414 19.0625H181.164C181.164 18.7031 181.247 18.362 181.414 18.0391C181.581 17.7161 181.823 17.4323 182.141 17.1875C182.458 16.9375 182.836 16.7422 183.273 16.6016C183.716 16.4609 184.211 16.3906 184.758 16.3906C185.414 16.3906 185.997 16.5 186.508 16.7188C187.018 16.9375 187.419 17.2656 187.711 17.7031C188.008 18.1406 188.156 18.6875 188.156 19.3438V22.9609C188.156 23.4245 188.185 23.8047 188.242 24.1016C188.299 24.3932 188.383 24.6484 188.492 24.8672V25H186.219C186.109 24.7708 186.026 24.4844 185.969 24.1406C185.917 23.7917 185.891 23.4427 185.891 23.0938ZM186.188 19.8516L186.203 21.125H184.945C184.648 21.125 184.391 21.1589 184.172 21.2266C183.953 21.2943 183.773 21.3906 183.633 21.5156C183.492 21.6354 183.388 21.776 183.32 21.9375C183.258 22.099 183.227 22.276 183.227 22.4688C183.227 22.6615 183.271 22.8359 183.359 22.9922C183.448 23.1432 183.576 23.263 183.742 23.3516C183.909 23.4349 184.104 23.4766 184.328 23.4766C184.667 23.4766 184.961 23.4089 185.211 23.2734C185.461 23.138 185.654 22.9714 185.789 22.7734C185.93 22.5755 186.003 22.388 186.008 22.2109L186.602 23.1641C186.518 23.3776 186.404 23.599 186.258 23.8281C186.117 24.0573 185.938 24.2734 185.719 24.4766C185.5 24.6745 185.237 24.8385 184.93 24.9688C184.622 25.0938 184.258 25.1562 183.836 25.1562C183.299 25.1562 182.812 25.0495 182.375 24.8359C181.943 24.6172 181.599 24.3177 181.344 23.9375C181.094 23.5521 180.969 23.1146 180.969 22.625C180.969 22.1823 181.052 21.7891 181.219 21.4453C181.385 21.1016 181.63 20.8125 181.953 20.5781C182.281 20.3385 182.69 20.1589 183.18 20.0391C183.669 19.9141 184.237 19.8516 184.883 19.8516H186.188ZM194.031 16.5469V18.1406H189.109V16.5469H194.031ZM190.328 14.4609H192.578V22.4531C192.578 22.6979 192.609 22.8854 192.672 23.0156C192.74 23.1458 192.839 23.237 192.969 23.2891C193.099 23.3359 193.263 23.3594 193.461 23.3594C193.602 23.3594 193.727 23.3542 193.836 23.3438C193.951 23.3281 194.047 23.3125 194.125 23.2969L194.133 24.9531C193.94 25.0156 193.732 25.0651 193.508 25.1016C193.284 25.138 193.036 25.1562 192.766 25.1562C192.271 25.1562 191.839 25.0755 191.469 24.9141C191.104 24.7474 190.823 24.4818 190.625 24.1172C190.427 23.7526 190.328 23.2734 190.328 22.6797V14.4609ZM199.203 25.1562C198.547 25.1562 197.958 25.0521 197.438 24.8438C196.917 24.6302 196.474 24.3359 196.109 23.9609C195.75 23.5859 195.474 23.151 195.281 22.6562C195.089 22.1562 194.992 21.625 194.992 21.0625V20.75C194.992 20.1094 195.083 19.5234 195.266 18.9922C195.448 18.4609 195.708 18 196.047 17.6094C196.391 17.2188 196.807 16.9193 197.297 16.7109C197.786 16.4974 198.339 16.3906 198.953 16.3906C199.552 16.3906 200.083 16.4896 200.547 16.6875C201.01 16.8854 201.398 17.1667 201.711 17.5312C202.029 17.8958 202.268 18.3333 202.43 18.8438C202.591 19.349 202.672 19.9115 202.672 20.5312V21.4688H195.953V19.9688H200.461V19.7969C200.461 19.4844 200.404 19.2057 200.289 18.9609C200.18 18.7109 200.013 18.513 199.789 18.3672C199.565 18.2214 199.279 18.1484 198.93 18.1484C198.633 18.1484 198.378 18.2135 198.164 18.3438C197.951 18.474 197.776 18.6562 197.641 18.8906C197.51 19.125 197.411 19.401 197.344 19.7188C197.281 20.0312 197.25 20.375 197.25 20.75V21.0625C197.25 21.401 197.297 21.7135 197.391 22C197.49 22.2865 197.628 22.5339 197.805 22.7422C197.987 22.9505 198.206 23.112 198.461 23.2266C198.721 23.3411 199.016 23.3984 199.344 23.3984C199.75 23.3984 200.128 23.3203 200.477 23.1641C200.831 23.0026 201.135 22.7604 201.391 22.4375L202.484 23.625C202.307 23.8802 202.065 24.125 201.758 24.3594C201.456 24.5938 201.091 24.7865 200.664 24.9375C200.237 25.0833 199.75 25.1562 199.203 25.1562ZM208.062 16.5469H210.32V25.5078C210.32 26.1328 210.206 26.6615 209.977 27.0938C209.747 27.526 209.417 27.8542 208.984 28.0781C208.552 28.3021 208.029 28.4141 207.414 28.4141C207.221 28.4141 207.034 28.4036 206.852 28.3828C206.664 28.362 206.471 28.3281 206.273 28.2812L206.281 26.5547C206.406 26.5755 206.529 26.5911 206.648 26.6016C206.763 26.6172 206.88 26.625 207 26.625C207.234 26.625 207.43 26.5859 207.586 26.5078C207.742 26.4297 207.859 26.3073 207.938 26.1406C208.021 25.9792 208.062 25.7682 208.062 25.5078V16.5469ZM207.883 14.3438C207.883 14.0156 207.997 13.7448 208.227 13.5312C208.461 13.3177 208.768 13.2109 209.148 13.2109C209.534 13.2109 209.841 13.3177 210.07 13.5312C210.299 13.7448 210.414 14.0156 210.414 14.3438C210.414 14.6719 210.299 14.9427 210.07 15.1562C209.841 15.3698 209.534 15.4766 209.148 15.4766C208.768 15.4766 208.461 15.3698 208.227 15.1562C207.997 14.9427 207.883 14.6719 207.883 14.3438ZM216.672 23.0938V19.3281C216.672 19.0573 216.628 18.8255 216.539 18.6328C216.451 18.4349 216.312 18.2812 216.125 18.1719C215.943 18.0625 215.706 18.0078 215.414 18.0078C215.164 18.0078 214.948 18.0521 214.766 18.1406C214.583 18.224 214.443 18.3464 214.344 18.5078C214.245 18.6641 214.195 18.849 214.195 19.0625H211.945C211.945 18.7031 212.029 18.362 212.195 18.0391C212.362 17.7161 212.604 17.4323 212.922 17.1875C213.24 16.9375 213.617 16.7422 214.055 16.6016C214.497 16.4609 214.992 16.3906 215.539 16.3906C216.195 16.3906 216.779 16.5 217.289 16.7188C217.799 16.9375 218.201 17.2656 218.492 17.7031C218.789 18.1406 218.938 18.6875 218.938 19.3438V22.9609C218.938 23.4245 218.966 23.8047 219.023 24.1016C219.081 24.3932 219.164 24.6484 219.273 24.8672V25H217C216.891 24.7708 216.807 24.4844 216.75 24.1406C216.698 23.7917 216.672 23.4427 216.672 23.0938ZM216.969 19.8516L216.984 21.125H215.727C215.43 21.125 215.172 21.1589 214.953 21.2266C214.734 21.2943 214.555 21.3906 214.414 21.5156C214.273 21.6354 214.169 21.776 214.102 21.9375C214.039 22.099 214.008 22.276 214.008 22.4688C214.008 22.6615 214.052 22.8359 214.141 22.9922C214.229 23.1432 214.357 23.263 214.523 23.3516C214.69 23.4349 214.885 23.4766 215.109 23.4766C215.448 23.4766 215.742 23.4089 215.992 23.2734C216.242 23.138 216.435 22.9714 216.57 22.7734C216.711 22.5755 216.784 22.388 216.789 22.2109L217.383 23.1641C217.299 23.3776 217.185 23.599 217.039 23.8281C216.898 24.0573 216.719 24.2734 216.5 24.4766C216.281 24.6745 216.018 24.8385 215.711 24.9688C215.404 25.0938 215.039 25.1562 214.617 25.1562C214.081 25.1562 213.594 25.0495 213.156 24.8359C212.724 24.6172 212.38 24.3177 212.125 23.9375C211.875 23.5521 211.75 23.1146 211.75 22.625C211.75 22.1823 211.833 21.7891 212 21.4453C212.167 21.1016 212.411 20.8125 212.734 20.5781C213.062 20.3385 213.471 20.1589 213.961 20.0391C214.451 19.9141 215.018 19.8516 215.664 19.8516H216.969ZM214.461 15.4062L215.992 13H218.438L216.289 15.4062H214.461Z" fill="#00213A"/>
</g>
<defs>
<clipPath id="clip0_14_4803">
<rect width="364" height="40" fill="white"/>
</clipPath>
</defs>
</svg>
