<svg width="155" height="156" viewBox="0 0 155 156" fill="none" xmlns="http://www.w3.org/2000/svg">
<ellipse cx="77.5" cy="78" rx="77.5" ry="78" fill="#FEC311"/>
<path d="M86.1895 47.5556L76.1683 58.8979L69.2682 51.7223C68.6544 51.0853 67.6395 51.0653 66.9976 51.6783C66.3597 52.2913 66.3397 53.3049 66.9535 53.9459L75.0611 62.3755C75.362 62.688 75.7832 62.8683 76.2165 62.8683C76.2285 62.8683 76.2405 62.8683 76.2526 62.8683C76.7019 62.8603 77.1231 62.6599 77.42 62.3274L88.5925 49.6791C89.1782 49.014 89.114 48.0044 88.4521 47.4154C87.7862 46.8305 86.7712 46.8946 86.1855 47.5556" fill="white"/>
<path d="M123.976 91.7588C122.788 86.3661 120.73 80.741 118.969 78.0848C117.012 75.128 113.83 75.0238 112.302 75.8812C111.375 76.4021 110.717 77.1072 110.28 77.9205C108.334 76.0054 105.947 75.9493 104.262 76.6304C103.264 77.0351 102.425 77.7402 101.823 78.6617C100.11 76.7747 97.2821 75.729 94.7267 77.0551C93.7759 77.5479 93.0297 78.249 92.5042 79.1024C89.5957 73.7057 86.615 68.1408 86.0975 67.039C84.6373 63.938 81.8492 62.6079 78.9888 63.6536C77.6569 64.1383 74.7645 65.8811 76.6299 71.5222C77.2718 73.4573 86.0213 90.4607 93.5192 104.892C92.3237 104.652 90.9116 104.199 89.5596 103.357C85.572 100.865 82.5031 100.857 79.7871 101.222C76.979 101.595 72.6784 103.265 72.3294 106.33C72.201 107.472 72.5059 108.53 73.212 109.395C74.2671 110.681 76.1124 111.446 78.7 111.671C82.2062 111.975 86.1617 114.956 89.9889 117.845C90.5666 118.281 91.1402 118.714 91.7139 119.139C92.0027 119.351 92.3357 119.455 92.6687 119.455C93.1581 119.455 93.6435 119.231 93.9564 118.806C94.486 118.097 94.3376 117.092 93.6235 116.567C93.0578 116.146 92.4922 115.721 91.9225 115.289C87.7343 112.128 83.4017 108.862 78.9728 108.478C77.3761 108.341 76.1485 107.925 75.6912 107.364C75.5789 107.228 75.4746 107.043 75.5107 106.691C75.5829 106.038 77.7612 104.724 80.2004 104.399C82.2704 104.123 84.5651 104.027 87.8506 106.078C90.2577 107.58 92.785 108.105 94.478 108.281C95.4047 108.378 96.3033 107.961 96.8288 107.196C97.3503 106.43 97.4105 105.445 96.9813 104.619C86.587 84.6233 80.1121 71.8748 79.6668 70.5206C79.1693 69.0142 78.8364 67.1231 80.08 66.6704C81.7729 66.0494 82.7518 67.4917 83.181 68.4092C84.2722 70.7289 95.2041 90.8773 95.6694 91.7347C96.0907 92.512 97.0655 92.8004 97.8438 92.3798C98.622 91.9591 98.9109 90.9855 98.4897 90.2083C98.4535 90.1402 97.2701 87.9607 95.6454 84.9598C94.9233 83.6217 94.6826 82.2955 94.9834 81.314C95.176 80.689 95.5691 80.2282 96.191 79.9077C97.6231 79.1625 99.2639 80.3284 99.8937 81.4502C99.998 81.6425 100.584 82.8284 101.346 84.3789C102.301 86.326 103.532 88.8461 104.439 90.7091C104.716 91.278 105.289 91.6105 105.883 91.6105C106.12 91.6105 106.357 91.5584 106.585 91.4503C107.384 91.0616 107.713 90.1041 107.327 89.3068C106.894 88.4134 105.406 85.3565 104.226 82.9566C103.958 82.4077 103.954 81.6425 104.218 80.9534C104.363 80.5768 104.716 79.9037 105.45 79.6032C106.036 79.3668 107.54 79.0543 108.816 81.2619C109.097 81.7467 109.771 83.0528 110.517 84.5231C111.311 86.0856 112.186 87.8365 112.759 88.9903C113.04 89.5552 113.606 89.8797 114.199 89.8797C114.44 89.8797 114.681 89.8277 114.914 89.7115C115.708 89.3188 116.033 88.3573 115.636 87.564C115.555 87.4078 114.44 85.1602 113.373 83.0648C112.811 81.951 112.19 79.6112 113.858 78.6777C114.051 78.5816 115.307 78.3853 116.282 79.8516C117.822 82.1794 119.736 87.4759 120.827 92.4439C120.991 93.1931 121.657 93.7019 122.391 93.7019C122.508 93.7019 122.62 93.6899 122.736 93.6658C123.603 93.4735 124.148 92.6202 123.96 91.7548" fill="white"/>
<path d="M72.6465 73.934C72.7749 73.9661 72.9073 73.9821 73.0356 73.9821C73.7537 73.9821 74.4076 73.4973 74.5922 72.7681C74.8088 71.9107 74.2833 71.0373 73.4248 70.825C66.2278 69.0301 61.2012 62.5958 61.2012 55.1758C61.2012 46.2815 68.4463 39.0459 77.3522 39.0459C86.2582 39.0459 93.5033 46.2815 93.5033 55.1758C93.5033 59.1622 92.035 62.9884 89.3712 65.9492C88.7775 66.6062 88.8337 67.6198 89.4916 68.2128C90.1495 68.8058 91.1645 68.7497 91.7582 68.0926C94.5945 64.9395 96.2954 60.9732 96.6404 56.7784H117.951L108.026 66.458C107.392 67.075 107.38 68.0926 107.998 68.7256C108.31 69.0461 108.728 69.2104 109.145 69.2104C109.562 69.2104 109.955 69.0582 110.264 68.7537L123.005 56.3257C123.322 56.0132 123.499 55.5845 123.487 55.1398C123.475 54.6951 123.282 54.2744 122.949 53.9779L110.208 42.6797C109.546 42.0908 108.531 42.1509 107.941 42.8159C107.352 43.477 107.412 44.4906 108.078 45.0796L117.662 53.5773H96.6324C95.814 43.6613 87.4777 35.8447 77.3442 35.8447C67.2107 35.8447 58.8744 43.6653 58.056 53.5773H32.1164C31.2298 53.5773 30.5117 54.2944 30.5117 55.1798C30.5117 56.0653 31.2298 56.7824 32.1164 56.7824H58.06C58.734 64.9876 64.5429 71.9188 72.6465 73.938" fill="white"/>
</svg>
