<svg width="172" height="40" viewBox="0 0 172 40" fill="none" xmlns="http://www.w3.org/2000/svg">
<g clip-path="url(#clip0_522_3628)">
<path d="M9.25409 0L0 40H162.246L171.5 0H9.25409Z" fill="#FFA20E"/>
<g clip-path="url(#clip1_522_3628)">
<path d="M29.3516 23.2734L32.7031 13.625H34.3359L30.125 25H28.9609L29.3516 23.2734ZM26.2188 13.625L29.5391 23.2734L29.9531 25H28.7891L24.5859 13.625H26.2188ZM34.9062 20.8672V20.6875C34.9062 20.0781 34.9948 19.513 35.1719 18.9922C35.349 18.4661 35.6042 18.0104 35.9375 17.625C36.2708 17.2344 36.6745 16.9323 37.1484 16.7188C37.6224 16.5 38.1536 16.3906 38.7422 16.3906C39.3359 16.3906 39.8698 16.5 40.3438 16.7188C40.8229 16.9323 41.2292 17.2344 41.5625 17.625C41.901 18.0104 42.1589 18.4661 42.3359 18.9922C42.513 19.513 42.6016 20.0781 42.6016 20.6875V20.8672C42.6016 21.4766 42.513 22.0417 42.3359 22.5625C42.1589 23.0833 41.901 23.5391 41.5625 23.9297C41.2292 24.3151 40.8255 24.6172 40.3516 24.8359C39.8828 25.0495 39.3516 25.1562 38.7578 25.1562C38.1641 25.1562 37.6302 25.0495 37.1562 24.8359C36.6823 24.6172 36.276 24.3151 35.9375 23.9297C35.6042 23.5391 35.349 23.0833 35.1719 22.5625C34.9948 22.0417 34.9062 21.4766 34.9062 20.8672ZM36.3516 20.6875V20.8672C36.3516 21.2891 36.401 21.6875 36.5 22.0625C36.599 22.4323 36.7474 22.7604 36.9453 23.0469C37.1484 23.3333 37.401 23.5599 37.7031 23.7266C38.0052 23.888 38.3568 23.9688 38.7578 23.9688C39.1536 23.9688 39.5 23.888 39.7969 23.7266C40.099 23.5599 40.349 23.3333 40.5469 23.0469C40.7448 22.7604 40.8932 22.4323 40.9922 22.0625C41.0964 21.6875 41.1484 21.2891 41.1484 20.8672V20.6875C41.1484 20.2708 41.0964 19.8776 40.9922 19.5078C40.8932 19.1328 40.7422 18.8021 40.5391 18.5156C40.3411 18.224 40.0911 17.9948 39.7891 17.8281C39.4922 17.6615 39.1432 17.5781 38.7422 17.5781C38.3464 17.5781 37.9974 17.6615 37.6953 17.8281C37.3984 17.9948 37.1484 18.224 36.9453 18.5156C36.7474 18.8021 36.599 19.1328 36.5 19.5078C36.401 19.8776 36.3516 20.2708 36.3516 20.6875ZM45.9844 13V25H44.5312V13H45.9844ZM51.8438 16.5469V17.6562H47.2734V16.5469H51.8438ZM48.8203 14.4922H50.2656V22.9062C50.2656 23.1927 50.3099 23.4089 50.3984 23.5547C50.487 23.7005 50.6016 23.7969 50.7422 23.8438C50.8828 23.8906 51.0339 23.9141 51.1953 23.9141C51.3151 23.9141 51.4401 23.9036 51.5703 23.8828C51.7057 23.8568 51.8073 23.8359 51.875 23.8203L51.8828 25C51.7682 25.0365 51.6172 25.0703 51.4297 25.1016C51.2474 25.138 51.026 25.1562 50.7656 25.1562C50.4115 25.1562 50.0859 25.0859 49.7891 24.9453C49.4922 24.8047 49.2552 24.5703 49.0781 24.2422C48.9062 23.9089 48.8203 23.4609 48.8203 22.8984V14.4922ZM58.5234 23.5547V19.2031C58.5234 18.8698 58.4557 18.5807 58.3203 18.3359C58.1901 18.0859 57.9922 17.8932 57.7266 17.7578C57.4609 17.6224 57.1328 17.5547 56.7422 17.5547C56.3776 17.5547 56.0573 17.6172 55.7812 17.7422C55.5104 17.8672 55.2969 18.0312 55.1406 18.2344C54.9896 18.4375 54.9141 18.6562 54.9141 18.8906H53.4688C53.4688 18.5885 53.5469 18.2891 53.7031 17.9922C53.8594 17.6953 54.0833 17.4271 54.375 17.1875C54.6719 16.9427 55.026 16.75 55.4375 16.6094C55.8542 16.4635 56.3177 16.3906 56.8281 16.3906C57.4427 16.3906 57.9844 16.4948 58.4531 16.7031C58.9271 16.9115 59.2969 17.2266 59.5625 17.6484C59.8333 18.0651 59.9688 18.5885 59.9688 19.2188V23.1562C59.9688 23.4375 59.9922 23.737 60.0391 24.0547C60.0911 24.3724 60.1667 24.6458 60.2656 24.875V25H58.7578C58.6849 24.8333 58.6276 24.612 58.5859 24.3359C58.5443 24.0547 58.5234 23.7943 58.5234 23.5547ZM58.7734 19.875L58.7891 20.8906H57.3281C56.9167 20.8906 56.5495 20.9245 56.2266 20.9922C55.9036 21.0547 55.6328 21.151 55.4141 21.2812C55.1953 21.4115 55.0286 21.5755 54.9141 21.7734C54.7995 21.9661 54.7422 22.1927 54.7422 22.4531C54.7422 22.7188 54.8021 22.9609 54.9219 23.1797C55.0417 23.3984 55.2214 23.5729 55.4609 23.7031C55.7057 23.8281 56.0052 23.8906 56.3594 23.8906C56.8021 23.8906 57.1927 23.7969 57.5312 23.6094C57.8698 23.4219 58.138 23.1927 58.3359 22.9219C58.5391 22.651 58.6484 22.388 58.6641 22.1328L59.2812 22.8281C59.2448 23.0469 59.1458 23.2891 58.9844 23.5547C58.8229 23.8203 58.6068 24.0755 58.3359 24.3203C58.0703 24.5599 57.7526 24.7604 57.3828 24.9219C57.0182 25.0781 56.6068 25.1562 56.1484 25.1562C55.5755 25.1562 55.0729 25.0443 54.6406 24.8203C54.2135 24.5964 53.8802 24.2969 53.6406 23.9219C53.4062 23.5417 53.2891 23.1172 53.2891 22.6484C53.2891 22.1953 53.3776 21.7969 53.5547 21.4531C53.7318 21.1042 53.987 20.8151 54.3203 20.5859C54.6536 20.3516 55.0547 20.1745 55.5234 20.0547C55.9922 19.9349 56.5156 19.875 57.0938 19.875H58.7734ZM63.6875 17.875V25H62.2422V16.5469H63.6484L63.6875 17.875ZM66.3281 16.5L66.3203 17.8438C66.2005 17.8177 66.0859 17.8021 65.9766 17.7969C65.8724 17.7865 65.7526 17.7812 65.6172 17.7812C65.2839 17.7812 64.9896 17.8333 64.7344 17.9375C64.4792 18.0417 64.263 18.1875 64.0859 18.375C63.9089 18.5625 63.7682 18.7865 63.6641 19.0469C63.5651 19.3021 63.5 19.5833 63.4688 19.8906L63.0625 20.125C63.0625 19.6146 63.112 19.1354 63.2109 18.6875C63.3151 18.2396 63.474 17.8438 63.6875 17.5C63.901 17.151 64.1719 16.8802 64.5 16.6875C64.8333 16.4896 65.2292 16.3906 65.6875 16.3906C65.7917 16.3906 65.9115 16.4036 66.0469 16.4297C66.1823 16.4505 66.276 16.474 66.3281 16.5ZM76.6172 23.5547V19.2031C76.6172 18.8698 76.5495 18.5807 76.4141 18.3359C76.2839 18.0859 76.0859 17.8932 75.8203 17.7578C75.5547 17.6224 75.2266 17.5547 74.8359 17.5547C74.4714 17.5547 74.151 17.6172 73.875 17.7422C73.6042 17.8672 73.3906 18.0312 73.2344 18.2344C73.0833 18.4375 73.0078 18.6562 73.0078 18.8906H71.5625C71.5625 18.5885 71.6406 18.2891 71.7969 17.9922C71.9531 17.6953 72.1771 17.4271 72.4688 17.1875C72.7656 16.9427 73.1198 16.75 73.5312 16.6094C73.9479 16.4635 74.4115 16.3906 74.9219 16.3906C75.5365 16.3906 76.0781 16.4948 76.5469 16.7031C77.0208 16.9115 77.3906 17.2266 77.6562 17.6484C77.9271 18.0651 78.0625 18.5885 78.0625 19.2188V23.1562C78.0625 23.4375 78.0859 23.737 78.1328 24.0547C78.1849 24.3724 78.2604 24.6458 78.3594 24.875V25H76.8516C76.7786 24.8333 76.7214 24.612 76.6797 24.3359C76.638 24.0547 76.6172 23.7943 76.6172 23.5547ZM76.8672 19.875L76.8828 20.8906H75.4219C75.0104 20.8906 74.6432 20.9245 74.3203 20.9922C73.9974 21.0547 73.7266 21.151 73.5078 21.2812C73.2891 21.4115 73.1224 21.5755 73.0078 21.7734C72.8932 21.9661 72.8359 22.1927 72.8359 22.4531C72.8359 22.7188 72.8958 22.9609 73.0156 23.1797C73.1354 23.3984 73.3151 23.5729 73.5547 23.7031C73.7995 23.8281 74.099 23.8906 74.4531 23.8906C74.8958 23.8906 75.2865 23.7969 75.625 23.6094C75.9635 23.4219 76.2318 23.1927 76.4297 22.9219C76.6328 22.651 76.7422 22.388 76.7578 22.1328L77.375 22.8281C77.3385 23.0469 77.2396 23.2891 77.0781 23.5547C76.9167 23.8203 76.7005 24.0755 76.4297 24.3203C76.1641 24.5599 75.8464 24.7604 75.4766 24.9219C75.112 25.0781 74.7005 25.1562 74.2422 25.1562C73.6693 25.1562 73.1667 25.0443 72.7344 24.8203C72.3073 24.5964 71.974 24.2969 71.7344 23.9219C71.5 23.5417 71.3828 23.1172 71.3828 22.6484C71.3828 22.1953 71.4714 21.7969 71.6484 21.4531C71.8255 21.1042 72.0807 20.8151 72.4141 20.5859C72.7474 20.3516 73.1484 20.1745 73.6172 20.0547C74.0859 19.9349 74.6094 19.875 75.1875 19.875H76.8672ZM79.9531 20.8672V20.6875C79.9531 20.0781 80.0417 19.513 80.2188 18.9922C80.3958 18.4661 80.651 18.0104 80.9844 17.625C81.3177 17.2344 81.7214 16.9323 82.1953 16.7188C82.6693 16.5 83.2005 16.3906 83.7891 16.3906C84.3828 16.3906 84.9167 16.5 85.3906 16.7188C85.8698 16.9323 86.276 17.2344 86.6094 17.625C86.9479 18.0104 87.2057 18.4661 87.3828 18.9922C87.5599 19.513 87.6484 20.0781 87.6484 20.6875V20.8672C87.6484 21.4766 87.5599 22.0417 87.3828 22.5625C87.2057 23.0833 86.9479 23.5391 86.6094 23.9297C86.276 24.3151 85.8724 24.6172 85.3984 24.8359C84.9297 25.0495 84.3984 25.1562 83.8047 25.1562C83.2109 25.1562 82.6771 25.0495 82.2031 24.8359C81.7292 24.6172 81.3229 24.3151 80.9844 23.9297C80.651 23.5391 80.3958 23.0833 80.2188 22.5625C80.0417 22.0417 79.9531 21.4766 79.9531 20.8672ZM81.3984 20.6875V20.8672C81.3984 21.2891 81.4479 21.6875 81.5469 22.0625C81.6458 22.4323 81.7943 22.7604 81.9922 23.0469C82.1953 23.3333 82.4479 23.5599 82.75 23.7266C83.0521 23.888 83.4036 23.9688 83.8047 23.9688C84.2005 23.9688 84.5469 23.888 84.8438 23.7266C85.1458 23.5599 85.3958 23.3333 85.5938 23.0469C85.7917 22.7604 85.9401 22.4323 86.0391 22.0625C86.1432 21.6875 86.1953 21.2891 86.1953 20.8672V20.6875C86.1953 20.2708 86.1432 19.8776 86.0391 19.5078C85.9401 19.1328 85.7891 18.8021 85.5859 18.5156C85.388 18.224 85.138 17.9948 84.8359 17.8281C84.5391 17.6615 84.1901 17.5781 83.7891 17.5781C83.3932 17.5781 83.0443 17.6615 82.7422 17.8281C82.4453 17.9948 82.1953 18.224 81.9922 18.5156C81.7943 18.8021 81.6458 19.1328 81.5469 19.5078C81.4479 19.8776 81.3984 20.2708 81.3984 20.6875ZM96.9688 16.5469V17.6562H92.3984V16.5469H96.9688ZM93.9453 14.4922H95.3906V22.9062C95.3906 23.1927 95.4349 23.4089 95.5234 23.5547C95.612 23.7005 95.7266 23.7969 95.8672 23.8438C96.0078 23.8906 96.1589 23.9141 96.3203 23.9141C96.4401 23.9141 96.5651 23.9036 96.6953 23.8828C96.8307 23.8568 96.9323 23.8359 97 23.8203L97.0078 25C96.8932 25.0365 96.7422 25.0703 96.5547 25.1016C96.3724 25.138 96.151 25.1562 95.8906 25.1562C95.5365 25.1562 95.2109 25.0859 94.9141 24.9453C94.6172 24.8047 94.3802 24.5703 94.2031 24.2422C94.0312 23.9089 93.9453 23.4609 93.9453 22.8984V14.4922ZM98.125 20.8672V20.6875C98.125 20.0781 98.2135 19.513 98.3906 18.9922C98.5677 18.4661 98.8229 18.0104 99.1562 17.625C99.4896 17.2344 99.8932 16.9323 100.367 16.7188C100.841 16.5 101.372 16.3906 101.961 16.3906C102.555 16.3906 103.089 16.5 103.562 16.7188C104.042 16.9323 104.448 17.2344 104.781 17.625C105.12 18.0104 105.378 18.4661 105.555 18.9922C105.732 19.513 105.82 20.0781 105.82 20.6875V20.8672C105.82 21.4766 105.732 22.0417 105.555 22.5625C105.378 23.0833 105.12 23.5391 104.781 23.9297C104.448 24.3151 104.044 24.6172 103.57 24.8359C103.102 25.0495 102.57 25.1562 101.977 25.1562C101.383 25.1562 100.849 25.0495 100.375 24.8359C99.901 24.6172 99.4948 24.3151 99.1562 23.9297C98.8229 23.5391 98.5677 23.0833 98.3906 22.5625C98.2135 22.0417 98.125 21.4766 98.125 20.8672ZM99.5703 20.6875V20.8672C99.5703 21.2891 99.6198 21.6875 99.7188 22.0625C99.8177 22.4323 99.9661 22.7604 100.164 23.0469C100.367 23.3333 100.62 23.5599 100.922 23.7266C101.224 23.888 101.576 23.9688 101.977 23.9688C102.372 23.9688 102.719 23.888 103.016 23.7266C103.318 23.5599 103.568 23.3333 103.766 23.0469C103.964 22.7604 104.112 22.4323 104.211 22.0625C104.315 21.6875 104.367 21.2891 104.367 20.8672V20.6875C104.367 20.2708 104.315 19.8776 104.211 19.5078C104.112 19.1328 103.961 18.8021 103.758 18.5156C103.56 18.224 103.31 17.9948 103.008 17.8281C102.711 17.6615 102.362 17.5781 101.961 17.5781C101.565 17.5781 101.216 17.6615 100.914 17.8281C100.617 17.9948 100.367 18.224 100.164 18.5156C99.9661 18.8021 99.8177 19.1328 99.7188 19.5078C99.6198 19.8776 99.5703 20.2708 99.5703 20.6875ZM109.078 18.1719V28.25H107.625V16.5469H108.953L109.078 18.1719ZM114.773 20.7031V20.8672C114.773 21.4818 114.701 22.0521 114.555 22.5781C114.409 23.099 114.195 23.5521 113.914 23.9375C113.638 24.3229 113.297 24.6224 112.891 24.8359C112.484 25.0495 112.018 25.1562 111.492 25.1562C110.956 25.1562 110.482 25.0677 110.07 24.8906C109.659 24.7135 109.31 24.4557 109.023 24.1172C108.737 23.7786 108.508 23.3724 108.336 22.8984C108.169 22.4245 108.055 21.8906 107.992 21.2969V20.4219C108.055 19.7969 108.172 19.237 108.344 18.7422C108.516 18.2474 108.742 17.8255 109.023 17.4766C109.31 17.1224 109.656 16.8542 110.062 16.6719C110.469 16.4844 110.938 16.3906 111.469 16.3906C112 16.3906 112.471 16.4948 112.883 16.7031C113.294 16.9062 113.641 17.1979 113.922 17.5781C114.203 17.9583 114.414 18.4141 114.555 18.9453C114.701 19.4714 114.773 20.0573 114.773 20.7031ZM113.32 20.8672V20.7031C113.32 20.2812 113.276 19.8854 113.188 19.5156C113.099 19.1406 112.961 18.8125 112.773 18.5312C112.591 18.2448 112.357 18.0208 112.07 17.8594C111.784 17.6927 111.443 17.6094 111.047 17.6094C110.682 17.6094 110.365 17.6719 110.094 17.7969C109.828 17.9219 109.602 18.0911 109.414 18.3047C109.227 18.513 109.073 18.7526 108.953 19.0234C108.839 19.2891 108.753 19.5651 108.695 19.8516V21.875C108.799 22.2396 108.945 22.5833 109.133 22.9062C109.32 23.224 109.57 23.4818 109.883 23.6797C110.195 23.8724 110.589 23.9688 111.062 23.9688C111.453 23.9688 111.789 23.888 112.07 23.7266C112.357 23.5599 112.591 23.3333 112.773 23.0469C112.961 22.7604 113.099 22.4323 113.188 22.0625C113.276 21.6875 113.32 21.2891 113.32 20.8672ZM116.234 20.8672V20.6875C116.234 20.0781 116.323 19.513 116.5 18.9922C116.677 18.4661 116.932 18.0104 117.266 17.625C117.599 17.2344 118.003 16.9323 118.477 16.7188C118.951 16.5 119.482 16.3906 120.07 16.3906C120.664 16.3906 121.198 16.5 121.672 16.7188C122.151 16.9323 122.557 17.2344 122.891 17.625C123.229 18.0104 123.487 18.4661 123.664 18.9922C123.841 19.513 123.93 20.0781 123.93 20.6875V20.8672C123.93 21.4766 123.841 22.0417 123.664 22.5625C123.487 23.0833 123.229 23.5391 122.891 23.9297C122.557 24.3151 122.154 24.6172 121.68 24.8359C121.211 25.0495 120.68 25.1562 120.086 25.1562C119.492 25.1562 118.958 25.0495 118.484 24.8359C118.01 24.6172 117.604 24.3151 117.266 23.9297C116.932 23.5391 116.677 23.0833 116.5 22.5625C116.323 22.0417 116.234 21.4766 116.234 20.8672ZM117.68 20.6875V20.8672C117.68 21.2891 117.729 21.6875 117.828 22.0625C117.927 22.4323 118.076 22.7604 118.273 23.0469C118.477 23.3333 118.729 23.5599 119.031 23.7266C119.333 23.888 119.685 23.9688 120.086 23.9688C120.482 23.9688 120.828 23.888 121.125 23.7266C121.427 23.5599 121.677 23.3333 121.875 23.0469C122.073 22.7604 122.221 22.4323 122.32 22.0625C122.424 21.6875 122.477 21.2891 122.477 20.8672V20.6875C122.477 20.2708 122.424 19.8776 122.32 19.5078C122.221 19.1328 122.07 18.8021 121.867 18.5156C121.669 18.224 121.419 17.9948 121.117 17.8281C120.82 17.6615 120.471 17.5781 120.07 17.5781C119.674 17.5781 119.326 17.6615 119.023 17.8281C118.727 17.9948 118.477 18.224 118.273 18.5156C118.076 18.8021 117.927 19.1328 117.828 19.5078C117.729 19.8776 117.68 20.2708 117.68 20.6875Z" fill="#00213A"/>
<path d="M146.143 18.4267L139.703 12.02L133.263 18.4267C133.187 18.4845 133.124 18.5581 133.079 18.6422C133.034 18.7264 133.007 18.8193 133.001 18.9146C132.995 19.0099 133.01 19.1054 133.044 19.1947C133.078 19.2839 133.131 19.3648 133.199 19.4318C133.267 19.4989 133.348 19.5505 133.438 19.5833C133.528 19.6161 133.623 19.6292 133.719 19.6217C133.814 19.6143 133.906 19.5865 133.99 19.5402C134.073 19.4939 134.146 19.4302 134.203 19.3534L139.036 14.56V27.3134C139.036 27.4902 139.106 27.6597 139.231 27.7848C139.356 27.9098 139.526 27.98 139.703 27.98C139.88 27.98 140.049 27.9098 140.174 27.7848C140.299 27.6597 140.369 27.4902 140.369 27.3134V14.56L145.203 19.3534C145.328 19.478 145.498 19.5477 145.675 19.5471C145.852 19.5464 146.021 19.4756 146.146 19.35C146.271 19.2245 146.34 19.0546 146.34 18.8777C146.339 18.7008 146.268 18.5313 146.143 18.4067V18.4267Z" fill="#00213A"/>
</g>
</g>
<defs>
<clipPath id="clip0_522_3628">
<rect width="171.5" height="40" fill="white"/>
</clipPath>
<clipPath id="clip1_522_3628">
<rect width="122.34" height="24" fill="white" transform="translate(24 8)"/>
</clipPath>
</defs>
</svg>
