<svg width="155" height="156" viewBox="0 0 155 156" fill="none" xmlns="http://www.w3.org/2000/svg">
<ellipse cx="77.5" cy="78" rx="77.5" ry="78" fill="#FEC311"/>
<path d="M76.9805 61.0698V59.9734C76.9805 59.5007 76.8254 59.1094 76.5112 58.7955C76.1969 58.4817 75.8051 58.3228 75.3317 58.3228C74.8624 58.3228 74.4665 58.4776 74.1523 58.7915C73.838 59.1053 73.6789 59.4966 73.6789 59.9694V61.1473C72.4178 61.3021 71.4751 61.8483 70.6874 62.7124C69.8998 63.4949 69.508 64.5954 69.5039 65.7692C69.5039 67.8886 70.6793 69.4578 72.9565 70.3259L76.4132 71.6627C77.4335 72.0581 77.9844 72.6858 77.9804 73.6273C77.9804 74.2549 77.7437 74.7236 77.3519 75.119C76.8785 75.5103 76.3275 75.6651 75.7031 75.6651L71.4588 75.657C70.9854 75.657 70.5936 75.8119 70.2793 76.1257C69.9651 76.4395 69.8059 76.8308 69.8059 77.3036C69.8059 77.6949 69.961 78.0902 70.2752 78.4041C70.5895 78.7179 70.9813 78.8769 71.4547 78.8769H73.6544V79.9773C73.6544 80.9963 74.2013 81.5465 75.3032 81.5506C75.7766 81.5506 76.1684 81.4731 76.4826 81.1593C76.7968 80.8454 76.956 80.4542 76.956 79.9814V78.8035C78.2946 78.6486 79.3149 78.1025 80.1801 77.161C80.9677 76.2195 81.4411 75.1231 81.4411 73.8677C81.4411 71.6709 80.0331 69.9428 77.3641 68.7608L74.1441 67.5014C73.3605 67.1876 72.9647 66.6373 72.9688 65.9322C72.9688 65.4594 73.1279 65.0681 73.5197 64.7543C73.834 64.4405 74.3074 64.2856 74.7767 64.2856H78.9394C79.4128 64.2938 79.8046 64.1348 80.1189 63.821C80.4331 63.5846 80.5923 63.1933 80.5923 62.7246C80.5923 62.2518 80.4372 61.8605 80.1229 61.5467C79.8087 61.2329 79.4169 61.0739 78.9435 61.0739H76.9805V61.0698Z" fill="white"/>
<path d="M70.0088 44.3753H77.8323C78.6485 44.3753 79.3137 43.711 79.3137 42.8877C79.3137 42.0644 78.6485 41.4 77.8323 41.4H70.0088C69.1926 41.4 68.5273 42.0685 68.5273 42.8877C68.5273 43.7069 69.1926 44.3753 70.0088 44.3753Z" fill="white"/>
<path d="M82.1748 44.3753C82.8931 44.3753 83.6562 43.8536 83.6562 42.8836C83.6562 41.9135 82.8931 41.3918 82.1748 41.3918C81.4565 41.3918 80.6934 41.9135 80.6934 42.8836C80.6934 43.8536 81.4565 44.3753 82.1748 44.3753Z" fill="white"/>
<path d="M121.003 102.471C120.934 101.42 120.481 100.417 119.722 99.6509L117.097 97.0261C116.277 96.2028 115.163 95.73 114.037 95.73C113.233 95.73 112.461 95.9745 111.808 96.4229L109.592 94.1934C110.241 92.3186 110.535 90.8513 110.535 87.8026C110.535 82.2066 108.266 75.3063 104.585 69.7592C101.336 64.8479 97.651 59.2845 97.651 56.3173C97.651 54.793 96.7818 52.963 94.8922 52.3027V41.9665C94.8922 38.5918 92.162 35.8447 88.8073 35.8447H62.6882C59.3335 35.8447 56.6033 38.5918 56.6033 41.9665V56.2766L54.9219 55.4084C54.1954 55.0334 53.3833 54.8378 52.5671 54.8378C50.6204 54.8378 48.8573 55.922 47.9677 57.6623C46.6658 60.2097 47.6738 63.3439 50.2082 64.6482L53.0323 66.1073C52.4283 66.5719 51.9345 67.1629 51.5835 67.8558C50.4163 70.1423 51.1061 72.8975 53.0935 74.3852C52.461 74.858 51.9468 75.4653 51.5835 76.1785C50.4163 78.465 51.1061 81.2243 53.0935 82.7079C52.461 83.1807 51.9468 83.788 51.5835 84.5012C50.2817 87.0486 51.2897 90.1829 53.8241 91.4912L56.6033 92.9218V97.9961C56.6033 101.371 59.3335 104.118 62.6882 104.118H80.9838L84.0161 105.699L84.363 105.85C84.3997 105.862 88.2645 107.163 91.4926 107.163C91.8844 107.163 92.2558 107.146 92.619 107.105L96.9532 111.467C96.5002 112.176 96.2798 113.007 96.3329 113.863C96.3982 114.915 96.8552 115.917 97.6143 116.684L100.218 119.296C101.038 120.119 102.152 120.592 103.279 120.592C104.344 120.592 105.336 120.185 106.07 119.443L119.869 105.536C120.656 104.742 121.068 103.629 120.995 102.479M56.1748 67.9985C56.4115 67.9985 56.6727 68.0555 56.9624 68.1696L57.0685 68.2063C57.1053 68.2186 57.1461 68.2308 57.1747 68.243L61.2721 70.3543C62.3536 70.9126 62.7821 72.2495 62.227 73.3377C61.6883 74.3933 60.362 74.858 59.2601 74.2914L55.1749 72.1843C54.0934 71.6259 53.6649 70.289 54.2199 69.2008C54.5995 68.459 55.3504 67.9985 56.1748 67.9985ZM56.1748 76.3212C56.4115 76.3212 56.6727 76.3782 56.9624 76.4924C56.9992 76.5046 57.04 76.5209 57.0767 76.529C57.1053 76.5372 57.1298 76.5453 57.1706 76.5657L61.268 78.677C62.3495 79.2354 62.778 80.5722 62.223 81.6604C61.6843 82.7161 60.3538 83.1807 59.256 82.6142L55.1708 80.507C54.0893 79.9486 53.6608 78.6118 54.2159 77.5235C54.5954 76.7817 55.3463 76.3212 56.1707 76.3212M56.1666 84.648C56.4033 84.648 56.6645 84.705 56.9543 84.8192L57.0604 84.8558C57.0971 84.8681 57.1379 84.8803 57.1665 84.8925L61.2639 87.0038C62.3454 87.5621 62.7739 88.899 62.2189 89.9872C61.6802 91.0429 60.3497 91.5075 59.2519 90.941L58.6806 90.6475L55.1667 88.8338C54.0853 88.2754 53.6567 86.9386 54.2118 85.8503C54.5913 85.1085 55.3422 84.648 56.1666 84.648ZM59.5621 94.1119C61.7781 94.442 63.8717 93.2927 64.8635 91.3404C66.0306 89.0539 65.3409 86.2987 63.3534 84.811C63.986 84.3382 64.5002 83.7309 64.8635 83.0177C66.0306 80.7312 65.3409 77.9759 63.3534 76.4883C63.986 76.0155 64.5002 75.4082 64.8635 74.6949C65.3695 73.7005 65.5368 72.5756 65.3369 71.4384C65.0553 69.8122 64.0676 68.4509 62.627 67.705L59.5621 66.1195V41.9584C59.5621 40.2262 60.9619 38.816 62.6801 38.816H88.7991C90.5173 38.816 91.9171 40.2262 91.9171 41.9584V52.3149C89.0644 53.3175 87.3177 56.998 87.3177 60.0181C87.3177 63.5559 88.5583 67.7172 90.4805 70.6192C91.1947 71.6952 91.6396 72.6163 91.9171 73.5945V80.1809C91.5906 82.0762 91.2804 82.9484 91.007 83.7187C90.4316 85.3205 90.0765 86.5106 90.0765 90.5741C90.0765 90.7249 90.0806 90.8635 90.0887 91.0184C90.1377 92.4042 90.3948 95.9215 91.6926 99.1006C91.6396 99.2433 91.5743 99.3737 91.5049 99.5041C90.9458 100.503 89.9092 101.122 88.795 101.122H62.676C60.9578 101.126 59.558 99.7161 59.558 97.9839V94.1078L59.5621 94.1119ZM93.823 101.424C93.9985 101.167 94.1535 100.886 94.3045 100.568C94.3372 100.495 94.3739 100.425 94.4106 100.348C94.6106 99.9484 94.8596 99.4512 94.782 98.8806C94.6881 98.1877 94.4474 97.4214 94.1617 96.5329C93.6597 94.9515 93.0312 92.987 93.0312 90.5741C93.0312 86.8163 93.3455 85.94 93.7822 84.7295C94.0964 83.8614 94.4841 82.7813 94.8636 80.4785C95.3575 77.4909 95.3534 75.1637 94.8555 73.1502C94.5045 71.7278 93.9128 70.4358 92.9374 68.9603C91.3172 66.5149 90.2683 63.0016 90.2683 60.0059C90.2683 57.752 91.5335 55.7467 92.7088 55.1842C93.2516 54.9275 93.6801 54.9682 94.0433 55.1679C94.6351 55.4859 94.6637 56.301 94.6678 56.301C94.6678 60.1811 98.2877 65.6427 102.124 71.4262C105.421 76.4068 107.552 82.8261 107.552 87.7863C107.552 90.3418 107.282 91.5523 107.082 92.4368C106.923 93.1541 106.793 93.7247 106.903 94.5847C107.05 95.7667 108.768 97.6048 109.637 98.4689L98.9447 109.245L93.5577 103.829L92.7374 104.053C92.2926 104.163 92.1579 104.167 91.4722 104.167C90.9009 104.167 90.2969 104.118 89.7011 104.036C91.3621 103.784 92.8598 102.846 93.823 101.42M117.799 103.372L103.952 117.327C103.544 117.735 102.781 117.658 102.299 117.181L99.6957 114.564C99.2549 114.12 99.1447 113.46 99.4427 113.019C99.4712 112.975 99.5039 112.934 99.5447 112.889L112.147 100.185L113.359 98.9702L113.42 98.9213C113.592 98.7827 113.804 98.7053 114.033 98.7053C114.375 98.7053 114.73 98.8602 115 99.1292L117.604 101.746C118.081 102.227 118.167 102.936 117.804 103.368M51.5509 61.9949C50.4694 61.4365 50.0409 60.0996 50.5959 59.0114C50.9754 58.2696 51.7264 57.809 52.5508 57.809C52.8976 57.809 53.2364 57.8906 53.5506 58.0536L56.591 59.6228V64.5993L53.6078 63.0586H53.6159L51.555 61.9949H51.5509Z" fill="white"/>
</svg>
