<svg width="152" height="153" viewBox="0 0 152 153" fill="none" xmlns="http://www.w3.org/2000/svg">
<ellipse cx="76" cy="76.5" rx="76" ry="76.5" fill="#FEC311"/>
<path d="M71.1433 102.675L73.3883 104.31L71.1433 105.95C70.8103 106.188 70.5831 106.564 70.5204 106.967C70.4538 107.374 70.5557 107.796 70.7986 108.125C71.0454 108.466 71.4098 108.685 71.8211 108.747C72.2325 108.81 72.6478 108.708 72.9769 108.462L74.4735 107.374V109.26C74.4696 109.675 74.638 110.078 74.928 110.363C75.2179 110.653 75.6136 110.817 76.0171 110.817C76.4285 110.813 76.8438 110.653 77.1337 110.359C77.4236 110.07 77.5881 109.667 77.5842 109.26V107.37L79.0769 108.458C79.4099 108.708 79.8213 108.81 80.2366 108.747C80.6441 108.685 81.0202 108.458 81.2591 108.129C81.502 107.8 81.6078 107.378 81.5412 106.971C81.4786 106.556 81.2552 106.192 80.9144 105.954L78.6695 104.318L80.9144 102.679C81.2552 102.432 81.4786 102.072 81.5452 101.657C81.6078 101.251 81.5021 100.828 81.2631 100.499C81.0202 100.171 80.648 99.9437 80.2405 99.8811C79.8331 99.8185 79.4139 99.9241 79.0848 100.167L77.5881 101.254V99.3568C77.5881 98.5077 76.8908 97.8113 76.0367 97.8074C75.6253 97.8074 75.2257 97.9717 74.9358 98.2612C74.638 98.5547 74.4774 98.946 74.4774 99.3607V101.258L73.0944 100.253L72.9847 100.171C72.6595 99.9241 72.2325 99.8185 71.825 99.8811C71.4098 99.9437 71.0454 100.163 70.7986 100.499C70.5518 100.836 70.4538 101.251 70.5165 101.661C70.5792 102.068 70.8064 102.44 71.1433 102.679" fill="white"/>
<path d="M56.8241 102.675L59.073 104.314L56.828 105.946C56.4911 106.184 56.26 106.56 56.2012 106.963C56.1346 107.374 56.2404 107.796 56.4833 108.121C56.7223 108.454 57.0945 108.681 57.5019 108.743C57.9133 108.81 58.3364 108.7 58.6616 108.458L60.1582 107.37V109.549H60.1856C60.2444 109.855 60.3933 110.14 60.6166 110.359C60.9065 110.649 61.3022 110.813 61.7057 110.813C62.1171 110.813 62.5246 110.649 62.8223 110.355C63.1083 110.066 63.2729 109.667 63.2729 109.26V107.366C63.2729 107.366 64.554 108.313 65.2279 108.606C65.7607 108.837 66.6579 108.516 66.9478 108.125C67.1907 107.793 67.2925 107.37 67.2299 106.967C67.1672 106.56 66.94 106.188 66.6069 105.95L64.362 104.314L66.603 102.679C66.936 102.44 67.1672 102.068 67.2338 101.657C67.2965 101.243 67.1946 100.832 66.9478 100.495C66.4385 99.8107 65.4668 99.662 64.7773 100.167L63.2729 101.262V99.6542H63.2768V99.3607C63.2729 98.5077 62.5755 97.8113 61.7253 97.8074C61.314 97.8074 60.9143 97.9717 60.6244 98.2612C60.3267 98.5547 60.166 98.946 60.166 99.3607V101.258L58.6694 100.167C58.3364 99.9202 57.9211 99.8146 57.5097 99.8811C57.1023 99.9437 56.7301 100.171 56.4911 100.495C56.2482 100.824 56.1424 101.247 56.2051 101.657C56.2717 102.068 56.495 102.432 56.832 102.679" fill="white"/>
<path d="M98.7597 91.199H53.3012C50.6685 91.199 48.5215 93.3392 48.5215 95.9686V112.644C48.5215 115.274 50.6645 117.418 53.3012 117.418H98.7597C101.396 117.418 103.539 115.278 103.539 112.644V95.9686C103.539 93.3392 101.396 91.199 98.7597 91.199ZM51.6362 95.9725C51.6362 95.0217 52.3531 94.3096 53.3012 94.3096H53.5951H98.7636C99.7157 94.3096 100.429 95.0256 100.429 95.9764V112.652C100.429 113.603 99.7118 114.315 98.7636 114.315H53.3052C52.3531 114.315 51.6401 113.603 51.6401 112.652V95.9764L51.6362 95.9725Z" fill="white"/>
<path d="M76.0294 88.9176C90.6468 88.9176 102.534 77.0621 102.534 62.4912C102.534 47.9203 90.6468 36.0609 76.0294 36.0609C61.412 36.0609 49.5332 47.9164 49.5332 62.4873C49.5332 77.0582 61.4199 88.9137 76.0294 88.9137M76.0294 48.7381C79.9747 48.7381 83.1834 51.9191 83.1834 55.8279C83.1834 59.7367 79.9747 62.9255 76.0294 62.9255C72.0842 62.9255 68.8833 59.7406 68.8833 55.8279C68.8833 51.9152 72.0881 48.7381 76.0294 48.7381ZM76.0294 66.0322H76.3194C84.1119 66.1652 90.7605 71.6978 92.2453 79.308C87.8691 83.5063 82.1177 85.8148 76.0294 85.8148C69.9411 85.8148 64.1937 83.5063 59.8214 79.3119C61.3219 71.6078 68.1154 66.0322 76.0294 66.0322ZM86.2981 55.8279C86.2981 50.2053 81.6946 45.6314 76.0334 45.6314C70.3721 45.6314 65.7765 50.2053 65.7765 55.8279C65.7765 59.0089 67.2731 61.9943 69.804 63.9272C63.8411 65.9031 59.2376 70.5474 57.3336 76.5143C54.2659 72.4529 52.6479 67.6207 52.6479 62.4912C52.6479 49.6341 63.1398 39.1754 76.0294 39.1715C88.9269 39.1715 99.4228 49.6341 99.4228 62.4912C99.4228 67.6168 97.8047 72.4529 94.7331 76.5143C92.8251 70.5514 88.2217 65.907 82.2588 63.9272C84.7936 61.9943 86.2941 59.0089 86.2941 55.8279" fill="white"/>
<path d="M85.4632 102.675L87.7081 104.314L85.4632 105.95C85.1263 106.192 84.9029 106.552 84.8363 106.971C84.7737 107.378 84.8795 107.8 85.1224 108.129C85.6278 108.818 86.6033 108.966 87.2928 108.462L88.7973 107.366V109.26C88.7973 109.667 88.9618 110.066 89.2478 110.359C89.5416 110.653 89.9491 110.805 90.3605 110.817C90.764 110.817 91.1636 110.653 91.4496 110.363C91.7435 110.074 91.9119 109.671 91.908 109.26V107.37L93.4046 108.458L93.483 108.512C93.7964 108.716 94.1843 108.802 94.5604 108.743C94.9717 108.681 95.344 108.454 95.579 108.125C95.8258 107.796 95.9316 107.374 95.865 106.967C95.8023 106.56 95.5751 106.188 95.2382 105.95L92.9854 104.314L95.2382 102.675C95.579 102.428 95.8023 102.068 95.865 101.653C95.9277 101.247 95.8219 100.824 95.579 100.495C95.34 100.163 94.9678 99.9397 94.5604 99.8771C94.149 99.8145 93.7337 99.9162 93.4046 100.163L91.908 101.25V98.6524L91.7905 98.7659C91.7121 98.5781 91.5985 98.402 91.4457 98.2572C91.1558 97.9677 90.7562 97.8033 90.3448 97.8033C89.4946 97.8073 88.7973 98.5037 88.7934 99.3567V101.258L87.2889 100.163C86.5994 99.658 85.6278 99.8066 85.1184 100.495C84.8716 100.832 84.7697 101.254 84.8363 101.657C84.9029 102.068 85.1224 102.432 85.4632 102.679" fill="white"/>
</svg>
