<svg width="42" height="41" viewBox="0 0 42 41" fill="none" xmlns="http://www.w3.org/2000/svg">
<path d="M39.7882 40.9576H2.08573C1.36912 40.9576 0.710742 40.5813 0.327806 39.954C-0.079764 39.2843 -0.108876 38.4689 0.249427 37.77L19.1006 1.14244C19.4634 0.436817 20.1666 0 20.9369 0C21.7073 0 22.4105 0.439057 22.7732 1.14244L41.6245 37.77C41.985 38.4689 41.9559 39.2843 41.5461 39.954C41.1631 40.5835 40.5048 40.9576 39.7882 40.9576Z" fill="#FEC311"/>
<path d="M20.8883 28.302C20.8771 28.302 20.8637 28.302 20.8525 28.302C19.8403 28.2819 19.0184 27.4777 18.9378 26.4316L18.1899 16.5931C18.1451 16.0152 18.3421 15.444 18.7295 15.0251C19.1013 14.6241 19.6007 14.4023 20.1381 14.4023H21.7281C22.2611 14.4023 22.7761 14.6308 23.1434 15.0318C23.5308 15.4552 23.7256 16.0309 23.6764 16.6133L22.8344 26.4517C22.7448 27.4956 21.8916 28.302 20.8861 28.302H20.8883Z" fill="#00213A"/>
<path d="M20.9372 35.7351C19.4009 35.7351 18.1514 34.4247 18.1514 32.8163C18.1514 31.2079 19.4009 29.8975 20.9372 29.8975C22.4734 29.8975 23.723 31.2079 23.723 32.8163C23.723 34.4247 22.4734 35.7351 20.9372 35.7351Z" fill="#00213A"/>
</svg>
