<svg width="127" height="187" viewBox="0 0 127 187" fill="none" xmlns="http://www.w3.org/2000/svg">
<path d="M41.5409 77.9479H60.8099C66.9826 77.9479 72.0709 76.9069 76.0749 74.825C80.0788 72.6598 83.0401 69.6618 84.9586 65.831C86.9606 61.9169 87.9616 57.3783 87.9616 52.2151C87.9616 47.5515 87.044 43.4293 85.2089 39.8484C83.4571 36.1841 80.7461 33.3527 77.0759 31.354C73.4056 29.2721 68.776 28.2311 63.1872 28.2311C58.7662 28.2311 54.6788 29.1055 50.9251 30.8544C47.1714 32.6032 44.1685 35.0599 41.9163 38.2244C39.664 41.389 38.5379 45.2198 38.5379 49.7168H2.37734C2.37734 39.7234 5.04663 31.0209 10.3852 23.6092C15.8072 16.1975 23.0644 10.4097 32.1567 6.24583C41.2489 2.08194 51.2588 0 62.1862 0C74.5317 0 85.334 1.99866 94.5931 5.99599C103.852 9.91004 111.068 15.6978 116.239 23.3594C121.411 31.0209 123.997 40.5146 123.997 51.8404C123.997 57.5865 122.662 63.1661 119.993 68.5792C117.324 73.9089 113.487 78.739 108.482 83.0695C103.56 87.3166 97.5544 90.731 90.464 93.3126C83.3737 95.811 75.4076 97.0601 66.5655 97.0601H41.5409V77.9479ZM41.5409 105.305V86.6921H66.5655C76.492 86.6921 85.2089 87.8163 92.7163 90.0648C100.224 92.3133 106.522 95.5611 111.61 99.8083C116.698 103.972 120.535 108.927 123.121 114.673C125.707 120.336 127 126.624 127 133.536C127 142.03 125.373 149.608 122.12 156.271C118.867 162.849 114.279 168.429 108.357 173.009C102.518 177.59 95.6775 181.087 87.8365 183.502C79.9954 185.834 71.4453 187 62.1862 187C54.512 187 46.9629 185.959 39.5389 183.877C32.1984 181.712 25.5251 178.506 19.5192 174.259C13.5967 169.928 8.84204 164.515 5.25517 158.019C1.75172 151.44 0 143.654 0 134.66H36.1606C36.1606 139.324 37.3284 143.487 39.664 147.152C41.9997 150.816 45.2112 153.689 49.2985 155.771C53.4693 157.853 58.0989 158.894 63.1872 158.894C68.9429 158.894 73.8644 157.853 77.9517 155.771C82.1225 153.606 85.2923 150.608 87.4611 146.777C89.7133 142.863 90.8394 138.324 90.8394 133.161C90.8394 126.499 89.6299 121.169 87.2108 117.172C84.7918 113.091 81.33 110.093 76.8256 108.178C72.3212 106.262 66.9826 105.305 60.8099 105.305H41.5409Z" fill="#FEC311"/>
</svg>
