<svg width="128" height="184" viewBox="0 0 128 184" fill="none" xmlns="http://www.w3.org/2000/svg">
<path d="M128 155.97V184H3.62146V160.081L62.439 97.17C68.3499 90.6089 73.012 84.8368 76.4254 79.8538C79.8387 74.7876 82.2946 70.2613 83.7932 66.2749C85.375 62.2054 86.1659 58.3435 86.1659 54.6892C86.1659 49.2079 85.2501 44.5155 83.4185 40.6121C81.587 36.6256 78.8813 33.5527 75.3015 31.3934C71.8049 29.234 67.4758 28.1544 62.3141 28.1544C56.8195 28.1544 52.0741 29.4832 48.078 32.1408C44.1652 34.7985 41.1681 38.4942 39.0868 43.2282C37.0888 47.9621 36.0898 53.3189 36.0898 59.2986H0C0 48.5019 2.58081 38.6188 7.74244 29.6493C12.9041 20.5967 20.1886 13.4128 29.5961 8.0975C39.0036 2.69916 50.1594 0 63.0634 0C75.801 0 86.5405 2.07628 95.282 6.22884C104.107 10.2984 110.767 16.195 115.262 23.9188C119.841 31.5595 122.131 40.6951 122.131 51.3257C122.131 57.3054 121.173 63.1605 119.259 68.891C117.344 74.5385 114.596 80.186 111.017 85.8335C107.52 91.3979 103.274 97.0454 98.279 102.776C93.2839 108.506 87.7476 114.445 81.6702 120.59L50.0761 155.97H128Z" fill="#FEC311"/>
</svg>
