<svg width="155" height="156" viewBox="0 0 155 156" fill="none" xmlns="http://www.w3.org/2000/svg">
<ellipse cx="77.5" cy="78" rx="77.5" ry="78" fill="#00BCFF"/>
<path d="M109.112 109.554C109.112 109.554 109.141 109.554 109.154 109.554C109.702 109.541 110.218 109.303 110.582 108.893L121.101 96.9865C121.817 96.1749 121.737 94.9408 120.929 94.2255C120.116 93.5101 118.88 93.5854 118.164 94.397L109.053 104.709L102.895 98.3044C102.145 97.5262 100.906 97.5011 100.126 98.25C99.3472 98.9988 99.3221 100.237 100.072 101.015L107.704 108.951C108.073 109.336 108.584 109.554 109.116 109.554" fill="white"/>
<path d="M82.1054 60.0256C83.2029 60.1678 84.2376 60.3059 84.2376 60.9836C84.2376 61.6614 83.5338 62.0671 82.851 62.0671H79.1019C78.6579 62.0671 78.2432 62.2638 77.9709 62.6026C77.6944 62.9457 77.5897 63.4017 77.6903 63.8535C77.8327 64.4977 78.4485 64.9663 79.1522 64.9663H80.8613V65.3637C80.8613 65.8072 81.0582 66.2172 81.3975 66.4933C81.6572 66.7025 81.9798 66.8112 82.3149 66.8112C82.4238 66.8112 82.5369 66.7987 82.65 66.7736C83.2951 66.6313 83.7642 66.0164 83.7642 65.3135V64.8868C85.7414 64.4977 87.1615 62.8746 87.1615 60.9836C87.1615 57.7623 84.6942 57.436 82.5118 57.1516C81.4687 57.0135 80.3879 56.8671 80.3879 56.1977C80.3879 55.5284 81.0917 55.11 81.7745 55.11H84.8952C85.6032 55.11 86.219 54.6415 86.3572 53.9972C86.4535 53.5496 86.353 53.0936 86.0766 52.7464C85.8001 52.4033 85.3895 52.2109 84.9455 52.2109H83.7475V51.8134C83.7475 51.37 83.5506 50.9558 83.2071 50.6839C82.8636 50.4078 82.407 50.3032 81.9588 50.4036C81.3137 50.5458 80.8446 51.1608 80.8446 51.8678V52.2945C78.8716 52.6836 77.4473 54.3068 77.4473 56.1977C77.4473 59.4148 79.9229 59.7411 82.1096 60.0298" fill="white"/>
<path d="M88.7909 85.6958H64.1849C63.477 85.6958 62.8612 86.1644 62.723 86.8086C62.6225 87.2563 62.7271 87.7122 63.0036 88.0595C63.2801 88.4025 63.6906 88.5949 64.1347 88.5949H88.8411C89.2852 88.5949 89.6999 88.3983 89.9721 88.0595C90.2486 87.7164 90.3533 87.2604 90.2528 86.8086C90.1104 86.1644 89.4946 85.6958 88.7909 85.6958Z" fill="white"/>
<path d="M83.4164 92.5522H64.1849C63.477 92.5522 62.8612 93.0208 62.723 93.665C62.6225 94.1127 62.7271 94.5687 63.0036 94.9159C63.2801 95.259 63.6906 95.4514 64.1347 95.4514H83.4667C83.9107 95.4514 84.3254 95.2548 84.5977 94.9159C84.8742 94.5729 84.9789 94.1169 84.8784 93.665C84.736 93.0208 84.1201 92.5522 83.4164 92.5522Z" fill="white"/>
<path d="M64.1336 81.738H100.498C100.942 81.738 101.357 81.5414 101.629 81.2025C101.905 80.8595 102.01 80.4035 101.91 79.9517C101.767 79.3074 101.151 78.8389 100.448 78.8389H64.1797C63.4717 78.8389 62.856 79.3074 62.7177 79.9517C62.6172 80.3993 62.7177 80.8553 62.9984 81.2025C63.2748 81.5456 63.6854 81.738 64.1294 81.738" fill="white"/>
<path d="M81.3973 73.0824C81.7073 73.0991 82.013 73.1117 82.323 73.1117C86.047 73.1117 89.5532 71.7269 92.2802 69.1666C95.2334 66.393 96.8587 62.6321 96.8587 58.5824C96.8587 50.5711 90.3323 44.0532 82.3105 44.0532C78.31 44.0532 74.4394 45.7308 71.6956 48.6509C68.9142 51.6128 67.5276 55.4825 67.7915 59.5447C68.2607 66.8197 74.1085 72.6431 81.3973 73.0908M73.6393 50.8221C75.8092 48.4166 78.7792 47.0486 82.0005 46.9649C82.1052 46.9649 82.21 46.9649 82.3147 46.9649C85.4229 46.9649 88.3342 48.1698 90.5418 50.3745C92.7451 52.5624 93.9558 55.4825 93.9558 58.5866C93.9558 61.6908 92.741 64.6192 90.5418 66.8281C88.2588 69.1081 85.226 70.3129 81.9963 70.2335C78.7708 70.1498 75.8008 68.7776 73.6351 66.3763C69.7017 62.0171 69.7017 55.1897 73.6351 50.8263" fill="white"/>
<path d="M109.37 118.598C109.763 118.624 110.153 118.636 110.543 118.636C115.272 118.636 119.721 116.879 123.185 113.624C126.934 110.102 128.999 105.328 128.999 100.187C128.999 90.0169 120.713 81.7378 110.526 81.7378C105.445 81.7378 100.535 83.863 97.0499 87.5737C93.5187 91.3347 91.7593 96.2461 92.0902 101.404C92.6851 110.641 100.112 118.034 109.361 118.598M99.5256 90.3432C102.278 87.2892 106.052 85.5489 110.145 85.4444C110.279 85.4444 110.413 85.4402 110.543 85.4402C114.489 85.4402 118.183 86.9671 120.99 89.7701C123.784 92.5521 125.325 96.2545 125.325 100.195C125.325 104.136 123.788 107.855 120.99 110.658C118.091 113.553 114.241 115.084 110.145 114.98C106.052 114.871 102.282 113.135 99.5256 110.081C94.5324 104.546 94.5324 95.8779 99.5256 90.3432Z" fill="white"/>
<path d="M95.7808 109.249H61.4481C57.9462 109.249 55.0977 106.404 55.0977 102.906V42.3421C55.0977 38.8448 57.9462 36 61.4481 36H95.3075C98.0429 36 100.414 37.7905 101.201 40.4554C101.411 41.1666 101.704 41.8359 102.064 42.4467C103.279 44.5008 105.897 45.3919 108 46.1073C110.069 46.8143 112.21 47.5422 112.21 49.6298V85.2103H108.859V50.023C108.444 49.7971 107.577 49.5043 106.915 49.2784C104.427 48.4291 101.021 47.2703 99.1781 44.1536C98.6754 43.3085 98.2774 42.384 97.9884 41.4051C97.624 40.1751 96.5474 39.3468 95.3075 39.3468H61.4481C59.7935 39.3468 58.4488 40.6897 58.4488 42.3421V102.906C58.4488 104.559 59.7935 105.902 61.4481 105.902H95.7808V109.249Z" fill="white"/>
<path d="M97.2477 117.025H52.3798C48.8611 117.025 46 114.168 46 110.654V49.9139C46 46.3998 48.8611 43.5425 52.3798 43.5425H56.774V46.8893H52.3798C50.7084 46.8893 49.3512 48.2447 49.3512 49.9139V110.654C49.3512 112.323 50.7084 113.679 52.3798 113.679H97.2477C98.0771 113.679 98.8479 113.352 99.426 112.754L101.835 115.08C100.62 116.335 98.9945 117.025 97.2477 117.025Z" fill="white"/>
</svg>
