<svg width="152" height="153" viewBox="0 0 152 153" fill="none" xmlns="http://www.w3.org/2000/svg">
<ellipse cx="76" cy="76.5" rx="76" ry="76.5" fill="#00BCFF"/>
<path d="M99.3598 91.271H53.7913C51.1522 91.271 49 93.4164 49 96.0521V112.768C49 115.404 51.1482 117.553 53.7913 117.553H99.3598C102.003 117.553 104.151 115.408 104.151 112.768V96.0521C104.151 93.4164 102.003 91.271 99.3598 91.271ZM52.1183 96.056C52.1183 95.103 52.837 94.3891 53.7874 94.3891H54.0819H99.3598C100.314 94.3891 101.029 95.1069 101.029 96.06V112.776C101.029 113.729 100.31 114.443 99.3598 114.443H53.7913C52.837 114.443 52.1222 113.729 52.1222 112.776V96.06L52.1183 96.056Z" fill="white"/>
<path d="M76.5769 87.3684C90.3348 87.3684 101.488 76.2301 101.488 62.4901C101.488 48.7502 90.3348 37.6118 76.5769 37.6118C62.819 37.6118 51.666 48.7502 51.666 62.4901C51.666 76.2301 62.819 87.3684 76.5769 87.3684Z" fill="#00BCFF"/>
<path d="M76.574 88.9807C91.2268 88.9807 103.142 77.0965 103.142 62.4903C103.142 47.8842 91.2229 36 76.574 36C61.9252 36 50.0137 47.8842 50.0137 62.4903C50.0137 77.0965 61.9291 88.9807 76.574 88.9807ZM76.574 48.7078C80.5288 48.7078 83.7453 51.8965 83.7453 55.8148C83.7453 59.733 80.5288 62.9296 76.574 62.9296C72.6192 62.9296 69.4106 59.737 69.4106 55.8148C69.4106 51.8926 72.6232 48.7078 76.574 48.7078ZM76.574 66.0438H76.8646C84.6761 66.1772 91.3407 71.7231 92.8292 79.3517C88.4424 83.5602 82.6771 85.8743 76.574 85.8743C70.471 85.8743 64.7096 83.5602 60.3268 79.3556C61.8309 71.6329 68.6409 66.0438 76.574 66.0438ZM86.8636 55.8148C86.8636 50.1786 82.249 45.5936 76.574 45.5936C70.8991 45.5936 66.2924 50.1786 66.2924 55.8148C66.2924 59.0035 67.7926 61.9961 70.3296 63.9337C64.3523 65.9144 59.7377 70.57 57.829 76.5513C54.7539 72.4801 53.132 67.6362 53.132 62.4942C53.132 49.606 63.6493 39.122 76.5701 39.1181C89.4988 39.1181 100.02 49.606 100.02 62.4942C100.02 67.6323 98.3981 72.4801 95.319 76.5513C93.4064 70.5739 88.7919 65.9183 82.8145 63.9337C85.3555 61.9961 86.8596 59.0035 86.8596 55.8148" fill="white"/>
<path d="M74.9751 113.31C74.9751 113.31 75.0065 113.31 75.0222 113.31C75.631 113.298 76.2083 113.031 76.6089 112.572L88.3005 99.3348C89.0977 98.4327 89.0113 97.06 88.108 96.2638C87.2047 95.4676 85.8302 95.5539 85.0329 96.456L74.9044 107.924L68.0552 100.806C67.2226 99.9389 65.8441 99.9114 64.9762 100.743C64.1083 101.574 64.0808 102.951 64.9134 103.818L73.4003 112.643C73.8126 113.07 74.3782 113.31 74.9712 113.31" fill="white"/>
</svg>
