<svg width="152" height="153" viewBox="0 0 152 153" fill="none" xmlns="http://www.w3.org/2000/svg">
<ellipse cx="76" cy="76.5" rx="76" ry="76.5" fill="#00BCFF"/>
<path d="M77.0849 89.0384V87.9619C77.0849 87.5027 76.9342 87.1169 76.6251 86.8082C76.3161 86.4996 75.9336 86.3452 75.47 86.3452C75.0064 86.3452 74.6239 86.4957 74.3148 86.8044C74.0057 87.1092 73.8512 87.495 73.8512 87.958V89.1117C72.6188 89.2622 71.6954 89.8023 70.9227 90.6435C70.1539 91.4113 69.7637 92.4878 69.7637 93.6376C69.7637 95.7134 70.9111 97.249 73.1442 98.1017L76.5286 99.4136C77.5292 99.7994 78.0662 100.417 78.0662 101.335C78.0662 101.949 77.8344 102.412 77.4481 102.794C76.9844 103.176 76.4474 103.33 75.8331 103.33L71.6761 103.322C71.2125 103.322 70.83 103.476 70.5209 103.781C70.2118 104.09 70.0573 104.472 70.0573 104.935C70.0573 105.317 70.2118 105.703 70.517 106.011C70.8261 106.32 71.2086 106.474 71.6722 106.474H73.828V107.551C73.828 108.55 74.365 109.09 75.4429 109.09C75.9027 109.09 76.289 109.013 76.5981 108.708C76.9072 108.404 77.0617 108.018 77.0617 107.555V106.401C78.3714 106.251 79.3721 105.714 80.222 104.792C80.9947 103.87 81.4544 102.797 81.4583 101.567C81.4583 99.4136 80.0791 97.7236 77.4635 96.5661L74.3109 95.3314C73.5421 95.0228 73.1558 94.4826 73.1596 93.7919C73.1596 93.3289 73.3142 92.9469 73.7005 92.6383C74.0096 92.3296 74.4693 92.1791 74.933 92.1791H79.0128C79.4764 92.1868 79.8588 92.0325 80.1679 91.7238C80.477 91.4923 80.6315 91.1103 80.6315 90.6473C80.6315 90.1843 80.4809 89.8023 80.1718 89.4937C79.8627 89.185 79.4802 89.0307 79.0166 89.0307H77.0926L77.0849 89.0384Z" fill="white"/>
<path d="M55.5454 66.5207C54.6916 66.5207 54 65.83 54 64.9773V39.9672C54 36.2092 57.0598 33.1533 60.8228 33.1533H90.3975C94.1605 33.1533 97.2203 36.2092 97.2203 39.9672V64.549C97.2203 65.4018 96.5288 66.0924 95.675 66.0924C94.8211 66.0924 94.1296 65.4018 94.1296 64.549V39.9672C94.1296 37.9107 92.4567 36.24 90.3975 36.24H60.8228C58.7675 36.24 57.0908 37.9107 57.0908 39.9672V64.9773C57.0908 65.83 56.3992 66.5207 55.5454 66.5207Z" fill="white"/>
<path d="M69.071 42.6178H78.0419C78.9807 42.6178 79.7418 41.8539 79.7418 40.9124C79.7418 39.971 78.9769 39.207 78.0419 39.207H69.071C68.1322 39.207 67.3711 39.971 67.3711 40.9124C67.3711 41.8539 68.1322 42.6178 69.071 42.6178Z" fill="white"/>
<path d="M83.0261 42.6212C83.849 42.6212 84.726 42.0231 84.726 40.9119C84.726 39.8007 83.849 39.2026 83.0261 39.2026C82.2032 39.2026 81.3262 39.8007 81.3262 40.9119C81.3262 42.0231 82.2032 42.6212 83.0261 42.6212Z" fill="white"/>
<path d="M75.6091 77.3703C75.2228 77.3703 74.8365 77.2275 74.5351 76.9381L63.1766 65.9919C62.7246 65.5559 62.5816 64.8884 62.8173 64.3019C63.053 63.7193 63.6209 63.3373 64.2506 63.3373H70.4978V57.5922C70.4978 56.7395 71.1894 56.0488 72.0432 56.0488C72.897 56.0488 73.5886 56.7395 73.5886 57.5922V64.8807C73.5886 65.7334 72.897 66.424 72.0432 66.424H68.0793L75.6091 73.6817L83.1622 66.3623H78.8274C77.9736 66.3623 77.282 65.6716 77.282 64.8189V57.596C77.282 56.7433 77.9736 56.0527 78.8274 56.0527C79.6812 56.0527 80.3728 56.7433 80.3728 57.596V63.2756H86.9715C87.6013 63.2756 88.1692 63.6576 88.4049 64.2402C88.6405 64.8228 88.5015 65.4903 88.0494 65.9263L76.6909 76.9381C76.3896 77.2275 76.0032 77.3741 75.613 77.3741" fill="white"/>
<path d="M75.609 116.062C65.479 116.062 57.2422 107.832 57.2422 97.7188C57.2422 87.6059 65.4829 79.376 75.609 79.376C85.7351 79.376 93.9758 87.6059 93.9758 97.7188C93.9758 107.832 85.7351 116.062 75.609 116.062ZM75.609 82.4627C67.1867 82.4627 60.3329 89.3075 60.3329 97.7188C60.3329 106.13 67.1867 112.975 75.609 112.975C84.0313 112.975 90.885 106.13 90.885 97.7188C90.885 89.3075 84.0313 82.4627 75.609 82.4627Z" fill="white"/>
</svg>
