<svg width="92" height="92" viewBox="0 0 92 92" fill="none" xmlns="http://www.w3.org/2000/svg">
<path d="M51.343 14.786C52.061 15.4846 52.5073 16.4548 52.5073 17.522C52.5073 19.6371 50.7997 21.3447 48.6846 21.3447H39.8945V8.73193H48.5294C50.5669 8.73193 52.1968 10.3813 52.1968 12.4187C52.1968 13.3113 51.8669 14.1457 51.343 14.786ZM42.8828 18.6475H48.2965C48.9563 18.6475 49.4996 18.1042 49.4996 17.4444C49.4996 16.7847 48.9563 16.2414 48.2965 16.2414H42.8828V18.6475ZM42.8828 13.5442H48.1413C48.7234 13.5442 49.1892 13.0785 49.1892 12.4964C49.1892 11.9142 48.7234 11.4485 48.1413 11.4485H42.8828V13.5442Z" fill="#00213A"/>
<path d="M45.5996 26.9916L43.3875 31.571H47.8116L45.5996 26.9916ZM53.3613 36.3832H50.1402L49.1312 34.2876H42.068L41.059 36.3832H37.8379L44.1443 23.7705H47.0743L53.3807 36.3832H53.3613Z" fill="#00213A"/>
<path d="M49.8696 39.0801H53.4982L47.0948 47.3075V51.6928H44.0871V47.3075L37.7031 39.0801H41.3123L45.6007 44.8237L49.8696 39.0801Z" fill="#00213A"/>
<path d="M66.5952 39.0801V41.7967H58.1932V43.8923H66.3041V46.5895H58.1932V48.9956H66.5952V51.6928H55.1855V39.0801H66.5952Z" fill="#00213A"/>
<path d="M77.985 41.7968H73.6191V44.2029H77.985C78.6448 44.2029 79.1686 43.6596 79.1686 42.9999C79.1686 42.3401 78.6448 41.7968 77.985 41.7968ZM75.8893 46.9001H73.6385V51.7123H70.6309V39.0996H78.2954C80.4493 39.0996 82.1957 40.846 82.1957 42.9999C82.1957 44.785 81.012 46.2792 79.4015 46.7449L83.1077 51.7123H79.4985L75.8893 46.9001Z" fill="#00213A"/>
<path d="M31.3184 42.3206L29.1064 46.9H33.5305L31.3184 42.3206ZM39.0995 51.6928H35.8784L34.8694 49.5972H27.8063L26.7973 51.6928H23.5762L29.8825 39.0801H32.8126L39.119 51.6928H39.0995Z" fill="#00213A"/>
<path d="M20.7239 45.1342C21.4418 45.8327 21.8881 46.803 21.8881 47.8702C21.8881 49.9852 20.1806 51.6928 18.0655 51.6928H9.27539V39.0801H17.9103C19.9477 39.0801 21.5777 40.7294 21.5777 42.7669C21.5777 43.6595 21.2478 44.4939 20.7239 45.1342ZM12.283 49.015H17.6968C18.3566 49.015 18.8999 48.4717 18.8999 47.812C18.8999 47.1522 18.3566 46.6089 17.6968 46.6089H12.283V49.015ZM12.283 43.8923H17.5416C18.1237 43.8923 18.5894 43.4266 18.5894 42.8445C18.5894 42.2624 18.1237 41.7967 17.5416 41.7967H12.283V43.8923Z" fill="#00213A"/>
<path d="M51.3042 54.4092V57.1064H42.8828V59.202H50.9937V61.9186H42.8828V64.3053H51.3042V67.0219H39.8945V54.4092H51.3042Z" fill="#00213A"/>
<path d="M39.8964 82.6415V70.0288H48.3178C50.4717 70.0288 52.1986 71.7946 52.1986 73.9485C52.1986 75.5784 51.1896 76.9755 49.7731 77.577L53.557 82.6609H49.9477L46.3386 77.8487H42.8846V82.6609H39.877L39.8964 82.6415ZM49.191 73.9291C49.191 73.2693 48.6671 72.726 48.0073 72.726H42.904V75.1321H48.0073C48.6671 75.1321 49.191 74.5888 49.191 73.9291Z" fill="#00213A"/>
<path d="M91.1034 42.7664C89.6481 18.8992 69.8364 -0.000488281 45.6005 -0.000488281C21.3647 -0.000488281 1.55297 18.8992 0.0976562 42.7664C0.155869 43.7172 0.233495 44.668 0.34992 45.6188C1.33954 53.5551 4.36658 60.8511 8.88776 67.0022C17.1928 78.2567 30.5429 85.5527 45.6005 85.5527C24.5276 85.5527 7.1996 69.1367 5.74429 48.4324C5.68608 47.501 5.64729 46.5502 5.64729 45.5994C5.64729 44.6486 5.68608 43.6978 5.74429 42.7664C7.1996 22.0427 24.5082 5.64614 45.6005 5.64614C60.6582 5.64614 74.0083 12.9421 82.3133 24.216C86.8345 30.3477 89.8616 37.6825 90.8512 45.6188C90.9676 46.5502 91.0646 47.4816 91.1034 48.413C91.1617 47.4816 91.2004 46.5308 91.2004 45.58C91.2004 44.6292 91.1617 43.6978 91.1034 42.747V42.7664Z" fill="#A2C223"/>
<path d="M0.0969974 48.4328C1.55231 72.2999 21.364 91.1996 45.5999 91.1996C69.8357 91.1996 89.6475 72.2999 91.1028 48.4328C91.0446 47.482 90.9669 46.5311 90.8505 45.5803C89.8609 37.644 86.8338 30.3286 82.3126 24.1969C74.0076 12.9425 60.6576 5.64648 45.5999 5.64648C66.6729 5.64648 84.0008 22.0624 85.4561 42.7667C85.5143 43.6981 85.5532 44.6489 85.5532 45.5997C85.5532 46.5506 85.5143 47.482 85.4561 48.4328C84.0008 69.1565 66.6923 85.553 45.5999 85.553C30.5422 85.553 17.1921 78.257 8.8871 67.0026C4.36592 60.8514 1.33888 53.5361 0.349262 45.5803C0.232836 44.6489 0.135806 43.7175 0.0969974 42.7667C0.0387847 43.6981 0 44.6489 0 45.5997C0 46.5506 0.0387847 47.482 0.0969974 48.4328Z" fill="#00BCFF"/>
</svg>
