<svg width="65" height="64" viewBox="0 0 65 64" fill="none" xmlns="http://www.w3.org/2000/svg">
<path d="M32.3474 63.6245C49.9169 63.6245 64.1597 49.3817 64.1597 31.8123C64.1597 14.2428 49.9169 0 32.3474 0C14.778 0 0.535156 14.2428 0.535156 31.8123C0.535156 49.3817 14.778 63.6245 32.3474 63.6245Z" fill="#0391DF"/>
<path d="M32.3477 45.596C24.9625 45.596 18.9629 39.4107 18.9629 31.8112C18.9629 24.2117 24.9625 18.0264 32.3477 18.0264C39.733 18.0264 45.7326 24.2117 45.7326 31.8112C45.7326 39.4107 39.733 45.596 32.3477 45.596ZM32.3477 19.8977C26.0053 19.8977 20.8342 25.2402 20.8342 31.8112C20.8342 38.3822 26.0053 43.7247 32.3477 43.7247C38.6902 43.7247 43.8613 38.3822 43.8613 31.8112C43.8613 25.2402 38.6902 19.8977 32.3477 19.8977Z" fill="white"/>
<path d="M32.304 45.5965C28.3329 45.5965 25.2188 39.5398 25.2188 31.8117C25.2188 24.0836 28.3329 18.0269 32.304 18.0269C36.2752 18.0269 39.3893 24.0836 39.3893 31.8117C39.3893 39.5398 36.2752 45.5965 32.304 45.5965ZM32.304 19.8982C29.2328 19.8982 27.0901 26.1835 27.0901 31.8117C27.0901 37.4399 29.2328 43.7252 32.304 43.7252C35.3753 43.7252 37.518 37.4399 37.518 31.8117C37.518 26.1835 35.3753 19.8982 32.304 19.8982Z" fill="white"/>
<path d="M43.5888 27.2115H21.1902C20.676 27.2115 20.2617 26.7973 20.2617 26.283C20.2617 25.7687 20.676 25.3545 21.1902 25.3545H43.5888C44.103 25.3545 44.5173 25.7687 44.5173 26.283C44.5173 26.7973 44.103 27.2115 43.5888 27.2115Z" fill="white"/>
<path d="M43.4044 38.5958H21.4344C20.9201 38.5958 20.5059 38.1815 20.5059 37.6673C20.5059 37.153 20.9201 36.7388 21.4344 36.7388H43.4044C43.9187 36.7388 44.3329 37.153 44.3329 37.6673C44.3329 38.1815 43.9187 38.5958 43.4044 38.5958Z" fill="white"/>
<path d="M44.7756 32.983H19.9344C19.4201 32.983 19.0059 32.5687 19.0059 32.0545C19.0059 31.5402 19.4201 31.126 19.9344 31.126H44.7756C45.2899 31.126 45.7042 31.5402 45.7042 32.0545C45.7042 32.5687 45.2899 32.983 44.7756 32.983Z" fill="white"/>
</svg>
