<svg width="64" height="64" viewBox="0 0 64 64" fill="none" xmlns="http://www.w3.org/2000/svg">
<path d="M32.0213 63.6245C49.5907 63.6245 63.8335 49.3817 63.8335 31.8123C63.8335 14.2428 49.5907 0 32.0213 0C14.4518 0 0.208984 14.2428 0.208984 31.8123C0.208984 49.3817 14.4518 63.6245 32.0213 63.6245Z" fill="#0391DF"/>
<path d="M38.9349 44.1817H25.1072C22.0931 44.1817 19.6504 41.739 19.6504 38.7249V24.8972C19.6504 21.8831 22.0931 19.4404 25.1072 19.4404H38.9349C41.949 19.4404 44.3917 21.8831 44.3917 24.8972V38.7249C44.3917 41.739 41.949 44.1817 38.9349 44.1817ZM25.0929 21.4403C23.1787 21.4403 21.636 22.9973 21.636 24.8972V38.7249C21.636 40.6391 23.193 42.1818 25.0929 42.1818H38.9206C40.8347 42.1818 42.3775 40.6248 42.3775 38.7249V24.8972C42.3775 22.9831 40.8205 21.4403 38.9206 21.4403H25.0929Z" fill="white"/>
<path d="M32.0203 38.6104C28.2777 38.6104 25.2207 35.5677 25.2207 31.8108C25.2207 28.0539 28.2634 25.0112 32.0203 25.0112C35.7772 25.0112 38.8199 28.0539 38.8199 31.8108C38.8199 35.5677 35.7772 38.6104 32.0203 38.6104ZM32.0203 27.0111C29.3776 27.0111 27.2206 29.1681 27.2206 31.8108C27.2206 34.4535 29.3633 36.6105 32.0203 36.6105C34.6773 36.6105 36.82 34.4678 36.82 31.8108C36.82 29.1538 34.6773 27.0111 32.0203 27.0111Z" fill="white"/>
<path d="M39.0484 26.4117C39.9477 26.4117 40.6769 25.6826 40.6769 24.7833C40.6769 23.8839 39.9477 23.1548 39.0484 23.1548C38.149 23.1548 37.4199 23.8839 37.4199 24.7833C37.4199 25.6826 38.149 26.4117 39.0484 26.4117Z" fill="white"/>
</svg>
