<svg width="64" height="64" viewBox="0 0 64 64" fill="none" xmlns="http://www.w3.org/2000/svg">
<path d="M31.8455 63.6245C49.4149 63.6245 63.6578 49.3817 63.6578 31.8123C63.6578 14.2428 49.4149 0 31.8455 0C14.2761 0 0.0332031 14.2428 0.0332031 31.8123C0.0332031 49.3817 14.2761 63.6245 31.8455 63.6245Z" fill="#0391DF"/>
<path d="M44.6012 21.0698H19.0885C17.7474 21.0698 16.6602 22.1571 16.6602 23.4982V40.1258C16.6602 41.4669 17.7474 42.5542 19.0885 42.5542H44.6012C45.9424 42.5542 47.0297 41.4669 47.0297 40.1258V23.4982C47.0297 22.1571 45.9424 21.0698 44.6012 21.0698Z" fill="white"/>
<path d="M27.9883 35.44V27.7976C27.9883 27.2405 28.574 26.8834 29.0596 27.1548L36.2734 30.9831C36.7877 31.2545 36.7877 32.0116 36.2734 32.283L29.0596 36.1114C28.574 36.3685 27.9883 36.0114 27.9883 35.4685V35.44Z" fill="#0391DF"/>
</svg>
