<svg width="64" height="64" viewBox="0 0 64 64" fill="none" xmlns="http://www.w3.org/2000/svg">
<path d="M32.1853 63.6245C49.7547 63.6245 63.9976 49.3817 63.9976 31.8123C63.9976 14.2428 49.7547 0 32.1853 0C14.6159 0 0.373047 14.2428 0.373047 31.8123C0.373047 49.3817 14.6159 63.6245 32.1853 63.6245Z" fill="#0391DF"/>
<path d="M28.6426 45.0255V33.4691C28.6426 33.2834 28.4854 33.1263 28.2997 33.1263H25.2999C24.9857 33.1263 24.7285 32.8691 24.7285 32.5549V28.3409C24.7285 28.0266 24.9857 27.7695 25.2999 27.7695H28.2997C28.4854 27.7695 28.6426 27.6123 28.6426 27.4266V22.5698C28.6426 20.0699 30.671 18.0415 33.1708 18.0415H39.0705C39.3847 18.0415 39.6419 18.2986 39.6419 18.6129V22.0984C39.6419 22.4127 39.3847 22.6698 39.0705 22.6698H36.3707C35.2707 22.6698 34.3851 23.5554 34.3851 24.6554V27.4123C34.3851 27.598 34.5422 27.7552 34.7279 27.7552H39.0848C39.399 27.7552 39.6562 28.0123 39.6562 28.3266V32.5406C39.6562 32.8548 39.399 33.112 39.0848 33.112H34.4422C34.2565 33.112 34.0993 33.2691 34.0993 33.4548V45.0112C34.0993 45.3255 33.8422 45.5826 33.528 45.5826H29.2425C28.9283 45.5826 28.6711 45.3255 28.6711 45.0112L28.6426 45.0255Z" fill="white"/>
</svg>
