<svg width="88" height="88" viewBox="0 0 88 88" fill="none" xmlns="http://www.w3.org/2000/svg">
<path d="M41.0443 87.5517C41.9774 87.6113 42.9006 87.6411 43.8239 87.6411C55.032 87.6411 65.575 83.4678 73.785 75.7371C82.6701 67.3705 87.5643 56.0328 87.5643 43.8207C87.5643 19.6648 67.9278 0.000305176 43.7843 0.000305176C31.7422 0.000305176 20.1072 5.04805 11.8476 13.8618C3.47873 22.7948 -0.690769 34.4604 0.0935004 46.7122C1.5032 68.6523 19.1046 86.2103 41.0244 87.5517" fill="#8AD429"/>
<path d="M44.6205 23.168C55.5635 23.168 64.5535 31.259 66.0725 41.768H72.5205L61.6705 54.168L50.8205 41.768H58.0125C57.3184 38.7337 55.6164 36.0242 53.1842 34.0818C50.7519 32.1394 47.7331 31.0788 44.6205 31.073C40.1255 31.073 36.1575 33.274 33.6465 36.591L28.3455 30.546C30.3751 28.2266 32.8775 26.3683 35.6845 25.0957C38.4916 23.8232 41.5384 23.1659 44.6205 23.168ZM43.3805 64.832C32.4685 64.832 23.4475 56.741 21.9285 46.232H15.4805L26.3305 33.832C29.9575 37.955 33.5535 42.109 37.1805 46.232H29.9885C30.6825 49.2663 32.3845 51.9758 34.8168 53.9182C37.249 55.8606 40.2678 56.9212 43.3805 56.927C47.8755 56.927 51.8435 54.726 54.3545 51.409L59.6555 57.454C57.6284 59.7765 55.1266 61.637 52.3189 62.9098C49.5113 64.1826 46.4632 64.8381 43.3805 64.832Z" fill="white"/>
</svg>
