<svg width="88" height="88" viewBox="0 0 88 88" fill="none" xmlns="http://www.w3.org/2000/svg">
<path d="M41.0443 87.5517C41.9774 87.6113 42.9006 87.6411 43.8239 87.6411C55.032 87.6411 65.575 83.4678 73.785 75.7371C82.6701 67.3705 87.5643 56.0328 87.5643 43.8207C87.5643 19.6648 67.9278 0.000305176 43.7843 0.000305176C31.7422 0.000305176 20.1072 5.04805 11.8476 13.8618C3.47873 22.7948 -0.690769 34.4604 0.0935004 46.7122C1.5032 68.6523 19.1046 86.2103 41.0244 87.5517" fill="#8AD429"/>
<path d="M38.3784 58C38.3784 58 38.4315 58 38.4543 58C39.4491 57.977 40.3832 57.5398 41.0439 56.7882L60.1121 34.9612C61.4106 33.4733 61.2663 31.2108 59.8007 29.8994C58.3275 28.5879 56.0873 28.7259 54.7888 30.2138L38.2721 49.1188L27.109 37.377C25.7497 35.9505 23.5019 35.9045 22.0895 37.2773C20.677 38.6501 20.6314 40.9203 21.9908 42.3468L35.8269 56.8956C36.4951 57.6012 37.4216 58 38.386 58" fill="white"/>
</svg>
