<svg width="88" height="88" viewBox="0 0 88 88" fill="none" xmlns="http://www.w3.org/2000/svg">
<path d="M41.0443 87.5517C41.9774 87.6113 42.9006 87.6411 43.8239 87.6411C55.032 87.6411 65.575 83.4678 73.785 75.7371C82.6701 67.3705 87.5643 56.0328 87.5643 43.8207C87.5643 19.6648 67.9278 0.000305176 43.7843 0.000305176C31.7422 0.000305176 20.1072 5.04805 11.8476 13.8618C3.47873 22.7948 -0.690769 34.4604 0.0935004 46.7122C1.5032 68.6523 19.1046 86.2103 41.0244 87.5517" fill="#8AD429"/>
<path d="M57.8946 36.9727L46.8354 26.0977C45.3471 24.6341 42.9463 24.6341 41.4579 26.0977L30.1162 37.2504C28.6279 38.714 28.6279 41.0749 30.1162 42.5384C30.855 43.2648 31.8327 43.628 32.7995 43.628C33.7664 43.628 34.7442 43.2648 35.4829 42.5384L40.3716 37.7312V60.261C40.3716 62.3228 42.0772 64 44.1739 64C46.2705 64 47.9761 62.3228 47.9761 60.261V37.8166L52.5062 42.2713C53.9945 43.7349 56.3954 43.7349 57.8838 42.2713C59.3721 40.8078 59.3721 38.4469 57.8838 36.9834" fill="white"/>
</svg>
