<svg width="88" height="88" viewBox="0 0 88 88" fill="none" xmlns="http://www.w3.org/2000/svg">
<path d="M41.0443 87.5517C41.9774 87.6113 42.9006 87.6411 43.8239 87.6411C55.032 87.6411 65.575 83.4678 73.785 75.7371C82.6701 67.3705 87.5643 56.0328 87.5643 43.8207C87.5643 19.6648 67.9278 0.000305176 43.7843 0.000305176C31.7422 0.000305176 20.1072 5.04805 11.8476 13.8618C3.47873 22.7948 -0.690769 34.4604 0.0935004 46.7122C1.5032 68.6523 19.1046 86.2103 41.0244 87.5517" fill="#8AD429"/>
<path d="M46.9029 23.3939V20.8382C46.9029 19.7481 46.555 18.8321 45.8414 18.0992C45.1278 17.3664 44.2448 17 43.1744 17C42.1041 17 41.221 17.3573 40.5074 18.0901C39.7939 18.8137 39.4371 19.7298 39.4371 20.829V23.568C36.5917 23.9252 34.4599 25.2076 32.6759 27.2046C30.9009 29.0275 30 31.5832 30 34.313C30 39.2412 32.6492 42.887 37.8048 44.9115L45.6184 48.0259C47.9286 48.942 49.1685 50.4077 49.1685 52.5878C49.1685 54.0443 48.6333 55.1435 47.7413 56.0504C46.671 56.9572 45.4311 57.3237 44.0129 57.3237L34.4153 57.3053C33.3449 57.3053 32.4618 57.6717 31.7483 58.3954C31.0347 59.1282 30.6779 60.0351 30.6779 61.1343C30.6779 62.0412 31.0347 62.9573 31.7393 63.6901C32.4529 64.4229 33.336 64.7893 34.4063 64.7893H39.3835V67.3451C39.3835 69.7176 40.6234 71 43.112 71C44.1734 71 45.0654 70.8168 45.779 70.0931C46.4926 69.3695 46.8494 68.4535 46.8494 67.3542V64.6153C49.8731 64.258 52.1834 62.9847 54.1457 60.7954C55.9296 58.6061 56.9911 56.0595 57 53.1374C57 48.026 53.8157 44.0137 47.777 41.2656L40.4985 38.3344C38.7235 37.6016 37.8315 36.3191 37.8404 34.6794C37.8404 33.5801 38.1972 32.6733 39.0892 31.9405C39.8028 31.2076 40.8642 30.8504 41.9346 30.8504H51.3538C52.4242 30.8687 53.3072 30.5023 54.0208 29.7695C54.7344 29.2198 55.0912 28.313 55.0912 27.2138C55.0912 26.1145 54.7433 25.2077 54.0297 24.4748C53.3162 23.742 52.4331 23.3756 51.3627 23.3756H46.9207L46.9029 23.3939Z" fill="white"/>
</svg>
