<svg width="88" height="88" viewBox="0 0 88 88" fill="none" xmlns="http://www.w3.org/2000/svg">
<path d="M41.0443 87.5517C41.9774 87.6113 42.9006 87.6411 43.8239 87.6411C55.032 87.6411 65.575 83.4678 73.785 75.7371C82.6701 67.3705 87.5643 56.0328 87.5643 43.8207C87.5643 19.6648 67.9278 0.000305176 43.7843 0.000305176C31.7422 0.000305176 20.1072 5.04805 11.8476 13.8618C3.47873 22.7948 -0.690769 34.4604 0.0935004 46.7122C1.5032 68.6523 19.1046 86.2103 41.0244 87.5517" fill="#8AD429"/>
<path d="M37.9997 18C37.517 18 37.0541 18.1917 36.7128 18.5331C36.3714 18.8744 36.1797 19.3373 36.1797 19.82V61.42C36.1797 61.9027 36.3714 62.3656 36.7128 62.7069C37.0541 63.0483 37.517 63.24 37.9997 63.24C38.4824 63.24 38.9453 63.0483 39.2866 62.7069C39.6279 62.3656 39.8197 61.9027 39.8197 61.42V42.44H62.1797C62.6624 42.44 63.1253 42.2482 63.4666 41.9069C63.8079 41.5656 63.9997 41.1027 63.9997 40.62V19.82C63.9997 19.3373 63.8079 18.8744 63.4666 18.5331C63.1253 18.1917 62.6624 18 62.1797 18H38.2597C38.2156 18.0003 38.1716 18.0021 38.1276 18.0052C38.085 18.0022 38.0424 18.0004 37.9997 18Z" fill="white"/>
<path d="M31.7625 57.9318C26.2536 58.7108 22.4004 60.5734 22.4004 63.3144C22.4004 67.0064 28.8385 70 38.0004 70C47.1623 70 53.6004 67.0069 53.6004 63.3144C53.6004 60.5729 49.7472 58.7108 44.2388 57.9324L43.4755 59.2318C47.6277 59.8075 50.4804 61.0186 50.4804 62.4231C50.4804 64.3923 44.893 65.9887 38.0004 65.9887C31.1078 65.9887 25.5204 64.3923 25.5204 62.4231C25.5199 61.0232 28.3544 59.8137 32.5191 59.2355L31.7625 57.9318Z" fill="white"/>
</svg>
