<svg width="88" height="88" viewBox="0 0 88 88" fill="none" xmlns="http://www.w3.org/2000/svg">
<path d="M41.0443 87.5514C41.9774 87.611 42.9006 87.6408 43.8239 87.6408C55.032 87.6408 65.575 83.4675 73.785 75.7368C82.6701 67.3702 87.5643 56.0325 87.5643 43.8204C87.5643 19.6645 67.9278 0 43.7843 0C31.7422 0 20.1072 5.04775 11.8476 13.8615C3.47873 22.7945 -0.690769 34.4601 0.0935004 46.7119C1.5032 68.652 19.1046 86.21 41.0244 87.5514" fill="#8AD429"/>
<path d="M27.3264 52.5714L40.5975 65.6772C42.3835 67.4409 45.2645 67.4409 47.0505 65.6772L60.6605 52.2367C62.4465 50.4729 62.4465 47.6277 60.6605 45.864C59.774 44.9886 58.6008 44.5508 57.4406 44.5508C56.2803 44.5508 55.1069 44.9886 54.2205 45.864L48.3541 51.6573L48.3541 24.5059C48.3541 22.0212 46.3074 20 43.7914 20C41.2754 20 39.2286 22.0212 39.2286 24.5059L39.2286 51.5543L33.7926 46.1859C32.0066 44.4221 29.1255 44.4221 27.3395 46.1859C25.5535 47.9496 25.5535 50.7948 27.3395 52.5585" fill="white"/>
</svg>
