<svg width="53" height="52" viewBox="0 0 53 52" fill="none" xmlns="http://www.w3.org/2000/svg">
<path d="M50.3581 51.8382H2.63981C1.73284 51.8382 0.899554 51.3619 0.414889 50.568C-0.100954 49.7203 -0.1378 48.6883 0.315688 47.8037L24.1748 1.44594C24.634 0.552859 25.5239 0 26.4989 0C27.4739 0 28.3639 0.555694 28.8231 1.44594L52.6822 47.8037C53.1385 48.6883 53.1017 49.7203 52.583 50.568C52.0983 51.3647 51.265 51.8382 50.3581 51.8382Z" fill="#FEC311"/>
<path d="M26.7787 35.5583C26.7646 35.5583 26.7475 35.5583 26.7334 35.5583C25.4523 35.5328 24.4121 34.515 24.31 33.1909L23.3634 20.7389C23.3067 20.0074 23.5561 19.2844 24.0465 18.7543C24.517 18.2468 25.149 17.9661 25.8292 17.9661H27.8416C28.5161 17.9661 29.168 18.2553 29.6329 18.7628C30.1232 19.2986 30.3698 20.0273 30.3074 20.7644L29.2417 33.2165C29.1284 34.5376 28.0485 35.5583 26.7759 35.5583H26.7787Z" fill="#00213A"/>
<path d="M27.2446 44.7843C25.3003 44.7843 23.7188 43.1257 23.7188 41.0901C23.7188 39.0544 25.3003 37.3959 27.2446 37.3959C29.1889 37.3959 30.7705 39.0544 30.7705 41.0901C30.7705 43.1257 29.1889 44.7843 27.2446 44.7843Z" fill="#00213A"/>
</svg>
