<svg width="269" height="31" viewBox="0 0 269 31" fill="none" xmlns="http://www.w3.org/2000/svg">
<mask id="path-1-inside-1_240_4430" fill="white">
<path d="M79.903 0L74.1367 30.0142H75.081L80.8473 0H79.903Z"/>
</mask>
<path d="M79.903 0L74.1367 30.0142H75.081L80.8473 0H79.903Z" fill="#8AD429"/>
<path d="M79.903 0V-1H79.0769L78.921 -0.188669L79.903 0ZM74.1367 30.0142L73.1547 29.8256L72.9263 31.0142H74.1367V30.0142ZM75.081 30.0142V31.0142H75.9071L76.063 30.2029L75.081 30.0142ZM80.8473 0L81.8293 0.188669L82.0577 -1H80.8473V0ZM79.903 0L78.921 -0.188669L73.1547 29.8256L74.1367 30.0142L75.1188 30.2029L80.8851 0.188669L79.903 0ZM74.1367 30.0142V31.0142H75.081V30.0142V29.0142H74.1367V30.0142ZM75.081 30.0142L76.063 30.2029L81.8293 0.188669L80.8473 0L79.8653 -0.188669L74.0989 29.8256L75.081 30.0142ZM80.8473 0V-1H79.903V0V1H80.8473V0Z" fill="#8AD429" mask="url(#path-1-inside-1_240_4430)"/>
<mask id="path-3-inside-2_240_4430" fill="white">
<path d="M191.747 0L185.98 30.0142H186.925L192.691 0H191.747Z"/>
</mask>
<path d="M191.747 0L185.98 30.0142H186.925L192.691 0H191.747Z" fill="#8AD429"/>
<path d="M191.747 0V-1H190.921L190.765 -0.188669L191.747 0ZM185.98 30.0142L184.998 29.8256L184.77 31.0142H185.98V30.0142ZM186.925 30.0142V31.0142H187.751L187.907 30.2029L186.925 30.0142ZM192.691 0L193.673 0.188669L193.901 -1H192.691V0ZM191.747 0L190.765 -0.188669L184.998 29.8256L185.98 30.0142L186.963 30.2029L192.729 0.188669L191.747 0ZM185.98 30.0142V31.0142H186.925V30.0142V29.0142H185.98V30.0142ZM186.925 30.0142L187.907 30.2029L193.673 0.188669L192.691 0L191.709 -0.188669L185.943 29.8256L186.925 30.0142ZM192.691 0V-1H191.747V0V1H192.691V0Z" fill="#8AD429" mask="url(#path-3-inside-2_240_4430)"/>
<mask id="path-5-inside-3_240_4430" fill="white">
<path d="M229.452 0L223.686 30.0142H224.63L230.396 0H229.452Z"/>
</mask>
<path d="M229.452 0L223.686 30.0142H224.63L230.396 0H229.452Z" fill="#8AD429"/>
<path d="M229.452 0V-1H228.626L228.47 -0.188669L229.452 0ZM223.686 30.0142L222.704 29.8256L222.475 31.0142H223.686V30.0142ZM224.63 30.0142V31.0142H225.456L225.612 30.2029L224.63 30.0142ZM230.396 0L231.378 0.188669L231.607 -1H230.396V0ZM229.452 0L228.47 -0.188669L222.704 29.8256L223.686 30.0142L224.668 30.2029L230.434 0.188669L229.452 0ZM223.686 30.0142V31.0142H224.63V30.0142V29.0142H223.686V30.0142ZM224.63 30.0142L225.612 30.2029L231.378 0.188669L230.396 0L229.414 -0.188669L223.648 29.8256L224.63 30.0142ZM230.396 0V-1H229.452V0V1H230.396V0Z" fill="#8AD429" mask="url(#path-5-inside-3_240_4430)"/>
<mask id="path-7-inside-4_240_4430" fill="white">
<path d="M74.5216 0L68.7461 30.0142H69.6903L75.4658 0H74.5216Z"/>
</mask>
<path d="M74.5216 0L68.7461 30.0142H69.6903L75.4658 0H74.5216Z" fill="#8AD429"/>
<path d="M74.5216 0V-1H73.6957L73.5396 -0.188958L74.5216 0ZM68.7461 30.0142L67.7641 29.8253L67.5353 31.0142H68.7461V30.0142ZM69.6903 30.0142V31.0142H70.5163L70.6723 30.2032L69.6903 30.0142ZM75.4658 0L76.4478 0.188958L76.6766 -1H75.4658V0ZM74.5216 0L73.5396 -0.188958L67.7641 29.8253L68.7461 30.0142L69.7281 30.2032L75.5036 0.188958L74.5216 0ZM68.7461 30.0142V31.0142H69.6903V30.0142V29.0142H68.7461V30.0142ZM69.6903 30.0142L70.6723 30.2032L76.4478 0.188958L75.4658 0L74.4838 -0.188958L68.7084 29.8253L69.6903 30.0142ZM75.4658 0V-1H74.5216V0V1H75.4658V0Z" fill="#8AD429" mask="url(#path-7-inside-4_240_4430)"/>
<mask id="path-9-inside-5_240_4430" fill="white">
<path d="M186.365 0L180.59 30.0142H181.534L187.31 0H186.365Z"/>
</mask>
<path d="M186.365 0L180.59 30.0142H181.534L187.31 0H186.365Z" fill="#8AD429"/>
<path d="M186.365 0V-1H185.539L185.383 -0.188958L186.365 0ZM180.59 30.0142L179.608 29.8253L179.379 31.0142H180.59V30.0142ZM181.534 30.0142V31.0142H182.36L182.516 30.2032L181.534 30.0142ZM187.31 0L188.292 0.188958L188.52 -1H187.31V0ZM186.365 0L185.383 -0.188958L179.608 29.8253L180.59 30.0142L181.572 30.2032L187.347 0.188958L186.365 0ZM180.59 30.0142V31.0142H181.534V30.0142V29.0142H180.59V30.0142ZM181.534 30.0142L182.516 30.2032L188.292 0.188958L187.31 0L186.328 -0.188958L180.552 29.8253L181.534 30.0142ZM187.31 0V-1H186.365V0V1H187.31V0Z" fill="#8AD429" mask="url(#path-9-inside-5_240_4430)"/>
<mask id="path-11-inside-6_240_4430" fill="white">
<path d="M69.3152 0L63.5488 30.0142H64.4931L70.2594 0H69.3152Z"/>
</mask>
<path d="M69.3152 0L63.5488 30.0142H64.4931L70.2594 0H69.3152Z" fill="#8AD429"/>
<path d="M69.3152 0V-1H68.489L68.3331 -0.188669L69.3152 0ZM63.5488 30.0142L62.5668 29.8256L62.3384 31.0142H63.5488V30.0142ZM64.4931 30.0142V31.0142H65.3192L65.4751 30.2029L64.4931 30.0142ZM70.2594 0L71.2414 0.188669L71.4698 -1H70.2594V0ZM69.3152 0L68.3331 -0.188669L62.5668 29.8256L63.5488 30.0142L64.5309 30.2029L70.2972 0.188669L69.3152 0ZM63.5488 30.0142V31.0142H64.4931V30.0142V29.0142H63.5488V30.0142ZM64.4931 30.0142L65.4751 30.2029L71.2414 0.188669L70.2594 0L69.2774 -0.188669L63.511 29.8256L64.4931 30.0142ZM70.2594 0V-1H69.3152V0V1H70.2594V0Z" fill="#8AD429" mask="url(#path-11-inside-6_240_4430)"/>
<mask id="path-13-inside-7_240_4430" fill="white">
<path d="M181.159 0L175.393 30.0142H176.337L182.103 0H181.159Z"/>
</mask>
<path d="M181.159 0L175.393 30.0142H176.337L182.103 0H181.159Z" fill="#8AD429"/>
<path d="M181.159 0V-1H180.333L180.177 -0.188669L181.159 0ZM175.393 30.0142L174.411 29.8256L174.182 31.0142H175.393V30.0142ZM176.337 30.0142V31.0142H177.163L177.319 30.2029L176.337 30.0142ZM182.103 0L183.085 0.188669L183.314 -1H182.103V0ZM181.159 0L180.177 -0.188669L174.411 29.8256L175.393 30.0142L176.375 30.2029L182.141 0.188669L181.159 0ZM175.393 30.0142V31.0142H176.337V30.0142V29.0142H175.393V30.0142ZM176.337 30.0142L177.319 30.2029L183.085 0.188669L182.103 0L181.121 -0.188669L175.355 29.8256L176.337 30.0142ZM182.103 0V-1H181.159V0V1H182.103V0Z" fill="#8AD429" mask="url(#path-13-inside-7_240_4430)"/>
<mask id="path-15-inside-8_240_4430" fill="white">
<path d="M63.9987 0L58.2324 30.0142H59.1675L64.943 0H63.9987Z"/>
</mask>
<path d="M63.9987 0L58.2324 30.0142H59.1675L64.943 0H63.9987Z" fill="#8AD429"/>
<path d="M63.9987 0V-1H63.1726L63.0167 -0.188669L63.9987 0ZM58.2324 30.0142L57.2504 29.8256L57.022 31.0142H58.2324V30.0142ZM59.1675 30.0142V31.0142H59.9934L60.1495 30.2032L59.1675 30.0142ZM64.943 0L65.925 0.188959L66.1538 -1H64.943V0ZM63.9987 0L63.0167 -0.188669L57.2504 29.8256L58.2324 30.0142L59.2145 30.2029L64.9808 0.188669L63.9987 0ZM58.2324 30.0142V31.0142H59.1675V30.0142V29.0142H58.2324V30.0142ZM59.1675 30.0142L60.1495 30.2032L65.925 0.188959L64.943 0L63.961 -0.188959L58.1855 29.8253L59.1675 30.0142ZM64.943 0V-1H63.9987V0V1H64.943V0Z" fill="#8AD429" mask="url(#path-15-inside-8_240_4430)"/>
<mask id="path-17-inside-9_240_4430" fill="white">
<path d="M175.841 0L170.074 30.0142H171.009L176.785 0H175.841Z"/>
</mask>
<path d="M175.841 0L170.074 30.0142H171.009L176.785 0H175.841Z" fill="#8AD429"/>
<path d="M175.841 0V-1H175.014L174.859 -0.188669L175.841 0ZM170.074 30.0142L169.092 29.8256L168.864 31.0142H170.074V30.0142ZM171.009 30.0142V31.0142H171.835L171.991 30.2032L171.009 30.0142ZM176.785 0L177.767 0.188959L177.996 -1H176.785V0ZM175.841 0L174.859 -0.188669L169.092 29.8256L170.074 30.0142L171.056 30.2029L176.823 0.188669L175.841 0ZM170.074 30.0142V31.0142H171.009V30.0142V29.0142H170.074V30.0142ZM171.009 30.0142L171.991 30.2032L177.767 0.188959L176.785 0L175.803 -0.188959L170.027 29.8253L171.009 30.0142ZM176.785 0V-1H175.841V0V1H176.785V0Z" fill="#8AD429" mask="url(#path-17-inside-9_240_4430)"/>
<mask id="path-19-inside-10_240_4430" fill="white">
<path d="M58.6993 0L52.9238 30.0142H53.8681L59.6436 0H58.6993Z"/>
</mask>
<path d="M58.6993 0L52.9238 30.0142H53.8681L59.6436 0H58.6993Z" fill="#8AD429"/>
<path d="M58.6993 0V-1H57.8734L57.7173 -0.188958L58.6993 0ZM52.9238 30.0142L51.9418 29.8253L51.7131 31.0142H52.9238V30.0142ZM53.8681 30.0142V31.0142H54.694L54.8501 30.2032L53.8681 30.0142ZM59.6436 0L60.6256 0.188959L60.8543 -1H59.6436V0ZM58.6993 0L57.7173 -0.188958L51.9418 29.8253L52.9238 30.0142L53.9058 30.2032L59.6813 0.188958L58.6993 0ZM52.9238 30.0142V31.0142H53.8681V30.0142V29.0142H52.9238V30.0142ZM53.8681 30.0142L54.8501 30.2032L60.6256 0.188959L59.6436 0L58.6616 -0.188959L52.8861 29.8253L53.8681 30.0142ZM59.6436 0V-1H58.6993V0V1H59.6436V0Z" fill="#8AD429" mask="url(#path-19-inside-10_240_4430)"/>
<mask id="path-21-inside-11_240_4430" fill="white">
<path d="M170.541 0L164.766 30.0142H165.71L171.485 0H170.541Z"/>
</mask>
<path d="M170.541 0L164.766 30.0142H165.71L171.485 0H170.541Z" fill="#8AD429"/>
<path d="M170.541 0V-1H169.715L169.559 -0.188958L170.541 0ZM164.766 30.0142L163.784 29.8253L163.555 31.0142H164.766V30.0142ZM165.71 30.0142V31.0142H166.536L166.692 30.2032L165.71 30.0142ZM171.485 0L172.467 0.188959L172.696 -1H171.485V0ZM170.541 0L169.559 -0.188958L163.784 29.8253L164.766 30.0142L165.748 30.2032L171.523 0.188958L170.541 0ZM164.766 30.0142V31.0142H165.71V30.0142V29.0142H164.766V30.0142ZM165.71 30.0142L166.692 30.2032L172.467 0.188959L171.485 0L170.503 -0.188959L164.728 29.8253L165.71 30.0142ZM171.485 0V-1H170.541V0V1H171.485V0Z" fill="#8AD429" mask="url(#path-21-inside-11_240_4430)"/>
<mask id="path-23-inside-12_240_4430" fill="white">
<path d="M53.3829 0L47.6074 30.0142H47.6166H48.5517L54.3272 0H53.3829Z"/>
</mask>
<path d="M53.3829 0L47.6074 30.0142H47.6166H48.5517L54.3272 0H53.3829Z" fill="#8AD429"/>
<path d="M53.3829 0V-1H52.557L52.4009 -0.188959L53.3829 0ZM47.6074 30.0142L46.6254 29.8253L46.3967 31.0142H47.6074V30.0142ZM48.5517 30.0142V31.0142H49.3776L49.5337 30.2032L48.5517 30.0142ZM54.3272 0L55.3092 0.188959L55.5379 -1H54.3272V0ZM53.3829 0L52.4009 -0.188959L46.6254 29.8253L47.6074 30.0142L48.5894 30.2032L54.3649 0.188959L53.3829 0ZM47.6074 30.0142V31.0142H47.6166V30.0142V29.0142H47.6074V30.0142ZM47.6166 30.0142V31.0142H48.5517V30.0142V29.0142H47.6166V30.0142ZM48.5517 30.0142L49.5337 30.2032L55.3092 0.188959L54.3272 0L53.3452 -0.188959L47.5697 29.8253L48.5517 30.0142ZM54.3272 0V-1H53.3829V0V1H54.3272V0Z" fill="#8AD429" mask="url(#path-23-inside-12_240_4430)"/>
<mask id="path-25-inside-13_240_4430" fill="white">
<path d="M165.225 0L159.449 30.0142H159.458H160.393L166.169 0H165.225Z"/>
</mask>
<path d="M165.225 0L159.449 30.0142H159.458H160.393L166.169 0H165.225Z" fill="#8AD429"/>
<path d="M165.225 0V-1H164.399L164.243 -0.188959L165.225 0ZM159.449 30.0142L158.467 29.8253L158.238 31.0142H159.449V30.0142ZM160.393 30.0142V31.0142H161.219L161.375 30.2032L160.393 30.0142ZM166.169 0L167.151 0.188959L167.38 -1H166.169V0ZM165.225 0L164.243 -0.188959L158.467 29.8253L159.449 30.0142L160.431 30.2032L166.207 0.188959L165.225 0ZM159.449 30.0142V31.0142H159.458V30.0142V29.0142H159.449V30.0142ZM159.458 30.0142V31.0142H160.393V30.0142V29.0142H159.458V30.0142ZM160.393 30.0142L161.375 30.2032L167.151 0.188959L166.169 0L165.187 -0.188959L159.411 29.8253L160.393 30.0142ZM166.169 0V-1H165.225V0V1H166.169V0Z" fill="#8AD429" mask="url(#path-25-inside-13_240_4430)"/>
<mask id="path-27-inside-14_240_4430" fill="white">
<path d="M48.1192 0L42.3438 30.0142H43.288L49.0635 0H48.1192Z"/>
</mask>
<path d="M48.1192 0L42.3438 30.0142H43.288L49.0635 0H48.1192Z" fill="#8AD429"/>
<path d="M48.1192 0V-1H47.2933L47.1373 -0.188959L48.1192 0ZM42.3438 30.0142L41.3618 29.8253L41.133 31.0142H42.3438V30.0142ZM43.288 30.0142V31.0142H44.1139L44.27 30.2032L43.288 30.0142ZM49.0635 0L50.0455 0.188959L50.2743 -1H49.0635V0ZM48.1192 0L47.1373 -0.188959L41.3618 29.8253L42.3438 30.0142L43.3257 30.2032L49.1012 0.188959L48.1192 0ZM42.3438 30.0142V31.0142H43.288V30.0142V29.0142H42.3438V30.0142ZM43.288 30.0142L44.27 30.2032L50.0455 0.188959L49.0635 0L48.0815 -0.188959L42.306 29.8253L43.288 30.0142ZM49.0635 0V-1H48.1192V0V1H49.0635V0Z" fill="#8AD429" mask="url(#path-27-inside-14_240_4430)"/>
<mask id="path-29-inside-15_240_4430" fill="white">
<path d="M159.963 0L154.188 30.0142H155.132L160.907 0H159.963Z"/>
</mask>
<path d="M159.963 0L154.188 30.0142H155.132L160.907 0H159.963Z" fill="#8AD429"/>
<path d="M159.963 0V-1H159.137L158.981 -0.188959L159.963 0ZM154.188 30.0142L153.206 29.8253L152.977 31.0142H154.188V30.0142ZM155.132 30.0142V31.0142H155.958L156.114 30.2032L155.132 30.0142ZM160.907 0L161.889 0.188959L162.118 -1H160.907V0ZM159.963 0L158.981 -0.188959L153.206 29.8253L154.188 30.0142L155.169 30.2032L160.945 0.188959L159.963 0ZM154.188 30.0142V31.0142H155.132V30.0142V29.0142H154.188V30.0142ZM155.132 30.0142L156.114 30.2032L161.889 0.188959L160.907 0L159.925 -0.188959L154.15 29.8253L155.132 30.0142ZM160.907 0V-1H159.963V0V1H160.907V0Z" fill="#8AD429" mask="url(#path-29-inside-15_240_4430)"/>
<mask id="path-31-inside-16_240_4430" fill="white">
<path d="M42.7853 0L37.0098 30.0142H37.954L43.7295 0H42.7853Z"/>
</mask>
<path d="M42.7853 0L37.0098 30.0142H37.954L43.7295 0H42.7853Z" fill="#8AD429"/>
<path d="M42.7853 0V-1H41.9593L41.8033 -0.188959L42.7853 0ZM37.0098 30.0142L36.0278 29.8253L35.799 31.0142H37.0098V30.0142ZM37.954 30.0142V31.0142H38.7799L38.936 30.2032L37.954 30.0142ZM43.7295 0L44.7115 0.188959L44.9403 -1H43.7295V0ZM42.7853 0L41.8033 -0.188959L36.0278 29.8253L37.0098 30.0142L37.9918 30.2032L43.7672 0.188959L42.7853 0ZM37.0098 30.0142V31.0142H37.954V30.0142V29.0142H37.0098V30.0142ZM37.954 30.0142L38.936 30.2032L44.7115 0.188959L43.7295 0L42.7475 -0.188959L36.972 29.8253L37.954 30.0142ZM43.7295 0V-1H42.7853V0V1H43.7295V0Z" fill="#8AD429" mask="url(#path-31-inside-16_240_4430)"/>
<mask id="path-33-inside-17_240_4430" fill="white">
<path d="M154.627 0L148.852 30.0142H149.796L155.571 0H154.627Z"/>
</mask>
<path d="M154.627 0L148.852 30.0142H149.796L155.571 0H154.627Z" fill="#8AD429"/>
<path d="M154.627 0V-1H153.801L153.645 -0.188959L154.627 0ZM148.852 30.0142L147.87 29.8253L147.641 31.0142H148.852V30.0142ZM149.796 30.0142V31.0142H150.622L150.778 30.2032L149.796 30.0142ZM155.571 0L156.553 0.188959L156.782 -1H155.571V0ZM154.627 0L153.645 -0.188959L147.87 29.8253L148.852 30.0142L149.834 30.2032L155.609 0.188959L154.627 0ZM148.852 30.0142V31.0142H149.796V30.0142V29.0142H148.852V30.0142ZM149.796 30.0142L150.778 30.2032L156.553 0.188959L155.571 0L154.589 -0.188959L148.814 29.8253L149.796 30.0142ZM155.571 0V-1H154.627V0V1H155.571V0Z" fill="#8AD429" mask="url(#path-33-inside-17_240_4430)"/>
<mask id="path-35-inside-18_240_4430" fill="white">
<path d="M37.4948 0L31.7285 30.0142H32.6728L38.4391 0H37.4948Z"/>
</mask>
<path d="M37.4948 0L31.7285 30.0142H32.6728L38.4391 0H37.4948Z" fill="#8AD429"/>
<path d="M37.4948 0V-1H36.6687L36.5128 -0.188669L37.4948 0ZM31.7285 30.0142L30.7465 29.8256L30.5181 31.0142H31.7285V30.0142ZM32.6728 30.0142V31.0142H33.4989L33.6548 30.2029L32.6728 30.0142ZM38.4391 0L39.4211 0.188669L39.6495 -1H38.4391V0ZM37.4948 0L36.5128 -0.188669L30.7465 29.8256L31.7285 30.0142L32.7106 30.2029L38.4769 0.188669L37.4948 0ZM31.7285 30.0142V31.0142H32.6728V30.0142V29.0142H31.7285V30.0142ZM32.6728 30.0142L33.6548 30.2029L39.4211 0.188669L38.4391 0L37.457 -0.188669L31.6907 29.8256L32.6728 30.0142ZM38.4391 0V-1H37.4948V0V1H38.4391V0Z" fill="#8AD429" mask="url(#path-35-inside-18_240_4430)"/>
<mask id="path-37-inside-19_240_4430" fill="white">
<path d="M149.339 0L143.572 30.0142H144.517L150.283 0H149.339Z"/>
</mask>
<path d="M149.339 0L143.572 30.0142H144.517L150.283 0H149.339Z" fill="#8AD429"/>
<path d="M149.339 0V-1H148.512L148.357 -0.188669L149.339 0ZM143.572 30.0142L142.59 29.8256L142.362 31.0142H143.572V30.0142ZM144.517 30.0142V31.0142H145.343L145.499 30.2029L144.517 30.0142ZM150.283 0L151.265 0.188669L151.493 -1H150.283V0ZM149.339 0L148.357 -0.188669L142.59 29.8256L143.572 30.0142L144.554 30.2029L150.321 0.188669L149.339 0ZM143.572 30.0142V31.0142H144.517V30.0142V29.0142H143.572V30.0142ZM144.517 30.0142L145.499 30.2029L151.265 0.188669L150.283 0L149.301 -0.188669L143.534 29.8256L144.517 30.0142ZM150.283 0V-1H149.339V0V1H150.283V0Z" fill="#8AD429" mask="url(#path-37-inside-19_240_4430)"/>
<mask id="path-39-inside-20_240_4430" fill="white">
<path d="M32.1603 0L26.3848 30.0142H26.3939H27.329L33.1045 0H32.1603Z"/>
</mask>
<path d="M32.1603 0L26.3848 30.0142H26.3939H27.329L33.1045 0H32.1603Z" fill="#8AD429"/>
<path d="M32.1603 0V-1H31.3343L31.1783 -0.188959L32.1603 0ZM26.3848 30.0142L25.4028 29.8253L25.174 31.0142H26.3848V30.0142ZM27.329 30.0142V31.0142H28.1549L28.311 30.2032L27.329 30.0142ZM33.1045 0L34.0865 0.188959L34.3153 -1H33.1045V0ZM32.1603 0L31.1783 -0.188959L25.4028 29.8253L26.3848 30.0142L27.3668 30.2032L33.1422 0.188959L32.1603 0ZM26.3848 30.0142V31.0142H26.3939V30.0142V29.0142H26.3848V30.0142ZM26.3939 30.0142V31.0142H27.329V30.0142V29.0142H26.3939V30.0142ZM27.329 30.0142L28.311 30.2032L34.0865 0.188959L33.1045 0L32.1225 -0.188959L26.347 29.8253L27.329 30.0142ZM33.1045 0V-1H32.1603V0V1H33.1045V0Z" fill="#8AD429" mask="url(#path-39-inside-20_240_4430)"/>
<mask id="path-41-inside-21_240_4430" fill="white">
<path d="M144.002 0L138.227 30.0142H138.236H139.171L144.946 0H144.002Z"/>
</mask>
<path d="M144.002 0L138.227 30.0142H138.236H139.171L144.946 0H144.002Z" fill="#8AD429"/>
<path d="M144.002 0V-1H143.176L143.02 -0.188959L144.002 0ZM138.227 30.0142L137.245 29.8253L137.016 31.0142H138.227V30.0142ZM139.171 30.0142V31.0142H139.997L140.153 30.2032L139.171 30.0142ZM144.946 0L145.928 0.188959L146.157 -1H144.946V0ZM144.002 0L143.02 -0.188959L137.245 29.8253L138.227 30.0142L139.209 30.2032L144.984 0.188959L144.002 0ZM138.227 30.0142V31.0142H138.236V30.0142V29.0142H138.227V30.0142ZM138.236 30.0142V31.0142H139.171V30.0142V29.0142H138.236V30.0142ZM139.171 30.0142L140.153 30.2032L145.928 0.188959L144.946 0L143.964 -0.188959L138.189 29.8253L139.171 30.0142ZM144.946 0V-1H144.002V0V1H144.946V0Z" fill="#8AD429" mask="url(#path-41-inside-21_240_4430)"/>
<mask id="path-43-inside-22_240_4430" fill="white">
<path d="M27.0528 0L21.2773 30.0142H22.2216L27.9879 0H27.0528Z"/>
</mask>
<path d="M27.0528 0L21.2773 30.0142H22.2216L27.9879 0H27.0528Z" fill="#8AD429"/>
<path d="M27.0528 0V-1H26.2269L26.0709 -0.188959L27.0528 0ZM21.2773 30.0142L20.2954 29.8253L20.0666 31.0142H21.2773V30.0142ZM22.2216 30.0142V31.0142H23.0478L23.2036 30.2029L22.2216 30.0142ZM27.9879 0L28.97 0.188669L29.1983 -1H27.9879V0ZM27.0528 0L26.0709 -0.188959L20.2954 29.8253L21.2773 30.0142L22.2593 30.2032L28.0348 0.188959L27.0528 0ZM21.2773 30.0142V31.0142H22.2216V30.0142V29.0142H21.2773V30.0142ZM22.2216 30.0142L23.2036 30.2029L28.97 0.188669L27.9879 0L27.0059 -0.188669L21.2395 29.8256L22.2216 30.0142ZM27.9879 0V-1H27.0528V0V1H27.9879V0Z" fill="#8AD429" mask="url(#path-43-inside-22_240_4430)"/>
<mask id="path-45-inside-23_240_4430" fill="white">
<path d="M138.897 0L133.121 30.0142H134.065L139.832 0H138.897Z"/>
</mask>
<path d="M138.897 0L133.121 30.0142H134.065L139.832 0H138.897Z" fill="#8AD429"/>
<path d="M138.897 0V-1H138.071L137.915 -0.188959L138.897 0ZM133.121 30.0142L132.139 29.8253L131.91 31.0142H133.121V30.0142ZM134.065 30.0142V31.0142H134.892L135.047 30.2029L134.065 30.0142ZM139.832 0L140.814 0.188669L141.042 -1H139.832V0ZM138.897 0L137.915 -0.188959L132.139 29.8253L133.121 30.0142L134.103 30.2032L139.879 0.188959L138.897 0ZM133.121 30.0142V31.0142H134.065V30.0142V29.0142H133.121V30.0142ZM134.065 30.0142L135.047 30.2029L140.814 0.188669L139.832 0L138.85 -0.188669L133.083 29.8256L134.065 30.0142ZM139.832 0V-1H138.897V0V1H139.832V0Z" fill="#8AD429" mask="url(#path-45-inside-23_240_4430)"/>
<mask id="path-47-inside-24_240_4430" fill="white">
<path d="M21.6817 0L15.9062 30.0142H16.8505L22.626 0H21.6817Z"/>
</mask>
<path d="M21.6817 0L15.9062 30.0142H16.8505L22.626 0H21.6817Z" fill="#8AD429"/>
<path d="M21.6817 0V-1H20.8558L20.6998 -0.188959L21.6817 0ZM15.9062 30.0142L14.9243 29.8253L14.6955 31.0142H15.9062V30.0142ZM16.8505 30.0142V31.0142H17.6764L17.8325 30.2032L16.8505 30.0142ZM22.626 0L23.608 0.188959L23.8368 -1H22.626V0ZM21.6817 0L20.6998 -0.188959L14.9243 29.8253L15.9062 30.0142L16.8882 30.2032L22.6637 0.188959L21.6817 0ZM15.9062 30.0142V31.0142H16.8505V30.0142V29.0142H15.9062V30.0142ZM16.8505 30.0142L17.8325 30.2032L23.608 0.188959L22.626 0L21.644 -0.188959L15.8685 29.8253L16.8505 30.0142ZM22.626 0V-1H21.6817V0V1H22.626V0Z" fill="#8AD429" mask="url(#path-47-inside-24_240_4430)"/>
<mask id="path-49-inside-25_240_4430" fill="white">
<path d="M133.524 0L127.748 30.0142H128.692L134.468 0H133.524Z"/>
</mask>
<path d="M133.524 0L127.748 30.0142H128.692L134.468 0H133.524Z" fill="#8AD429"/>
<path d="M133.524 0V-1H132.698L132.542 -0.188959L133.524 0ZM127.748 30.0142L126.766 29.8253L126.537 31.0142H127.748V30.0142ZM128.692 30.0142V31.0142H129.518L129.674 30.2032L128.692 30.0142ZM134.468 0L135.45 0.188959L135.679 -1H134.468V0ZM133.524 0L132.542 -0.188959L126.766 29.8253L127.748 30.0142L128.73 30.2032L134.506 0.188959L133.524 0ZM127.748 30.0142V31.0142H128.692V30.0142V29.0142H127.748V30.0142ZM128.692 30.0142L129.674 30.2032L135.45 0.188959L134.468 0L133.486 -0.188959L127.71 29.8253L128.692 30.0142ZM134.468 0V-1H133.524V0V1H134.468V0Z" fill="#8AD429" mask="url(#path-49-inside-25_240_4430)"/>
<mask id="path-51-inside-26_240_4430" fill="white">
<path d="M16.3093 0L10.543 30.0142H11.478L17.2535 0H16.3093Z"/>
</mask>
<path d="M16.3093 0L10.543 30.0142H11.478L17.2535 0H16.3093Z" fill="#8AD429"/>
<path d="M16.3093 0V-1H15.4831L15.3273 -0.188669L16.3093 0ZM10.543 30.0142L9.56093 29.8256L9.33256 31.0142H10.543V30.0142ZM11.478 30.0142V31.0142H12.304L12.46 30.2032L11.478 30.0142ZM17.2535 0L18.2355 0.188959L18.4643 -1H17.2535V0ZM16.3093 0L15.3273 -0.188669L9.56093 29.8256L10.543 30.0142L11.525 30.2029L17.2913 0.188669L16.3093 0ZM10.543 30.0142V31.0142H11.478V30.0142V29.0142H10.543V30.0142ZM11.478 30.0142L12.46 30.2032L18.2355 0.188959L17.2535 0L16.2716 -0.188959L10.4961 29.8253L11.478 30.0142ZM17.2535 0V-1H16.3093V0V1H17.2535V0Z" fill="#8AD429" mask="url(#path-51-inside-26_240_4430)"/>
<mask id="path-53-inside-27_240_4430" fill="white">
<path d="M128.151 0L122.385 30.0142H123.32L129.095 0H128.151Z"/>
</mask>
<path d="M128.151 0L122.385 30.0142H123.32L129.095 0H128.151Z" fill="#8AD429"/>
<path d="M128.151 0V-1H127.325L127.169 -0.188669L128.151 0ZM122.385 30.0142L121.403 29.8256L121.174 31.0142H122.385V30.0142ZM123.32 30.0142V31.0142H124.146L124.302 30.2032L123.32 30.0142ZM129.095 0L130.077 0.188959L130.306 -1H129.095V0ZM128.151 0L127.169 -0.188669L121.403 29.8256L122.385 30.0142L123.367 30.2029L129.133 0.188669L128.151 0ZM122.385 30.0142V31.0142H123.32V30.0142V29.0142H122.385V30.0142ZM123.32 30.0142L124.302 30.2032L130.077 0.188959L129.095 0L128.113 -0.188959L122.338 29.8253L123.32 30.0142ZM129.095 0V-1H128.151V0V1H129.095V0Z" fill="#8AD429" mask="url(#path-53-inside-27_240_4430)"/>
<mask id="path-55-inside-28_240_4430" fill="white">
<path d="M11.047 0L5.27148 30.0142H6.21573L11.9821 0H11.047Z"/>
</mask>
<path d="M11.047 0L5.27148 30.0142H6.21573L11.9821 0H11.047Z" fill="#8AD429"/>
<path d="M11.047 0V-1H10.2211L10.065 -0.188959L11.047 0ZM5.27148 30.0142L4.2895 29.8253L4.06071 31.0142H5.27148V30.0142ZM6.21573 30.0142V31.0142H7.0419L7.19777 30.2029L6.21573 30.0142ZM11.9821 0L12.9641 0.188669L13.1925 -1H11.9821V0ZM11.047 0L10.065 -0.188959L4.2895 29.8253L5.27148 30.0142L6.25347 30.2032L12.029 0.188959L11.047 0ZM5.27148 30.0142V31.0142H6.21573V30.0142V29.0142H5.27148V30.0142ZM6.21573 30.0142L7.19777 30.2029L12.9641 0.188669L11.9821 0L11 -0.188669L5.23369 29.8256L6.21573 30.0142ZM11.9821 0V-1H11.047V0V1H11.9821V0Z" fill="#8AD429" mask="url(#path-55-inside-28_240_4430)"/>
<mask id="path-57-inside-29_240_4430" fill="white">
<path d="M122.889 0L117.113 30.0142H118.058L123.824 0H122.889Z"/>
</mask>
<path d="M122.889 0L117.113 30.0142H118.058L123.824 0H122.889Z" fill="#8AD429"/>
<path d="M122.889 0V-1H122.063L121.907 -0.188959L122.889 0ZM117.113 30.0142L116.131 29.8253L115.903 31.0142H117.113V30.0142ZM118.058 30.0142V31.0142H118.884L119.04 30.2029L118.058 30.0142ZM123.824 0L124.806 0.188669L125.034 -1H123.824V0ZM122.889 0L121.907 -0.188959L116.131 29.8253L117.113 30.0142L118.095 30.2032L123.871 0.188959L122.889 0ZM117.113 30.0142V31.0142H118.058V30.0142V29.0142H117.113V30.0142ZM118.058 30.0142L119.04 30.2029L124.806 0.188669L123.824 0L122.842 -0.188669L117.075 29.8256L118.058 30.0142ZM123.824 0V-1H122.889V0V1H123.824V0Z" fill="#8AD429" mask="url(#path-57-inside-29_240_4430)"/>
<mask id="path-59-inside-30_240_4430" fill="white">
<path d="M5.76633 0L0 30.0142H0.935081L6.71058 0H5.76633Z"/>
</mask>
<path d="M5.76633 0L0 30.0142H0.935081L6.71058 0H5.76633Z" fill="#8AD429"/>
<path d="M5.76633 0V-1H4.94016L4.78429 -0.188669L5.76633 0ZM0 30.0142L-0.982041 29.8256L-1.21041 31.0142H0V30.0142ZM0.935081 30.0142V31.0142H1.761L1.91707 30.2032L0.935081 30.0142ZM6.71058 0L7.69256 0.188959L7.92135 -1H6.71058V0ZM5.76633 0L4.78429 -0.188669L-0.982041 29.8256L0 30.0142L0.982041 30.2029L6.74837 0.188669L5.76633 0ZM0 30.0142V31.0142H0.935081V30.0142V29.0142H0V30.0142ZM0.935081 30.0142L1.91707 30.2032L7.69256 0.188959L6.71058 0L5.72859 -0.188959L-0.0469045 29.8253L0.935081 30.0142ZM6.71058 0V-1H5.76633V0V1H6.71058V0Z" fill="#8AD429" mask="url(#path-59-inside-30_240_4430)"/>
<mask id="path-61-inside-31_240_4430" fill="white">
<path d="M117.61 0L111.844 30.0142H112.779L118.554 0H117.61Z"/>
</mask>
<path d="M117.61 0L111.844 30.0142H112.779L118.554 0H117.61Z" fill="#8AD429"/>
<path d="M117.61 0V-1H116.784L116.628 -0.188669L117.61 0ZM111.844 30.0142L110.862 29.8256L110.633 31.0142H111.844V30.0142ZM112.779 30.0142V31.0142H113.605L113.761 30.2032L112.779 30.0142ZM118.554 0L119.536 0.188959L119.765 -1H118.554V0ZM117.61 0L116.628 -0.188669L110.862 29.8256L111.844 30.0142L112.826 30.2029L118.592 0.188669L117.61 0ZM111.844 30.0142V31.0142H112.779V30.0142V29.0142H111.844V30.0142ZM112.779 30.0142L113.761 30.2032L119.536 0.188959L118.554 0L117.572 -0.188959L111.797 29.8253L112.779 30.0142ZM118.554 0V-1H117.61V0V1H118.554V0Z" fill="#8AD429" mask="url(#path-61-inside-31_240_4430)"/>
<mask id="path-63-inside-32_240_4430" fill="white">
<path d="M90.5294 0L84.7539 30.0142H85.6982L91.4736 0H90.5294Z"/>
</mask>
<path d="M90.5294 0L84.7539 30.0142H85.6982L91.4736 0H90.5294Z" fill="#8AD429"/>
<path d="M90.5294 0V-1H89.7035L89.5474 -0.188958L90.5294 0ZM84.7539 30.0142L83.7719 29.8253L83.5431 31.0142H84.7539V30.0142ZM85.6982 30.0142V31.0142H86.5241L86.6801 30.2032L85.6982 30.0142ZM91.4736 0L92.4556 0.188958L92.6844 -1H91.4736V0ZM90.5294 0L89.5474 -0.188958L83.7719 29.8253L84.7539 30.0142L85.7359 30.2032L91.5114 0.188958L90.5294 0ZM84.7539 30.0142V31.0142H85.6982V30.0142V29.0142H84.7539V30.0142ZM85.6982 30.0142L86.6801 30.2032L92.4556 0.188958L91.4736 0L90.4917 -0.188958L84.7162 29.8253L85.6982 30.0142ZM91.4736 0V-1H90.5294V0V1H91.4736V0Z" fill="#8AD429" mask="url(#path-63-inside-32_240_4430)"/>
<mask id="path-65-inside-33_240_4430" fill="white">
<path d="M202.371 0L196.596 30.0142H197.54L203.315 0H202.371Z"/>
</mask>
<path d="M202.371 0L196.596 30.0142H197.54L203.315 0H202.371Z" fill="#8AD429"/>
<path d="M202.371 0V-1H201.545L201.389 -0.188958L202.371 0ZM196.596 30.0142L195.614 29.8253L195.385 31.0142H196.596V30.0142ZM197.54 30.0142V31.0142H198.366L198.522 30.2032L197.54 30.0142ZM203.315 0L204.297 0.188958L204.526 -1H203.315V0ZM202.371 0L201.389 -0.188958L195.614 29.8253L196.596 30.0142L197.578 30.2032L203.353 0.188958L202.371 0ZM196.596 30.0142V31.0142H197.54V30.0142V29.0142H196.596V30.0142ZM197.54 30.0142L198.522 30.2032L204.297 0.188958L203.315 0L202.333 -0.188958L196.558 29.8253L197.54 30.0142ZM203.315 0V-1H202.371V0V1H203.315V0Z" fill="#8AD429" mask="url(#path-65-inside-33_240_4430)"/>
<mask id="path-67-inside-34_240_4430" fill="white">
<path d="M240.076 0L234.301 30.0142H235.245L241.021 0H240.076Z"/>
</mask>
<path d="M240.076 0L234.301 30.0142H235.245L241.021 0H240.076Z" fill="#8AD429"/>
<path d="M240.076 0V-1H239.25L239.094 -0.188958L240.076 0ZM234.301 30.0142L233.319 29.8253L233.09 31.0142H234.301V30.0142ZM235.245 30.0142V31.0142H236.071L236.227 30.2032L235.245 30.0142ZM241.021 0L242.003 0.188958L242.231 -1H241.021V0ZM240.076 0L239.094 -0.188958L233.319 29.8253L234.301 30.0142L235.283 30.2032L241.058 0.188958L240.076 0ZM234.301 30.0142V31.0142H235.245V30.0142V29.0142H234.301V30.0142ZM235.245 30.0142L236.227 30.2032L242.003 0.188958L241.021 0L240.039 -0.188958L234.263 29.8253L235.245 30.0142ZM241.021 0V-1H240.076V0V1H241.021V0Z" fill="#8AD429" mask="url(#path-67-inside-34_240_4430)"/>
<mask id="path-69-inside-35_240_4430" fill="white">
<path d="M85.2579 0L79.4824 30.0142H80.4267L86.2022 0H85.2579Z"/>
</mask>
<path d="M85.2579 0L79.4824 30.0142H80.4267L86.2022 0H85.2579Z" fill="#8AD429"/>
<path d="M85.2579 0V-1H84.432L84.2759 -0.188958L85.2579 0ZM79.4824 30.0142L78.5004 29.8253L78.2717 31.0142H79.4824V30.0142ZM80.4267 30.0142V31.0142H81.2526L81.4087 30.2032L80.4267 30.0142ZM86.2022 0L87.1841 0.188958L87.4129 -1H86.2022V0ZM85.2579 0L84.2759 -0.188958L78.5004 29.8253L79.4824 30.0142L80.4644 30.2032L86.2399 0.188958L85.2579 0ZM79.4824 30.0142V31.0142H80.4267V30.0142V29.0142H79.4824V30.0142ZM80.4267 30.0142L81.4087 30.2032L87.1841 0.188958L86.2022 0L85.2202 -0.188958L79.4447 29.8253L80.4267 30.0142ZM86.2022 0V-1H85.2579V0V1H86.2022V0Z" fill="#8AD429" mask="url(#path-69-inside-35_240_4430)"/>
<mask id="path-71-inside-36_240_4430" fill="white">
<path d="M197.1 0L191.324 30.0142H192.268L198.044 0H197.1Z"/>
</mask>
<path d="M197.1 0L191.324 30.0142H192.268L198.044 0H197.1Z" fill="#8AD429"/>
<path d="M197.1 0V-1H196.274L196.118 -0.188958L197.1 0ZM191.324 30.0142L190.342 29.8253L190.113 31.0142H191.324V30.0142ZM192.268 30.0142V31.0142H193.094L193.25 30.2032L192.268 30.0142ZM198.044 0L199.026 0.188958L199.255 -1H198.044V0ZM197.1 0L196.118 -0.188958L190.342 29.8253L191.324 30.0142L192.306 30.2032L198.082 0.188958L197.1 0ZM191.324 30.0142V31.0142H192.268V30.0142V29.0142H191.324V30.0142ZM192.268 30.0142L193.25 30.2032L199.026 0.188958L198.044 0L197.062 -0.188958L191.286 29.8253L192.268 30.0142ZM198.044 0V-1H197.1V0V1H198.044V0Z" fill="#8AD429" mask="url(#path-71-inside-36_240_4430)"/>
<mask id="path-73-inside-37_240_4430" fill="white">
<path d="M234.807 0L229.031 30.0142H229.975L235.751 0H234.807Z"/>
</mask>
<path d="M234.807 0L229.031 30.0142H229.975L235.751 0H234.807Z" fill="#8AD429"/>
<path d="M234.807 0V-1H233.981L233.825 -0.188958L234.807 0ZM229.031 30.0142L228.049 29.8253L227.82 31.0142H229.031V30.0142ZM229.975 30.0142V31.0142H230.801L230.957 30.2032L229.975 30.0142ZM235.751 0L236.733 0.188958L236.962 -1H235.751V0ZM234.807 0L233.825 -0.188958L228.049 29.8253L229.031 30.0142L230.013 30.2032L235.789 0.188958L234.807 0ZM229.031 30.0142V31.0142H229.975V30.0142V29.0142H229.031V30.0142ZM229.975 30.0142L230.957 30.2032L236.733 0.188958L235.751 0L234.769 -0.188958L228.994 29.8253L229.975 30.0142ZM235.751 0V-1H234.807V0V1H235.751V0Z" fill="#8AD429" mask="url(#path-73-inside-37_240_4430)"/>
<mask id="path-75-inside-38_240_4430" fill="white">
<path d="M95.7989 0L90.0234 30.0142H90.9677L96.7432 0H95.7989Z"/>
</mask>
<path d="M95.7989 0L90.0234 30.0142H90.9677L96.7432 0H95.7989Z" fill="#8AD429"/>
<path d="M95.7989 0V-1H94.973L94.817 -0.188959L95.7989 0ZM90.0234 30.0142L89.0415 29.8253L88.8127 31.0142H90.0234V30.0142ZM90.9677 30.0142V31.0142H91.7936L91.9497 30.2032L90.9677 30.0142ZM96.7432 0L97.7252 0.188959L97.954 -1H96.7432V0ZM95.7989 0L94.817 -0.188959L89.0415 29.8253L90.0234 30.0142L91.0054 30.2032L96.7809 0.188959L95.7989 0ZM90.0234 30.0142V31.0142H90.9677V30.0142V29.0142H90.0234V30.0142ZM90.9677 30.0142L91.9497 30.2032L97.7252 0.188959L96.7432 0L95.7612 -0.188959L89.9857 29.8253L90.9677 30.0142ZM96.7432 0V-1H95.7989V0V1H96.7432V0Z" fill="#8AD429" mask="url(#path-75-inside-38_240_4430)"/>
<mask id="path-77-inside-39_240_4430" fill="white">
<path d="M207.643 0L201.867 30.0142H202.811L208.587 0H207.643Z"/>
</mask>
<path d="M207.643 0L201.867 30.0142H202.811L208.587 0H207.643Z" fill="#8AD429"/>
<path d="M207.643 0V-1H206.817L206.661 -0.188959L207.643 0ZM201.867 30.0142L200.885 29.8253L200.656 31.0142H201.867V30.0142ZM202.811 30.0142V31.0142H203.637L203.793 30.2032L202.811 30.0142ZM208.587 0L209.569 0.188959L209.798 -1H208.587V0ZM207.643 0L206.661 -0.188959L200.885 29.8253L201.867 30.0142L202.849 30.2032L208.625 0.188959L207.643 0ZM201.867 30.0142V31.0142H202.811V30.0142V29.0142H201.867V30.0142ZM202.811 30.0142L203.793 30.2032L209.569 0.188959L208.587 0L207.605 -0.188959L201.829 29.8253L202.811 30.0142ZM208.587 0V-1H207.643V0V1H208.587V0Z" fill="#8AD429" mask="url(#path-77-inside-39_240_4430)"/>
<mask id="path-79-inside-40_240_4430" fill="white">
<path d="M245.348 0L239.572 30.0142H240.517L246.292 0H245.348Z"/>
</mask>
<path d="M245.348 0L239.572 30.0142H240.517L246.292 0H245.348Z" fill="#8AD429"/>
<path d="M245.348 0V-1H244.522L244.366 -0.188959L245.348 0ZM239.572 30.0142L238.59 29.8253L238.361 31.0142H239.572V30.0142ZM240.517 30.0142V31.0142H241.342L241.498 30.2032L240.517 30.0142ZM246.292 0L247.274 0.188959L247.503 -1H246.292V0ZM245.348 0L244.366 -0.188959L238.59 29.8253L239.572 30.0142L240.554 30.2032L246.33 0.188959L245.348 0ZM239.572 30.0142V31.0142H240.517V30.0142V29.0142H239.572V30.0142ZM240.517 30.0142L241.498 30.2032L247.274 0.188959L246.292 0L245.31 -0.188959L239.535 29.8253L240.517 30.0142ZM246.292 0V-1H245.348V0V1H246.292V0Z" fill="#8AD429" mask="url(#path-79-inside-40_240_4430)"/>
<mask id="path-81-inside-41_240_4430" fill="white">
<path d="M266.131 0L260.355 30.0142H261.3L267.075 0H266.131Z"/>
</mask>
<path d="M266.131 0L260.355 30.0142H261.3L267.075 0H266.131Z" fill="#8AD429"/>
<path d="M266.131 0V-1H265.305L265.149 -0.188959L266.131 0ZM260.355 30.0142L259.373 29.8253L259.145 31.0142H260.355V30.0142ZM261.3 30.0142V31.0142H262.126L262.282 30.2032L261.3 30.0142ZM267.075 0L268.057 0.188959L268.286 -1H267.075V0ZM266.131 0L265.149 -0.188959L259.373 29.8253L260.355 30.0142L261.337 30.2032L267.113 0.188959L266.131 0ZM260.355 30.0142V31.0142H261.3V30.0142V29.0142H260.355V30.0142ZM261.3 30.0142L262.282 30.2032L268.057 0.188959L267.075 0L266.093 -0.188959L260.318 29.8253L261.3 30.0142ZM267.075 0V-1H266.131V0V1H267.075V0Z" fill="#8AD429" mask="url(#path-81-inside-41_240_4430)"/>
<mask id="path-83-inside-42_240_4430" fill="white">
<path d="M101.127 0L95.3516 30.0142H96.2958L102.071 0H101.127Z"/>
</mask>
<path d="M101.127 0L95.3516 30.0142H96.2958L102.071 0H101.127Z" fill="#8AD429"/>
<path d="M101.127 0V-1H100.301L100.145 -0.188959L101.127 0ZM95.3516 30.0142L94.3696 29.8253L94.1408 31.0142H95.3516V30.0142ZM96.2958 30.0142V31.0142H97.1217L97.2778 30.2032L96.2958 30.0142ZM102.071 0L103.053 0.188959L103.282 -1H102.071V0ZM101.127 0L100.145 -0.188959L94.3696 29.8253L95.3516 30.0142L96.3335 30.2032L102.109 0.188959L101.127 0ZM95.3516 30.0142V31.0142H96.2958V30.0142V29.0142H95.3516V30.0142ZM96.2958 30.0142L97.2778 30.2032L103.053 0.188959L102.071 0L101.089 -0.188959L95.3138 29.8253L96.2958 30.0142ZM102.071 0V-1H101.127V0V1H102.071V0Z" fill="#8AD429" mask="url(#path-83-inside-42_240_4430)"/>
<mask id="path-85-inside-43_240_4430" fill="white">
<path d="M212.969 0L207.193 30.0142H208.138L213.913 0H212.969Z"/>
</mask>
<path d="M212.969 0L207.193 30.0142H208.138L213.913 0H212.969Z" fill="#8AD429"/>
<path d="M212.969 0V-1H212.143L211.987 -0.188959L212.969 0ZM207.193 30.0142L206.211 29.8253L205.983 31.0142H207.193V30.0142ZM208.138 30.0142V31.0142H208.964L209.12 30.2032L208.138 30.0142ZM213.913 0L214.895 0.188959L215.124 -1H213.913V0ZM212.969 0L211.987 -0.188959L206.211 29.8253L207.193 30.0142L208.175 30.2032L213.951 0.188959L212.969 0ZM207.193 30.0142V31.0142H208.138V30.0142V29.0142H207.193V30.0142ZM208.138 30.0142L209.12 30.2032L214.895 0.188959L213.913 0L212.931 -0.188959L207.156 29.8253L208.138 30.0142ZM213.913 0V-1H212.969V0V1H213.913V0Z" fill="#8AD429" mask="url(#path-85-inside-43_240_4430)"/>
<mask id="path-87-inside-44_240_4430" fill="white">
<path d="M250.674 0L244.898 30.0142H245.843L251.618 0H250.674Z"/>
</mask>
<path d="M250.674 0L244.898 30.0142H245.843L251.618 0H250.674Z" fill="#8AD429"/>
<path d="M250.674 0V-1H249.848L249.692 -0.188959L250.674 0ZM244.898 30.0142L243.916 29.8253L243.688 31.0142H244.898V30.0142ZM245.843 30.0142V31.0142H246.669L246.825 30.2032L245.843 30.0142ZM251.618 0L252.6 0.188959L252.829 -1H251.618V0ZM250.674 0L249.692 -0.188959L243.916 29.8253L244.898 30.0142L245.88 30.2032L251.656 0.188959L250.674 0ZM244.898 30.0142V31.0142H245.843V30.0142V29.0142H244.898V30.0142ZM245.843 30.0142L246.825 30.2032L252.6 0.188959L251.618 0L250.636 -0.188959L244.861 29.8253L245.843 30.0142ZM251.618 0V-1H250.674V0V1H251.618V0Z" fill="#8AD429" mask="url(#path-87-inside-44_240_4430)"/>
<mask id="path-89-inside-45_240_4430" fill="white">
<path d="M271.457 0L265.682 30.0142H266.626L272.401 0H271.457Z"/>
</mask>
<path d="M271.457 0L265.682 30.0142H266.626L272.401 0H271.457Z" fill="#8AD429"/>
<path d="M271.457 0V-1H270.631L270.475 -0.188959L271.457 0ZM265.682 30.0142L264.7 29.8253L264.471 31.0142H265.682V30.0142ZM266.626 30.0142V31.0142H267.452L267.608 30.2032L266.626 30.0142ZM272.401 0L273.383 0.188959L273.612 -1H272.401V0ZM271.457 0L270.475 -0.188959L264.7 29.8253L265.682 30.0142L266.664 30.2032L272.439 0.188959L271.457 0ZM265.682 30.0142V31.0142H266.626V30.0142V29.0142H265.682V30.0142ZM266.626 30.0142L267.608 30.2032L273.383 0.188959L272.401 0L271.419 -0.188959L265.644 29.8253L266.626 30.0142ZM272.401 0V-1H271.457V0V1H272.401V0Z" fill="#8AD429" mask="url(#path-89-inside-45_240_4430)"/>
<mask id="path-91-inside-46_240_4430" fill="white">
<path d="M106.352 0L100.586 30.0142H101.53L107.297 0H106.352Z"/>
</mask>
<path d="M106.352 0L100.586 30.0142H101.53L107.297 0H106.352Z" fill="#8AD429"/>
<path d="M106.352 0V-1H105.526L105.37 -0.188669L106.352 0ZM100.586 30.0142L99.6039 29.8256L99.3755 31.0142H100.586V30.0142ZM101.53 30.0142V31.0142H102.356L102.512 30.2029L101.53 30.0142ZM107.297 0L108.279 0.188669L108.507 -1H107.297V0ZM106.352 0L105.37 -0.188669L99.6039 29.8256L100.586 30.0142L101.568 30.2029L107.334 0.188669L106.352 0ZM100.586 30.0142V31.0142H101.53V30.0142V29.0142H100.586V30.0142ZM101.53 30.0142L102.512 30.2029L108.279 0.188669L107.297 0L106.314 -0.188669L100.548 29.8256L101.53 30.0142ZM107.297 0V-1H106.352V0V1H107.297V0Z" fill="#8AD429" mask="url(#path-91-inside-46_240_4430)"/>
<mask id="path-93-inside-47_240_4430" fill="white">
<path d="M218.194 0L212.428 30.0142H213.372L219.138 0H218.194Z"/>
</mask>
<path d="M218.194 0L212.428 30.0142H213.372L219.138 0H218.194Z" fill="#8AD429"/>
<path d="M218.194 0V-1H217.368L217.212 -0.188669L218.194 0ZM212.428 30.0142L211.446 29.8256L211.217 31.0142H212.428V30.0142ZM213.372 30.0142V31.0142H214.198L214.354 30.2029L213.372 30.0142ZM219.138 0L220.12 0.188669L220.349 -1H219.138V0ZM218.194 0L217.212 -0.188669L211.446 29.8256L212.428 30.0142L213.41 30.2029L219.176 0.188669L218.194 0ZM212.428 30.0142V31.0142H213.372V30.0142V29.0142H212.428V30.0142ZM213.372 30.0142L214.354 30.2029L220.12 0.188669L219.138 0L218.156 -0.188669L212.39 29.8256L213.372 30.0142ZM219.138 0V-1H218.194V0V1H219.138V0Z" fill="#8AD429" mask="url(#path-93-inside-47_240_4430)"/>
<mask id="path-95-inside-48_240_4430" fill="white">
<path d="M255.901 0L250.135 30.0142H251.079L256.845 0H255.901Z"/>
</mask>
<path d="M255.901 0L250.135 30.0142H251.079L256.845 0H255.901Z" fill="#8AD429"/>
<path d="M255.901 0V-1H255.075L254.919 -0.188669L255.901 0ZM250.135 30.0142L249.153 29.8256L248.924 31.0142H250.135V30.0142ZM251.079 30.0142V31.0142H251.905L252.061 30.2029L251.079 30.0142ZM256.845 0L257.827 0.188669L258.056 -1H256.845V0ZM255.901 0L254.919 -0.188669L249.153 29.8256L250.135 30.0142L251.117 30.2029L256.883 0.188669L255.901 0ZM250.135 30.0142V31.0142H251.079V30.0142V29.0142H250.135V30.0142ZM251.079 30.0142L252.061 30.2029L257.827 0.188669L256.845 0L255.863 -0.188669L250.097 29.8256L251.079 30.0142ZM256.845 0V-1H255.901V0V1H256.845V0Z" fill="#8AD429" mask="url(#path-95-inside-48_240_4430)"/>
<mask id="path-97-inside-49_240_4430" fill="white">
<path d="M111.632 0L105.865 30.0142H106.809L112.576 0H111.632Z"/>
</mask>
<path d="M111.632 0L105.865 30.0142H106.809L112.576 0H111.632Z" fill="#8AD429"/>
<path d="M111.632 0V-1H110.805L110.65 -0.188669L111.632 0ZM105.865 30.0142L104.883 29.8256L104.655 31.0142H105.865V30.0142ZM106.809 30.0142V31.0142H107.636L107.792 30.2029L106.809 30.0142ZM112.576 0L113.558 0.188669L113.786 -1H112.576V0ZM111.632 0L110.65 -0.188669L104.883 29.8256L105.865 30.0142L106.847 30.2029L112.614 0.188669L111.632 0ZM105.865 30.0142V31.0142H106.809V30.0142V29.0142H105.865V30.0142ZM106.809 30.0142L107.792 30.2029L113.558 0.188669L112.576 0L111.594 -0.188669L105.827 29.8256L106.809 30.0142ZM112.576 0V-1H111.632V0V1H112.576V0Z" fill="#8AD429" mask="url(#path-97-inside-49_240_4430)"/>
<mask id="path-99-inside-50_240_4430" fill="white">
<path d="M223.475 0L217.709 30.0142H218.653L224.42 0H223.475Z"/>
</mask>
<path d="M223.475 0L217.709 30.0142H218.653L224.42 0H223.475Z" fill="#8AD429"/>
<path d="M223.475 0V-1H222.649L222.493 -0.188669L223.475 0ZM217.709 30.0142L216.727 29.8256L216.499 31.0142H217.709V30.0142ZM218.653 30.0142V31.0142H219.479L219.635 30.2029L218.653 30.0142ZM224.42 0L225.402 0.188669L225.63 -1H224.42V0ZM223.475 0L222.493 -0.188669L216.727 29.8256L217.709 30.0142L218.691 30.2029L224.457 0.188669L223.475 0ZM217.709 30.0142V31.0142H218.653V30.0142V29.0142H217.709V30.0142ZM218.653 30.0142L219.635 30.2029L225.402 0.188669L224.42 0L223.438 -0.188669L217.671 29.8256L218.653 30.0142ZM224.42 0V-1H223.475V0V1H224.42V0Z" fill="#8AD429" mask="url(#path-99-inside-50_240_4430)"/>
<mask id="path-101-inside-51_240_4430" fill="white">
<path d="M261.18 0L255.414 30.0142H256.358L262.125 0H261.18Z"/>
</mask>
<path d="M261.18 0L255.414 30.0142H256.358L262.125 0H261.18Z" fill="#8AD429"/>
<path d="M261.18 0V-1H260.354L260.198 -0.188669L261.18 0ZM255.414 30.0142L254.432 29.8256L254.204 31.0142H255.414V30.0142ZM256.358 30.0142V31.0142H257.184L257.34 30.2029L256.358 30.0142ZM262.125 0L263.107 0.188669L263.335 -1H262.125V0ZM261.18 0L260.198 -0.188669L254.432 29.8256L255.414 30.0142L256.396 30.2029L262.162 0.188669L261.18 0ZM255.414 30.0142V31.0142H256.358V30.0142V29.0142H255.414V30.0142ZM256.358 30.0142L257.34 30.2029L263.107 0.188669L262.125 0L261.143 -0.188669L255.376 29.8256L256.358 30.0142ZM262.125 0V-1H261.18V0V1H262.125V0Z" fill="#8AD429" mask="url(#path-101-inside-51_240_4430)"/>
</svg>
