<svg width="1201" height="31" viewBox="0 0 1201 31" fill="none" xmlns="http://www.w3.org/2000/svg">
<path d="M79.903 -3.05176e-05L74.1367 30.0142H75.081L80.8473 -3.05176e-05H79.903Z" fill="#FEC311"/>
<path d="M191.747 -3.05176e-05L185.98 30.0142H186.925L192.691 -3.05176e-05H191.747Z" fill="#FEC311"/>
<path d="M229.452 -3.05176e-05L223.686 30.0142H224.63L230.396 -3.05176e-05H229.452Z" fill="#FEC311"/>
<path d="M74.5216 -3.05176e-05L68.7461 30.0142H69.6903L75.4658 -3.05176e-05H74.5216Z" fill="#FEC311"/>
<path d="M186.365 -3.05176e-05L180.59 30.0142H181.534L187.31 -3.05176e-05H186.365Z" fill="#FEC311"/>
<path d="M69.3152 -3.05176e-05L63.5488 30.0142H64.4931L70.2594 -3.05176e-05H69.3152Z" fill="#FEC311"/>
<path d="M181.159 -3.05176e-05L175.393 30.0142H176.337L182.103 -3.05176e-05H181.159Z" fill="#FEC311"/>
<path d="M63.9987 -3.05176e-05L58.2324 30.0142H59.1675L64.943 -3.05176e-05H63.9987Z" fill="#FEC311"/>
<path d="M175.841 -3.05176e-05L170.074 30.0142H171.009L176.785 -3.05176e-05H175.841Z" fill="#FEC311"/>
<path d="M58.6993 -3.05176e-05L52.9238 30.0142H53.8681L59.6436 -3.05176e-05H58.6993Z" fill="#FEC311"/>
<path d="M170.541 -3.05176e-05L164.766 30.0142H165.71L171.485 -3.05176e-05H170.541Z" fill="#FEC311"/>
<path d="M53.3829 -3.05176e-05L47.6074 30.0142H47.6166H48.5517L54.3272 -3.05176e-05H53.3829Z" fill="#FEC311"/>
<path d="M165.225 -3.05176e-05L159.449 30.0142H159.458H160.393L166.169 -3.05176e-05H165.225Z" fill="#FEC311"/>
<path d="M48.1192 -3.05176e-05L42.3438 30.0142H43.288L49.0635 -3.05176e-05H48.1192Z" fill="#FEC311"/>
<path d="M159.963 -3.05176e-05L154.188 30.0142H155.132L160.907 -3.05176e-05H159.963Z" fill="#FEC311"/>
<path d="M42.7853 -3.05176e-05L37.0098 30.0142H37.954L43.7295 -3.05176e-05H42.7853Z" fill="#FEC311"/>
<path d="M154.627 -3.05176e-05L148.852 30.0142H149.796L155.571 -3.05176e-05H154.627Z" fill="#FEC311"/>
<path d="M37.4948 -3.05176e-05L31.7285 30.0142H32.6728L38.4391 -3.05176e-05H37.4948Z" fill="#FEC311"/>
<path d="M149.339 -3.05176e-05L143.572 30.0142H144.517L150.283 -3.05176e-05H149.339Z" fill="#FEC311"/>
<path d="M32.1603 -3.05176e-05L26.3848 30.0142H26.3939H27.329L33.1045 -3.05176e-05H32.1603Z" fill="#FEC311"/>
<path d="M144.002 -3.05176e-05L138.227 30.0142H138.236H139.171L144.946 -3.05176e-05H144.002Z" fill="#FEC311"/>
<path d="M27.0528 -3.05176e-05L21.2773 30.0142H22.2216L27.9879 -3.05176e-05H27.0528Z" fill="#FEC311"/>
<path d="M138.897 -3.05176e-05L133.121 30.0142H134.065L139.832 -3.05176e-05H138.897Z" fill="#FEC311"/>
<path d="M21.6817 -3.05176e-05L15.9062 30.0142H16.8505L22.626 -3.05176e-05H21.6817Z" fill="#FEC311"/>
<path d="M133.524 -3.05176e-05L127.748 30.0142H128.692L134.468 -3.05176e-05H133.524Z" fill="#FEC311"/>
<path d="M16.3093 -3.05176e-05L10.543 30.0142H11.478L17.2535 -3.05176e-05H16.3093Z" fill="#FEC311"/>
<path d="M128.151 -3.05176e-05L122.385 30.0142H123.32L129.095 -3.05176e-05H128.151Z" fill="#FEC311"/>
<path d="M11.047 -3.05176e-05L5.27148 30.0142H6.21573L11.9821 -3.05176e-05H11.047Z" fill="#FEC311"/>
<path d="M122.889 -3.05176e-05L117.113 30.0142H118.058L123.824 -3.05176e-05H122.889Z" fill="#FEC311"/>
<path d="M5.76633 3.05176e-05L0 30.0143H0.935081L6.71058 3.05176e-05H5.76633Z" fill="#FEC311"/>
<path d="M117.61 -3.05176e-05L111.844 30.0142H112.779L118.554 -3.05176e-05H117.61Z" fill="#FEC311"/>
<path d="M90.5294 -3.05176e-05L84.7539 30.0142H85.6982L91.4736 -3.05176e-05H90.5294Z" fill="#FEC311"/>
<path d="M202.371 -3.05176e-05L196.596 30.0142H197.54L203.315 -3.05176e-05H202.371Z" fill="#FEC311"/>
<path d="M240.076 -3.05176e-05L234.301 30.0142H235.245L241.021 -3.05176e-05H240.076Z" fill="#FEC311"/>
<path d="M85.2579 -3.05176e-05L79.4824 30.0142H80.4267L86.2022 -3.05176e-05H85.2579Z" fill="#FEC311"/>
<path d="M197.1 -3.05176e-05L191.324 30.0142H192.268L198.044 -3.05176e-05H197.1Z" fill="#FEC311"/>
<path d="M234.807 -3.05176e-05L229.031 30.0142H229.975L235.751 -3.05176e-05H234.807Z" fill="#FEC311"/>
<path d="M95.7989 -3.05176e-05L90.0234 30.0142H90.9677L96.7432 -3.05176e-05H95.7989Z" fill="#FEC311"/>
<path d="M207.643 -3.05176e-05L201.867 30.0142H202.811L208.587 -3.05176e-05H207.643Z" fill="#FEC311"/>
<path d="M245.348 -3.05176e-05L239.572 30.0142H240.517L246.292 -3.05176e-05H245.348Z" fill="#FEC311"/>
<path d="M266.131 -3.05176e-05L260.355 30.0142H261.3L267.075 -3.05176e-05H266.131Z" fill="#FEC311"/>
<path d="M101.127 -3.05176e-05L95.3516 30.0142H96.2958L102.071 -3.05176e-05H101.127Z" fill="#FEC311"/>
<path d="M212.969 -3.05176e-05L207.193 30.0142H208.138L213.913 -3.05176e-05H212.969Z" fill="#FEC311"/>
<path d="M250.674 -3.05176e-05L244.898 30.0142H245.843L251.618 -3.05176e-05H250.674Z" fill="#FEC311"/>
<path d="M271.457 -3.05176e-05L265.682 30.0142H266.626L272.401 -3.05176e-05H271.457Z" fill="#FEC311"/>
<path d="M106.352 -3.05176e-05L100.586 30.0142H101.53L107.297 -3.05176e-05H106.352Z" fill="#FEC311"/>
<path d="M218.194 -3.05176e-05L212.428 30.0142H213.372L219.138 -3.05176e-05H218.194Z" fill="#FEC311"/>
<path d="M255.901 -3.05176e-05L250.135 30.0142H251.079L256.845 -3.05176e-05H255.901Z" fill="#FEC311"/>
<path d="M276.682 -3.05176e-05L270.916 30.0142H271.86L277.627 -3.05176e-05H276.682Z" fill="#FEC311"/>
<path d="M282.624 -3.05176e-05L276.857 30.0142H277.802L283.568 -3.05176e-05H282.624Z" fill="#FEC311"/>
<path d="M288.563 -3.05176e-05L282.797 30.0142H283.741L289.507 -3.05176e-05H288.563Z" fill="#FEC311"/>
<path d="M294.505 -3.05176e-05L288.738 30.0142H289.683L295.449 -3.05176e-05H294.505Z" fill="#FEC311"/>
<path d="M300.444 -3.05176e-05L294.678 30.0142H295.622L301.388 -3.05176e-05H300.444Z" fill="#FEC311"/>
<path d="M306.385 -3.05176e-05L300.619 30.0142H301.563L307.33 -3.05176e-05H306.385Z" fill="#FEC311"/>
<path d="M312.325 -3.05176e-05L306.559 30.0142H307.503L313.269 -3.05176e-05H312.325Z" fill="#FEC311"/>
<path d="M318.266 -3.05176e-05L312.5 30.0142H313.444L319.211 -3.05176e-05H318.266Z" fill="#FEC311"/>
<path d="M324.208 -3.05176e-05L318.441 30.0142H319.386L325.152 -3.05176e-05H324.208Z" fill="#FEC311"/>
<path d="M330.147 -3.05176e-05L324.381 30.0142H325.325L331.091 -3.05176e-05H330.147Z" fill="#FEC311"/>
<path d="M336.089 -3.05176e-05L330.322 30.0142H331.267L337.033 -3.05176e-05H336.089Z" fill="#FEC311"/>
<path d="M342.028 -3.05176e-05L336.262 30.0142H337.206L342.972 -3.05176e-05H342.028Z" fill="#FEC311"/>
<path d="M347.969 -3.05176e-05L342.203 30.0142H343.147L348.914 -3.05176e-05H347.969Z" fill="#FEC311"/>
<path d="M353.909 -3.05176e-05L348.143 30.0142H349.087L354.853 -3.05176e-05H353.909Z" fill="#FEC311"/>
<path d="M359.85 -3.05176e-05L354.084 30.0142H355.028L360.795 -3.05176e-05H359.85Z" fill="#FEC311"/>
<path d="M365.79 -3.05176e-05L360.023 30.0142H360.968L366.734 -3.05176e-05H365.79Z" fill="#FEC311"/>
<path d="M371.731 -3.05176e-05L365.965 30.0142H366.909L372.675 -3.05176e-05H371.731Z" fill="#FEC311"/>
<path d="M377.671 -3.05176e-05L371.904 30.0142H372.849L378.615 -3.05176e-05H377.671Z" fill="#FEC311"/>
<path d="M383.612 -3.05176e-05L377.846 30.0142H378.79L384.556 -3.05176e-05H383.612Z" fill="#FEC311"/>
<path d="M389.551 -3.05176e-05L383.785 30.0142H384.729L390.496 -3.05176e-05H389.551Z" fill="#FEC311"/>
<path d="M395.493 -3.05176e-05L389.727 30.0142H390.671L396.437 -3.05176e-05H395.493Z" fill="#FEC311"/>
<path d="M401.432 -3.05176e-05L395.666 30.0142H396.61L402.377 -3.05176e-05H401.432Z" fill="#FEC311"/>
<path d="M407.374 -3.05176e-05L401.607 30.0142H402.552L408.318 -3.05176e-05H407.374Z" fill="#FEC311"/>
<path d="M413.313 -3.05176e-05L407.547 30.0142H408.491L414.257 -3.05176e-05H413.313Z" fill="#FEC311"/>
<path d="M419.255 -3.05176e-05L413.488 30.0142H414.433L420.199 -3.05176e-05H419.255Z" fill="#FEC311"/>
<path d="M425.196 -3.05176e-05L419.43 30.0142H420.374L426.14 -3.05176e-05H425.196Z" fill="#FEC311"/>
<path d="M430.866 -3.05176e-05L425.1 30.0142H426.044L431.81 -3.05176e-05H430.866Z" fill="#FEC311"/>
<path d="M436.538 -3.05176e-05L430.771 30.0142H431.716L437.482 -3.05176e-05H436.538Z" fill="#FEC311"/>
<path d="M442.21 -3.05176e-05L436.443 30.0142H437.388L443.154 -3.05176e-05H442.21Z" fill="#FEC311"/>
<path d="M447.88 -3.05176e-05L442.113 30.0142H443.058L448.824 -3.05176e-05H447.88Z" fill="#FEC311"/>
<path d="M453.551 -3.05176e-05L447.785 30.0142H448.729L454.496 -3.05176e-05H453.551Z" fill="#FEC311"/>
<path d="M459.223 -3.05176e-05L453.457 30.0142H454.401L460.168 -3.05176e-05H459.223Z" fill="#FEC311"/>
<path d="M464.893 -3.05176e-05L459.127 30.0142H460.071L465.838 -3.05176e-05H464.893Z" fill="#FEC311"/>
<path d="M470.565 -3.05176e-05L464.799 30.0142H465.743L471.509 -3.05176e-05H470.565Z" fill="#FEC311"/>
<path d="M476.237 -3.05176e-05L470.471 30.0142H471.415L477.181 -3.05176e-05H476.237Z" fill="#FEC311"/>
<path d="M481.907 -3.05176e-05L476.141 30.0142H477.085L482.851 -3.05176e-05H481.907Z" fill="#FEC311"/>
<path d="M487.579 -3.05176e-05L481.812 30.0142H482.757L488.523 -3.05176e-05H487.579Z" fill="#FEC311"/>
<path d="M493.249 -3.05176e-05L487.482 30.0142H488.427L494.193 -3.05176e-05H493.249Z" fill="#FEC311"/>
<path d="M498.425 -3.05176e-05L492.658 30.0142H493.602L499.369 -3.05176e-05H498.425Z" fill="#FEC311"/>
<path d="M503.6 -3.05176e-05L497.834 30.0142H498.778L504.545 -3.05176e-05H503.6Z" fill="#FEC311"/>
<path d="M508.776 -3.05176e-05L503.01 30.0142H503.954L509.72 -3.05176e-05H508.776Z" fill="#FEC311"/>
<path d="M513.952 -3.05176e-05L508.186 30.0142H509.13L514.896 -3.05176e-05H513.952Z" fill="#FEC311"/>
<path d="M519.126 -3.05176e-05L513.359 30.0142H514.304L520.07 -3.05176e-05H519.126Z" fill="#FEC311"/>
<path d="M524.301 -3.05176e-05L518.535 30.0142H519.479L525.246 -3.05176e-05H524.301Z" fill="#FEC311"/>
<path d="M529.477 -3.05176e-05L523.711 30.0142H524.655L530.422 -3.05176e-05H529.477Z" fill="#FEC311"/>
<path d="M534.653 -3.05176e-05L528.887 30.0142H529.831L535.597 -3.05176e-05H534.653Z" fill="#FEC311"/>
<path d="M539.829 -3.05176e-05L534.062 30.0142H535.007L540.773 -3.05176e-05H539.829Z" fill="#FEC311"/>
<path d="M545.003 -3.05176e-05L539.236 30.0142H540.181L545.947 -3.05176e-05H545.003Z" fill="#FEC311"/>
<path d="M550.178 -3.05176e-05L544.412 30.0142H545.356L551.123 -3.05176e-05H550.178Z" fill="#FEC311"/>
<path d="M555.354 -3.05176e-05L549.588 30.0142H550.532L556.298 -3.05176e-05H555.354Z" fill="#FEC311"/>
<path d="M560.53 -3.05176e-05L554.764 30.0142H555.708L561.474 -3.05176e-05H560.53Z" fill="#FEC311"/>
<path d="M565.706 -3.05176e-05L559.939 30.0142H560.884L566.65 -3.05176e-05H565.706Z" fill="#FEC311"/>
<path d="M570.88 -3.05176e-05L565.113 30.0142H566.058L571.824 -3.05176e-05H570.88Z" fill="#FEC311"/>
<path d="M576.055 0L570.289 30.0142H571.233L577 0H576.055Z" fill="#FEC311"/>
<path d="M580.766 0L575 30.0142H575.944L581.711 0H580.766Z" fill="#FEC311"/>
<path d="M585.477 0L579.711 30.0142H580.655L586.422 0H585.477Z" fill="#FEC311"/>
<path d="M590.188 0L584.422 30.0142H585.366L591.132 0H590.188Z" fill="#FEC311"/>
<path d="M594.897 0L589.131 30.0142H590.075L595.841 0H594.897Z" fill="#FEC311"/>
<path d="M599.608 0L593.842 30.0142H594.786L600.552 0H599.608Z" fill="#FEC311"/>
<path d="M604.319 0L598.553 30.0142H599.497L605.263 0H604.319Z" fill="#FEC311"/>
<path d="M609.03 0L603.264 30.0142H604.208L609.974 0H609.03Z" fill="#FEC311"/>
<path d="M613.741 0L607.975 30.0142H608.919L614.685 0H613.741Z" fill="#FEC311"/>
<path d="M618.45 0L612.684 30.0142H613.628L619.394 0H618.45Z" fill="#FEC311"/>
<path d="M623.161 0L617.395 30.0142H618.339L624.105 0H623.161Z" fill="#FEC311"/>
<path d="M627.872 0L622.105 30.0142H623.05L628.816 0H627.872Z" fill="#FEC311"/>
<path d="M632.583 0L626.816 30.0142H627.761L633.527 0H632.583Z" fill="#FEC311"/>
<path d="M637.294 0L631.527 30.0142H632.472L638.238 0H637.294Z" fill="#FEC311"/>
<path d="M642.005 0L636.238 30.0142H637.183L642.949 0H642.005Z" fill="#FEC311"/>
<path d="M646.714 0L640.947 30.0142H641.892L647.658 0H646.714Z" fill="#FEC311"/>
<path d="M651.425 0L645.658 30.0142H646.602L652.369 0H651.425Z" fill="#FEC311"/>
<path d="M656.135 0L650.369 30.0142H651.313L657.08 0H656.135Z" fill="#FEC311"/>
<path d="M660.846 0L655.08 30.0142H656.024L661.791 0H660.846Z" fill="#FEC311"/>
<path d="M665.557 0L659.791 30.0142H660.735L666.502 0H665.557Z" fill="#FEC311"/>
<path d="M670.266 0L664.5 30.0142H665.444L671.211 0H670.266Z" fill="#FEC311"/>
<path d="M674.977 0L669.211 30.0142H670.155L675.922 0H674.977Z" fill="#FEC311"/>
<path d="M679.688 0L673.922 30.0142H674.866L680.632 0H679.688Z" fill="#FEC311"/>
<path d="M684.399 0L678.633 30.0142H679.577L685.343 0H684.399Z" fill="#FEC311"/>
<path d="M688.766 0L683 30.0142H683.944L689.711 0H688.766Z" fill="#FEC311"/>
<path d="M693.134 0L687.367 30.0142H688.311L694.078 0H693.134Z" fill="#FEC311"/>
<path d="M697.501 0L691.734 30.0142H692.679L698.445 0H697.501Z" fill="#FEC311"/>
<path d="M701.868 0L696.102 30.0142H697.046L702.812 0H701.868Z" fill="#FEC311"/>
<path d="M706.235 0L700.469 30.0142H701.413L707.179 0H706.235Z" fill="#FEC311"/>
<path d="M710.604 0L704.838 30.0142H705.782L711.548 0H710.604Z" fill="#FEC311"/>
<path d="M714.971 0L709.205 30.0142H710.149L715.916 0H714.971Z" fill="#FEC311"/>
<path d="M719.339 0L713.572 30.0142H714.517L720.283 0H719.339Z" fill="#FEC311"/>
<path d="M723.706 0L717.939 30.0142H718.884L724.65 0H723.706Z" fill="#FEC311"/>
<path d="M728.073 0L722.307 30.0142H723.251L729.017 0H728.073Z" fill="#FEC311"/>
<path d="M732.44 0L726.674 30.0142H727.618L733.384 0H732.44Z" fill="#FEC311"/>
<path d="M736.807 0L731.041 30.0142H731.985L737.752 0H736.807Z" fill="#FEC311"/>
<path d="M741.176 0L735.41 30.0142H736.354L742.121 0H741.176Z" fill="#FEC311"/>
<path d="M745.544 0L739.777 30.0142H740.722L746.488 0H745.544Z" fill="#FEC311"/>
<path d="M749.911 0L744.145 30.0142H745.089L750.855 0H749.911Z" fill="#FEC311"/>
<path d="M754.278 0L748.512 30.0142H749.456L755.222 0H754.278Z" fill="#FEC311"/>
<path d="M758.645 0L752.879 30.0142H753.823L759.589 0H758.645Z" fill="#FEC311"/>
<path d="M763.012 0L757.246 30.0142H758.19L763.957 0H763.012Z" fill="#FEC311"/>
<path d="M767.38 0L761.613 30.0142H762.558L768.324 0H767.38Z" fill="#FEC311"/>
<path d="M771.747 0L765.98 30.0142H766.925L772.691 0H771.747Z" fill="#FEC311"/>
<path d="M776.114 0L770.348 30.0142H771.292L777.058 0H776.114Z" fill="#FEC311"/>
<path d="M780.483 0L774.717 30.0142H775.661L781.427 0H780.483Z" fill="#FEC311"/>
<path d="M784.85 0L779.084 30.0142H780.028L785.795 0H784.85Z" fill="#FEC311"/>
<path d="M789.217 0L783.451 30.0142H784.395L790.162 0H789.217Z" fill="#FEC311"/>
<path d="M793.585 0L787.818 30.0142H788.763L794.529 0H793.585Z" fill="#FEC311"/>
<path d="M797.952 0L792.186 30.0142H793.13L798.896 0H797.952Z" fill="#FEC311"/>
<path d="M802.319 0L796.553 30.0142H797.497L803.263 0H802.319Z" fill="#FEC311"/>
<path d="M806.686 0L800.92 30.0142H801.864L807.63 0H806.686Z" fill="#FEC311"/>
<path d="M811.055 0L805.289 30.0142H806.233L812 0H811.055Z" fill="#FEC311"/>
<path d="M815.423 0L809.656 30.0142H810.6L816.367 0H815.423Z" fill="#FEC311"/>
<path d="M819.79 0L814.023 30.0142H814.968L820.734 0H819.79Z" fill="#FEC311"/>
<path d="M824.157 0L818.391 30.0142H819.335L825.101 0H824.157Z" fill="#FEC311"/>
<path d="M828.524 0L822.758 30.0142H823.702L829.468 0H828.524Z" fill="#FEC311"/>
<path d="M832.891 0L827.125 30.0142H828.069L833.836 0H832.891Z" fill="#FEC311"/>
<path d="M837.259 0L831.492 30.0142H832.436L838.203 0H837.259Z" fill="#FEC311"/>
<path d="M841.626 0L835.859 30.0142H836.804L842.57 0H841.626Z" fill="#FEC311"/>
<path d="M845.993 0L840.227 30.0142H841.171L846.937 0H845.993Z" fill="#FEC311"/>
<path d="M850.362 0L844.596 30.0142H845.54L851.306 0H850.362Z" fill="#FEC311"/>
<path d="M854.729 0L848.963 30.0142H849.907L855.673 0H854.729Z" fill="#FEC311"/>
<path d="M859.096 0L853.33 30.0142H854.274L860.041 0H859.096Z" fill="#FEC311"/>
<path d="M863.464 0L857.697 30.0142H858.642L864.408 0H863.464Z" fill="#FEC311"/>
<path d="M867.831 0L862.064 30.0142H863.009L868.775 0H867.831Z" fill="#FEC311"/>
<path d="M872.198 0L866.432 30.0142H867.376L873.142 0H872.198Z" fill="#FEC311"/>
<path d="M876.565 0L870.799 30.0142H871.743L877.509 0H876.565Z" fill="#FEC311"/>
<path d="M880.934 0L875.168 30.0142H876.112L881.879 0H880.934Z" fill="#FEC311"/>
<path d="M885.301 0L879.535 30.0142H880.479L886.246 0H885.301Z" fill="#FEC311"/>
<path d="M889.669 0L883.902 30.0142H884.847L890.613 0H889.669Z" fill="#FEC311"/>
<path d="M894.036 0L888.27 30.0142H889.214L894.98 0H894.036Z" fill="#FEC311"/>
<path d="M898.403 0L892.637 30.0142H893.581L899.347 0H898.403Z" fill="#FEC311"/>
<path d="M902.77 0L897.004 30.0142H897.948L903.714 0H902.77Z" fill="#FEC311"/>
<path d="M907.137 0L901.371 30.0142H902.315L908.082 0H907.137Z" fill="#FEC311"/>
<path d="M911.505 0L905.738 30.0142H906.683L912.449 0H911.505Z" fill="#FEC311"/>
<path d="M915.872 0L910.105 30.0142H911.05L916.816 0H915.872Z" fill="#FEC311"/>
<path d="M920.241 0L914.475 30.0142H915.419L921.185 0H920.241Z" fill="#FEC311"/>
<path d="M924.608 0L918.842 30.0142H919.786L925.552 0H924.608Z" fill="#FEC311"/>
<path d="M928.975 0L923.209 30.0142H924.153L929.92 0H928.975Z" fill="#FEC311"/>
<path d="M933.342 0L927.576 30.0142H928.52L934.287 0H933.342Z" fill="#FEC311"/>
<path d="M937.71 0L931.943 30.0142H932.888L938.654 0H937.71Z" fill="#FEC311"/>
<path d="M942.077 0L936.311 30.0142H937.255L943.021 0H942.077Z" fill="#FEC311"/>
<path d="M946.444 0L940.678 30.0142H941.622L947.388 0H946.444Z" fill="#FEC311"/>
<path d="M950.813 0L945.047 30.0142H945.991L951.757 0H950.813Z" fill="#FEC311"/>
<path d="M955.18 0L949.414 30.0142H950.358L956.125 0H955.18Z" fill="#FEC311"/>
<path d="M959.548 0L953.781 30.0142H954.725L960.492 0H959.548Z" fill="#FEC311"/>
<path d="M963.915 0L958.148 30.0142H959.093L964.859 0H963.915Z" fill="#FEC311"/>
<path d="M968.282 0L962.516 30.0142H963.46L969.226 0H968.282Z" fill="#FEC311"/>
<path d="M972.649 0L966.883 30.0142H967.827L973.593 0H972.649Z" fill="#FEC311"/>
<path d="M977.016 0L971.25 30.0142H972.194L977.961 0H977.016Z" fill="#FEC311"/>
<path d="M981.384 0L975.617 30.0142H976.561L982.328 0H981.384Z" fill="#FEC311"/>
<path d="M985.751 0L979.984 30.0142H980.929L986.695 0H985.751Z" fill="#FEC311"/>
<path d="M990.12 0L984.354 30.0142H985.298L991.064 0H990.12Z" fill="#FEC311"/>
<path d="M994.487 0L988.721 30.0142H989.665L995.431 0H994.487Z" fill="#FEC311"/>
<path d="M998.854 0L993.088 30.0142H994.032L999.798 0H998.854Z" fill="#FEC311"/>
<path d="M1003.22 0L997.455 30.0142H998.399L1004.17 0H1003.22Z" fill="#FEC311"/>
<path d="M1007.59 0L1001.82 30.0142H1002.77L1008.53 0H1007.59Z" fill="#FEC311"/>
<path d="M1011.96 0L1006.19 30.0142H1007.13L1012.9 0H1011.96Z" fill="#FEC311"/>
<path d="M1016.32 0L1010.56 30.0142H1011.5L1017.27 0H1016.32Z" fill="#FEC311"/>
<path d="M1020.69 0L1014.93 30.0142H1015.87L1021.64 0H1020.69Z" fill="#FEC311"/>
<path d="M1025.06 0L1019.29 30.0142H1020.24L1026 0H1025.06Z" fill="#FEC311"/>
<path d="M1029.43 0L1023.66 30.0142H1024.6L1030.37 0H1029.43Z" fill="#FEC311"/>
<path d="M1033.79 0L1028.03 30.0142H1028.97L1034.74 0H1033.79Z" fill="#FEC311"/>
<path d="M1038.16 0L1032.39 30.0142H1033.34L1039.11 0H1038.16Z" fill="#FEC311"/>
<path d="M1042.53 0L1036.76 30.0142H1037.71L1043.47 0H1042.53Z" fill="#FEC311"/>
<path d="M1046.9 0L1041.13 30.0142H1042.07L1047.84 0H1046.9Z" fill="#FEC311"/>
<path d="M1051.26 0L1045.5 30.0142H1046.44L1052.21 0H1051.26Z" fill="#FEC311"/>
<path d="M1055.63 0L1049.86 30.0142H1050.81L1056.57 0H1055.63Z" fill="#FEC311"/>
<path d="M1060 0L1054.23 30.0142H1055.18L1060.94 0H1060Z" fill="#FEC311"/>
<path d="M1064.37 0L1058.6 30.0142H1059.54L1065.31 0H1064.37Z" fill="#FEC311"/>
<path d="M1068.73 0L1062.97 30.0142H1063.91L1069.68 0H1068.73Z" fill="#FEC311"/>
<path d="M1073.1 0L1067.33 30.0142H1068.28L1074.04 0H1073.1Z" fill="#FEC311"/>
<path d="M1077.47 0L1071.7 30.0142H1072.65L1078.41 0H1077.47Z" fill="#FEC311"/>
<path d="M1081.83 0L1076.07 30.0142H1077.01L1082.78 0H1081.83Z" fill="#FEC311"/>
<path d="M1086.2 0L1080.44 30.0142H1081.38L1087.15 0H1086.2Z" fill="#FEC311"/>
<path d="M1090.57 0L1084.8 30.0142H1085.75L1091.52 0H1090.57Z" fill="#FEC311"/>
<path d="M1094.94 0L1089.17 30.0142H1090.12L1095.88 0H1094.94Z" fill="#FEC311"/>
<path d="M1099.31 0L1093.54 30.0142H1094.48L1100.25 0H1099.31Z" fill="#FEC311"/>
<path d="M1103.67 0L1097.91 30.0142H1098.85L1104.62 0H1103.67Z" fill="#FEC311"/>
<path d="M1108.04 0L1102.27 30.0142H1103.22L1108.98 0H1108.04Z" fill="#FEC311"/>
<path d="M1112.41 0L1106.64 30.0142H1107.58L1113.35 0H1112.41Z" fill="#FEC311"/>
<path d="M1116.77 0L1111.01 30.0142H1111.95L1117.72 0H1116.77Z" fill="#FEC311"/>
<path d="M1121.14 0L1115.38 30.0142H1116.32L1122.09 0H1121.14Z" fill="#FEC311"/>
<path d="M1125.51 0L1119.74 30.0142H1120.69L1126.45 0H1125.51Z" fill="#FEC311"/>
<path d="M1129.88 0L1124.11 30.0142H1125.06L1130.82 0H1129.88Z" fill="#FEC311"/>
<path d="M1134.24 0L1128.48 30.0142H1129.42L1135.19 0H1134.24Z" fill="#FEC311"/>
<path d="M1138.61 0L1132.85 30.0142H1133.79L1139.56 0H1138.61Z" fill="#FEC311"/>
<path d="M1142.98 0L1137.21 30.0142H1138.16L1143.92 0H1142.98Z" fill="#FEC311"/>
<path d="M1147.35 0L1141.58 30.0142H1142.52L1148.29 0H1147.35Z" fill="#FEC311"/>
<path d="M1151.71 0L1145.95 30.0142H1146.89L1152.66 0H1151.71Z" fill="#FEC311"/>
<path d="M1156.08 0L1150.31 30.0142H1151.26L1157.03 0H1156.08Z" fill="#FEC311"/>
<path d="M1160.45 0L1154.68 30.0142H1155.63L1161.39 0H1160.45Z" fill="#FEC311"/>
<path d="M1164.82 0L1159.05 30.0142H1160L1165.76 0H1164.82Z" fill="#FEC311"/>
<path d="M1169.18 0L1163.42 30.0142H1164.36L1170.13 0H1169.18Z" fill="#FEC311"/>
<path d="M1173.55 0L1167.79 30.0142H1168.73L1174.5 0H1173.55Z" fill="#FEC311"/>
<path d="M1177.92 0L1172.15 30.0142H1173.1L1178.86 0H1177.92Z" fill="#FEC311"/>
<path d="M1182.29 0L1176.52 30.0142H1177.46L1183.23 0H1182.29Z" fill="#FEC311"/>
<path d="M1186.65 0L1180.89 30.0142H1181.83L1187.6 0H1186.65Z" fill="#FEC311"/>
<path d="M1191.02 0L1185.25 30.0142H1186.2L1191.96 0H1191.02Z" fill="#FEC311"/>
<path d="M1195.39 0L1189.62 30.0142H1190.57L1196.33 0H1195.39Z" fill="#FEC311"/>
<path d="M1199.76 0L1193.99 30.0142H1194.93L1200.7 0H1199.76Z" fill="#FEC311"/>
<path d="M111.632 -3.05176e-05L105.865 30.0142H106.809L112.576 -3.05176e-05H111.632Z" fill="#FEC311"/>
<path d="M223.475 -3.05176e-05L217.709 30.0142H218.653L224.42 -3.05176e-05H223.475Z" fill="#FEC311"/>
<path d="M261.18 -3.05176e-05L255.414 30.0142H256.358L262.125 -3.05176e-05H261.18Z" fill="#FEC311"/>
</svg>
